<svg width="240" height="200" viewBox="0 0 240 200" fill="none" xmlns="http://www.w3.org/2000/svg">
<g clip-path="url(#clip0_904_14166)">
<path d="M134.573 46.7622L126.446 14.71L102.753 37.7687L134.573 46.7622Z" fill="#B8B8B8"/>
<path d="M128.063 4.22972L126.446 14.71L99.0944 11.6325L128.063 4.22972Z" fill="#B8B8B8"/>
<path d="M99.094 11.6318L102.753 37.768L91.0196 40.4223L99.094 11.6318Z" fill="#B8B8B8"/>
<path d="M102.753 37.7687L111.917 61.81L134.573 46.7622L102.753 37.7687Z" fill="#6C6C6C"/>
<path d="M134.573 46.7622L148.96 25.6168L126.446 14.71L134.573 46.7622Z" fill="#727272"/>
<path d="M134.573 46.7622L140.886 54.4073L111.917 61.81L134.573 46.7622Z" fill="#3F3F3F"/>
<path d="M134.573 46.7622L148.96 25.6168L140.886 54.4073L134.573 46.7622Z" fill="#555555"/>
<path d="M99.0944 11.6325L126.446 14.71L102.753 37.7687L99.0944 11.6325Z" fill="#E1E1E1"/>
<path d="M128.063 4.22973L126.446 14.71L148.96 25.6168L128.063 4.22973Z" fill="#939393"/>
<path d="M102.753 37.7687L111.917 61.81L91.0201 40.4229L102.753 37.7687Z" fill="#5F5F5F"/>
</g>
<path d="M39.2545 140.909C39.2545 141.983 39.0606 142.911 38.6729 143.693C38.2851 144.475 37.7531 145.079 37.077 145.503C36.4008 145.927 35.6286 146.139 34.7602 146.139C33.8918 146.139 33.1196 145.927 32.4434 145.503C31.7673 145.079 31.2354 144.475 30.8476 143.693C30.4598 142.911 30.2659 141.983 30.2659 140.909C30.2659 139.835 30.4598 138.907 30.8476 138.125C31.2354 137.343 31.7673 136.74 32.4434 136.315C33.1196 135.891 33.8918 135.679 34.7602 135.679C35.6286 135.679 36.4008 135.891 37.077 136.315C37.7531 136.74 38.2851 137.343 38.6729 138.125C39.0606 138.907 39.2545 139.835 39.2545 140.909ZM38.0613 140.909C38.0613 140.027 37.9139 139.283 37.6189 138.677C37.3272 138.07 36.9311 137.611 36.4307 137.3C35.9335 136.988 35.3767 136.832 34.7602 136.832C34.1437 136.832 33.5853 136.988 33.0848 137.3C32.5876 137.611 32.1916 138.07 31.8966 138.677C31.6049 139.283 31.4591 140.027 31.4591 140.909C31.4591 141.791 31.6049 142.535 31.8966 143.141C32.1916 143.748 32.5876 144.207 33.0848 144.518C33.5853 144.83 34.1437 144.986 34.7602 144.986C35.3767 144.986 35.9335 144.83 36.4307 144.518C36.9311 144.207 37.3272 143.748 37.6189 143.141C37.9139 142.535 38.0613 141.791 38.0613 140.909ZM41.1686 148.864V138.364H42.3021V139.577H42.4413C42.5275 139.444 42.6468 139.275 42.7993 139.07C42.955 138.861 43.1771 138.675 43.4655 138.513C43.7571 138.347 44.1515 138.264 44.6487 138.264C45.2917 138.264 45.8585 138.425 46.349 138.746C46.8395 139.068 47.2223 139.524 47.4974 140.114C47.7725 140.704 47.9101 141.4 47.9101 142.202C47.9101 143.01 47.7725 143.711 47.4974 144.305C47.2223 144.895 46.8412 145.352 46.354 145.677C45.8667 145.998 45.305 146.159 44.6686 146.159C44.1781 146.159 43.7853 146.078 43.4903 145.915C43.1953 145.75 42.9683 145.562 42.8092 145.354C42.6501 145.142 42.5275 144.966 42.4413 144.827H42.3419V148.864H41.1686ZM42.322 142.182C42.322 142.759 42.4065 143.267 42.5756 143.708C42.7446 144.146 42.9915 144.489 43.3163 144.737C43.6411 144.982 44.0389 145.105 44.5095 145.105C45 145.105 45.4094 144.976 45.7375 144.717C46.0689 144.455 46.3175 144.104 46.4832 143.663C46.6523 143.219 46.7368 142.725 46.7368 142.182C46.7368 141.645 46.6539 141.161 46.4882 140.73C46.3258 140.296 46.0789 139.953 45.7474 139.701C45.4193 139.446 45.0067 139.318 44.5095 139.318C44.0322 139.318 43.6312 139.439 43.3064 139.681C42.9816 139.92 42.7363 140.254 42.5706 140.685C42.4049 141.113 42.322 141.612 42.322 142.182ZM52.9015 146.159C52.1657 146.159 51.531 145.997 50.9974 145.672C50.4671 145.344 50.0578 144.886 49.7694 144.3C49.4844 143.71 49.3419 143.024 49.3419 142.241C49.3419 141.459 49.4844 140.77 49.7694 140.173C50.0578 139.573 50.4588 139.106 50.9726 138.771C51.4896 138.433 52.0928 138.264 52.7822 138.264C53.18 138.264 53.5727 138.33 53.9605 138.463C54.3483 138.596 54.7013 138.811 55.0194 139.109C55.3376 139.404 55.5912 139.795 55.7801 140.283C55.969 140.77 56.0635 141.37 56.0635 142.082V142.58H50.1771V141.565H54.8703C54.8703 141.134 54.7841 140.75 54.6118 140.412C54.4427 140.074 54.2008 139.807 53.8859 139.612C53.5744 139.416 53.2065 139.318 52.7822 139.318C52.3149 139.318 51.9105 139.434 51.5692 139.666C51.2311 139.895 50.9709 140.193 50.7886 140.561C50.6063 140.929 50.5152 141.323 50.5152 141.744V142.42C50.5152 142.997 50.6146 143.486 50.8135 143.887C51.0157 144.285 51.2957 144.588 51.6537 144.797C52.0116 145.002 52.4276 145.105 52.9015 145.105C53.2098 145.105 53.4882 145.062 53.7368 144.976C53.9887 144.886 54.2058 144.754 54.3881 144.578C54.5703 144.399 54.7112 144.177 54.8106 143.912L55.9442 144.23C55.8248 144.615 55.6243 144.953 55.3426 145.244C55.0609 145.533 54.7129 145.758 54.2986 145.92C53.8843 146.08 53.4186 146.159 52.9015 146.159ZM59.0216 141.406V146H57.8483V138.364H58.9818V139.557H59.0812C59.2602 139.169 59.532 138.857 59.8966 138.622C60.2612 138.384 60.7318 138.264 61.3085 138.264C61.8256 138.264 62.278 138.37 62.6657 138.582C63.0535 138.791 63.3551 139.109 63.5706 139.537C63.786 139.961 63.8937 140.498 63.8937 141.148V146H62.7204V141.227C62.7204 140.627 62.5647 140.16 62.2531 139.825C61.9416 139.487 61.514 139.318 60.9704 139.318C60.5959 139.318 60.2612 139.399 59.9662 139.562C59.6745 139.724 59.4442 139.961 59.2751 140.273C59.1061 140.584 59.0216 140.962 59.0216 141.406ZM75.3843 140.074L74.3303 140.372C74.2641 140.196 74.1663 140.026 74.037 139.86C73.9111 139.691 73.7387 139.552 73.52 139.442C73.3012 139.333 73.0212 139.278 72.6798 139.278C72.2124 139.278 71.823 139.386 71.5115 139.602C71.2032 139.814 71.0491 140.084 71.0491 140.412C71.0491 140.704 71.1552 140.934 71.3673 141.103C71.5794 141.272 71.9108 141.413 72.3616 141.526L73.4951 141.804C74.1779 141.97 74.6866 142.223 75.0214 142.565C75.3561 142.903 75.5235 143.339 75.5235 143.872C75.5235 144.31 75.3976 144.701 75.1457 145.045C74.8971 145.39 74.5491 145.662 74.1017 145.861C73.6542 146.06 73.1338 146.159 72.5406 146.159C71.7617 146.159 71.117 145.99 70.6066 145.652C70.0962 145.314 69.7731 144.82 69.6372 144.17L70.7508 143.892C70.8569 144.303 71.0574 144.611 71.3524 144.817C71.6507 145.022 72.0401 145.125 72.5207 145.125C73.0676 145.125 73.5017 145.009 73.8232 144.777C74.1481 144.542 74.3105 144.26 74.3105 143.932C74.3105 143.667 74.2177 143.445 74.032 143.266C73.8464 143.083 73.5614 142.947 73.1769 142.858L71.9042 142.56C71.2049 142.394 70.6911 142.137 70.363 141.789C70.0382 141.438 69.8758 140.999 69.8758 140.472C69.8758 140.041 69.9968 139.66 70.2387 139.328C70.484 138.997 70.8171 138.737 71.238 138.548C71.6623 138.359 72.1428 138.264 72.6798 138.264C73.4355 138.264 74.0287 138.43 74.4596 138.761C74.8938 139.093 75.202 139.53 75.3843 140.074ZM80.392 146.159C79.7026 146.159 79.0977 145.995 78.5773 145.667C78.0603 145.339 77.6559 144.88 77.3643 144.29C77.0759 143.7 76.9317 143.01 76.9317 142.222C76.9317 141.426 77.0759 140.732 77.3643 140.138C77.6559 139.545 78.0603 139.085 78.5773 138.756C79.0977 138.428 79.7026 138.264 80.392 138.264C81.0814 138.264 81.6846 138.428 82.2016 138.756C82.722 139.085 83.1263 139.545 83.4147 140.138C83.7064 140.732 83.8522 141.426 83.8522 142.222C83.8522 143.01 83.7064 143.7 83.4147 144.29C83.1263 144.88 82.722 145.339 82.2016 145.667C81.6846 145.995 81.0814 146.159 80.392 146.159ZM80.392 145.105C80.9156 145.105 81.3465 144.971 81.6846 144.702C82.0226 144.434 82.2729 144.081 82.4353 143.643C82.5977 143.206 82.6789 142.732 82.6789 142.222C82.6789 141.711 82.5977 141.236 82.4353 140.795C82.2729 140.354 82.0226 139.998 81.6846 139.726C81.3465 139.454 80.9156 139.318 80.392 139.318C79.8683 139.318 79.4374 139.454 79.0993 139.726C78.7613 139.998 78.511 140.354 78.3486 140.795C78.1862 141.236 78.105 141.711 78.105 142.222C78.105 142.732 78.1862 143.206 78.3486 143.643C78.511 144.081 78.7613 144.434 79.0993 144.702C79.4374 144.971 79.8683 145.105 80.392 145.105ZM90.4557 142.878V138.364H91.629V146H90.4557V144.707H90.3762C90.1972 145.095 89.9188 145.425 89.5409 145.697C89.1631 145.965 88.6858 146.099 88.1091 146.099C87.6318 146.099 87.2076 145.995 86.8364 145.786C86.4652 145.574 86.1735 145.256 85.9614 144.832C85.7493 144.404 85.6432 143.866 85.6432 143.216V138.364H86.8165V143.136C86.8165 143.693 86.9723 144.137 87.2838 144.469C87.5987 144.8 87.9997 144.966 88.4869 144.966C88.7786 144.966 89.0753 144.891 89.3769 144.742C89.6818 144.593 89.937 144.364 90.1425 144.056C90.3513 143.748 90.4557 143.355 90.4557 142.878ZM93.778 146V138.364H94.9115V139.517H94.991C95.1302 139.139 95.3821 138.833 95.7467 138.597C96.1113 138.362 96.5223 138.244 96.9797 138.244C97.0658 138.244 97.1736 138.246 97.3028 138.249C97.4321 138.253 97.5299 138.258 97.5961 138.264V139.457C97.5564 139.447 97.4652 139.433 97.3227 139.413C97.1835 139.389 97.036 139.378 96.8802 139.378C96.509 139.378 96.1776 139.456 95.8859 139.612C95.5976 139.764 95.3689 139.976 95.1998 140.248C95.0341 140.516 94.9513 140.823 94.9513 141.168V146H93.778ZM101.857 146.159C101.141 146.159 100.524 145.99 100.007 145.652C99.4903 145.314 99.0926 144.848 98.8142 144.255C98.5358 143.662 98.3966 142.984 98.3966 142.222C98.3966 141.446 98.5391 140.762 98.8241 140.168C99.1125 139.572 99.5135 139.106 100.027 138.771C100.544 138.433 101.148 138.264 101.837 138.264C102.374 138.264 102.858 138.364 103.289 138.562C103.719 138.761 104.072 139.04 104.348 139.398C104.623 139.756 104.793 140.173 104.86 140.651H103.686C103.597 140.303 103.398 139.994 103.09 139.726C102.785 139.454 102.374 139.318 101.857 139.318C101.399 139.318 100.998 139.437 100.654 139.676C100.312 139.911 100.045 140.245 99.8532 140.675C99.6643 141.103 99.5699 141.605 99.5699 142.182C99.5699 142.772 99.6627 143.286 99.8483 143.723C100.037 144.161 100.302 144.5 100.644 144.742C100.988 144.984 101.393 145.105 101.857 145.105C102.162 145.105 102.438 145.052 102.687 144.946C102.936 144.84 103.146 144.688 103.318 144.489C103.491 144.29 103.613 144.051 103.686 143.773H104.86C104.793 144.223 104.629 144.629 104.367 144.991C104.109 145.349 103.766 145.634 103.338 145.846C102.914 146.055 102.42 146.159 101.857 146.159ZM109.777 146.159C109.041 146.159 108.406 145.997 107.872 145.672C107.342 145.344 106.933 144.886 106.644 144.3C106.359 143.71 106.217 143.024 106.217 142.241C106.217 141.459 106.359 140.77 106.644 140.173C106.933 139.573 107.334 139.106 107.848 138.771C108.365 138.433 108.968 138.264 109.657 138.264C110.055 138.264 110.448 138.33 110.835 138.463C111.223 138.596 111.576 138.811 111.894 139.109C112.213 139.404 112.466 139.795 112.655 140.283C112.844 140.77 112.938 141.37 112.938 142.082V142.58H107.052V141.565H111.745C111.745 141.134 111.659 140.75 111.487 140.412C111.318 140.074 111.076 139.807 110.761 139.612C110.449 139.416 110.081 139.318 109.657 139.318C109.19 139.318 108.786 139.434 108.444 139.666C108.106 139.895 107.846 140.193 107.664 140.561C107.481 140.929 107.39 141.323 107.39 141.744V142.42C107.39 142.997 107.49 143.486 107.688 143.887C107.891 144.285 108.171 144.588 108.529 144.797C108.887 145.002 109.303 145.105 109.777 145.105C110.085 145.105 110.363 145.062 110.612 144.976C110.864 144.886 111.081 144.754 111.263 144.578C111.445 144.399 111.586 144.177 111.686 143.912L112.819 144.23C112.7 144.615 112.499 144.953 112.218 145.244C111.936 145.533 111.588 145.758 111.174 145.92C110.759 146.08 110.294 146.159 109.777 146.159ZM122.061 138.364V139.358H117.945V138.364H122.061ZM119.178 146V137.31C119.178 136.872 119.281 136.508 119.486 136.216C119.692 135.924 119.958 135.705 120.286 135.56C120.615 135.414 120.961 135.341 121.326 135.341C121.614 135.341 121.849 135.364 122.032 135.411C122.214 135.457 122.35 135.5 122.439 135.54L122.101 136.554C122.041 136.534 121.959 136.509 121.853 136.479C121.75 136.45 121.614 136.435 121.445 136.435C121.057 136.435 120.777 136.532 120.605 136.728C120.436 136.924 120.351 137.21 120.351 137.588V146H119.178ZM123.706 146V138.364H124.839V139.517H124.919C125.058 139.139 125.31 138.833 125.674 138.597C126.039 138.362 126.45 138.244 126.907 138.244C126.994 138.244 127.101 138.246 127.231 138.249C127.36 138.253 127.458 138.258 127.524 138.264V139.457C127.484 139.447 127.393 139.433 127.25 139.413C127.111 139.389 126.964 139.378 126.808 139.378C126.437 139.378 126.105 139.456 125.814 139.612C125.525 139.764 125.297 139.976 125.128 140.248C124.962 140.516 124.879 140.823 124.879 141.168V146H123.706ZM131.162 146.179C130.678 146.179 130.239 146.088 129.844 145.906C129.45 145.72 129.137 145.453 128.905 145.105C128.673 144.754 128.557 144.33 128.557 143.832C128.557 143.395 128.643 143.04 128.815 142.768C128.988 142.493 129.218 142.278 129.506 142.122C129.795 141.966 130.113 141.85 130.461 141.774C130.812 141.695 131.165 141.632 131.52 141.585C131.984 141.526 132.36 141.481 132.648 141.451C132.94 141.418 133.152 141.363 133.285 141.287C133.421 141.211 133.489 141.078 133.489 140.889V140.849C133.489 140.359 133.354 139.978 133.086 139.706C132.821 139.434 132.418 139.298 131.878 139.298C131.318 139.298 130.878 139.421 130.56 139.666C130.242 139.911 130.018 140.173 129.889 140.452L128.775 140.054C128.974 139.59 129.239 139.229 129.571 138.97C129.906 138.708 130.27 138.526 130.665 138.423C131.062 138.317 131.454 138.264 131.838 138.264C132.083 138.264 132.365 138.294 132.683 138.354C133.005 138.41 133.315 138.528 133.613 138.707C133.914 138.886 134.165 139.156 134.364 139.517C134.562 139.878 134.662 140.362 134.662 140.969V146H133.489V144.966H133.429C133.349 145.132 133.217 145.309 133.031 145.498C132.846 145.687 132.599 145.848 132.29 145.98C131.982 146.113 131.606 146.179 131.162 146.179ZM131.341 145.125C131.805 145.125 132.196 145.034 132.514 144.852C132.836 144.669 133.078 144.434 133.24 144.146C133.406 143.857 133.489 143.554 133.489 143.236V142.162C133.439 142.222 133.329 142.276 133.16 142.326C132.995 142.372 132.802 142.414 132.584 142.45C132.368 142.483 132.158 142.513 131.952 142.54C131.75 142.563 131.586 142.583 131.46 142.599C131.155 142.639 130.87 142.704 130.605 142.793C130.343 142.879 130.131 143.01 129.969 143.186C129.81 143.358 129.73 143.594 129.73 143.892C129.73 144.3 129.881 144.608 130.182 144.817C130.487 145.022 130.873 145.125 131.341 145.125ZM136.803 146V138.364H137.937V139.557H138.036C138.195 139.149 138.452 138.833 138.807 138.607C139.162 138.379 139.587 138.264 140.085 138.264C140.588 138.264 141.008 138.379 141.342 138.607C141.68 138.833 141.944 139.149 142.133 139.557H142.212C142.408 139.162 142.701 138.849 143.092 138.617C143.484 138.382 143.953 138.264 144.499 138.264C145.182 138.264 145.741 138.478 146.175 138.906C146.609 139.33 146.826 139.991 146.826 140.889V146H145.653V140.889C145.653 140.326 145.499 139.923 145.19 139.681C144.882 139.439 144.519 139.318 144.102 139.318C143.565 139.318 143.149 139.481 142.854 139.805C142.559 140.127 142.411 140.535 142.411 141.028V146H141.218V140.77C141.218 140.336 141.077 139.986 140.796 139.721C140.514 139.452 140.151 139.318 139.707 139.318C139.402 139.318 139.117 139.399 138.852 139.562C138.59 139.724 138.378 139.95 138.215 140.238C138.056 140.523 137.977 140.853 137.977 141.227V146H136.803ZM152.173 146.159C151.437 146.159 150.803 145.997 150.269 145.672C149.739 145.344 149.329 144.886 149.041 144.3C148.756 143.71 148.613 143.024 148.613 142.241C148.613 141.459 148.756 140.77 149.041 140.173C149.329 139.573 149.73 139.106 150.244 138.771C150.761 138.433 151.364 138.264 152.054 138.264C152.451 138.264 152.844 138.33 153.232 138.463C153.62 138.596 153.973 138.811 154.291 139.109C154.609 139.404 154.863 139.795 155.052 140.283C155.241 140.77 155.335 141.37 155.335 142.082V142.58H149.449V141.565H154.142C154.142 141.134 154.056 140.75 153.883 140.412C153.714 140.074 153.472 139.807 153.157 139.612C152.846 139.416 152.478 139.318 152.054 139.318C151.586 139.318 151.182 139.434 150.841 139.666C150.503 139.895 150.242 140.193 150.06 140.561C149.878 140.929 149.787 141.323 149.787 141.744V142.42C149.787 142.997 149.886 143.486 150.085 143.887C150.287 144.285 150.567 144.588 150.925 144.797C151.283 145.002 151.699 145.105 152.173 145.105C152.481 145.105 152.76 145.062 153.008 144.976C153.26 144.886 153.477 144.754 153.66 144.578C153.842 144.399 153.983 144.177 154.082 143.912L155.216 144.23C155.096 144.615 154.896 144.953 154.614 145.244C154.332 145.533 153.984 145.758 153.57 145.92C153.156 146.08 152.69 146.159 152.173 146.159ZM158.85 146L156.523 138.364H157.756L159.407 144.21H159.486L161.117 138.364H162.37L163.981 144.19H164.06L165.711 138.364H166.944L164.617 146H163.464L161.793 140.134H161.674L160.003 146H158.85ZM171.337 146.159C170.648 146.159 170.043 145.995 169.523 145.667C169.006 145.339 168.601 144.88 168.31 144.29C168.021 143.7 167.877 143.01 167.877 142.222C167.877 141.426 168.021 140.732 168.31 140.138C168.601 139.545 169.006 139.085 169.523 138.756C170.043 138.428 170.648 138.264 171.337 138.264C172.027 138.264 172.63 138.428 173.147 138.756C173.667 139.085 174.072 139.545 174.36 140.138C174.652 140.732 174.797 141.426 174.797 142.222C174.797 143.01 174.652 143.7 174.36 144.29C174.072 144.88 173.667 145.339 173.147 145.667C172.63 145.995 172.027 146.159 171.337 146.159ZM171.337 145.105C171.861 145.105 172.292 144.971 172.63 144.702C172.968 144.434 173.218 144.081 173.381 143.643C173.543 143.206 173.624 142.732 173.624 142.222C173.624 141.711 173.543 141.236 173.381 140.795C173.218 140.354 172.968 139.998 172.63 139.726C172.292 139.454 171.861 139.318 171.337 139.318C170.814 139.318 170.383 139.454 170.045 139.726C169.707 139.998 169.456 140.354 169.294 140.795C169.132 141.236 169.05 141.711 169.05 142.222C169.05 142.732 169.132 143.206 169.294 143.643C169.456 144.081 169.707 144.434 170.045 144.702C170.383 144.971 170.814 145.105 171.337 145.105ZM176.589 146V138.364H177.722V139.517H177.802C177.941 139.139 178.193 138.833 178.557 138.597C178.922 138.362 179.333 138.244 179.79 138.244C179.876 138.244 179.984 138.246 180.113 138.249C180.243 138.253 180.34 138.258 180.407 138.264V139.457C180.367 139.447 180.276 139.433 180.133 139.413C179.994 139.389 179.847 139.378 179.691 139.378C179.32 139.378 178.988 139.456 178.696 139.612C178.408 139.764 178.179 139.976 178.01 140.248C177.845 140.516 177.762 140.823 177.762 141.168V146H176.589ZM182.891 143.216L182.871 141.764H183.11L186.451 138.364H187.903L184.343 141.963H184.244L182.891 143.216ZM181.797 146V135.818H182.971V146H181.797ZM186.65 146L183.667 142.222L184.502 141.406L188.141 146H186.65ZM196.751 138.364V139.358H192.634V138.364H196.751ZM193.867 146V137.31C193.867 136.872 193.97 136.508 194.176 136.216C194.381 135.924 194.648 135.705 194.976 135.56C195.304 135.414 195.65 135.341 196.015 135.341C196.303 135.341 196.539 135.364 196.721 135.411C196.903 135.457 197.039 135.5 197.129 135.54L196.791 136.554C196.731 136.534 196.648 136.509 196.542 136.479C196.439 136.45 196.303 136.435 196.134 136.435C195.747 136.435 195.466 136.532 195.294 136.728C195.125 136.924 195.041 137.21 195.041 137.588V146H193.867ZM201.183 146.159C200.494 146.159 199.889 145.995 199.368 145.667C198.851 145.339 198.447 144.88 198.155 144.29C197.867 143.7 197.723 143.01 197.723 142.222C197.723 141.426 197.867 140.732 198.155 140.138C198.447 139.545 198.851 139.085 199.368 138.756C199.889 138.428 200.494 138.264 201.183 138.264C201.872 138.264 202.476 138.428 202.993 138.756C203.513 139.085 203.917 139.545 204.206 140.138C204.497 140.732 204.643 141.426 204.643 142.222C204.643 143.01 204.497 143.7 204.206 144.29C203.917 144.88 203.513 145.339 202.993 145.667C202.476 145.995 201.872 146.159 201.183 146.159ZM201.183 145.105C201.707 145.105 202.138 144.971 202.476 144.702C202.814 144.434 203.064 144.081 203.226 143.643C203.389 143.206 203.47 142.732 203.47 142.222C203.47 141.711 203.389 141.236 203.226 140.795C203.064 140.354 202.814 139.998 202.476 139.726C202.138 139.454 201.707 139.318 201.183 139.318C200.659 139.318 200.228 139.454 199.89 139.726C199.552 139.998 199.302 140.354 199.14 140.795C198.977 141.236 198.896 141.711 198.896 142.222C198.896 142.732 198.977 143.206 199.14 143.643C199.302 144.081 199.552 144.434 199.89 144.702C200.228 144.971 200.659 145.105 201.183 145.105ZM206.434 146V138.364H207.568V139.517H207.647C207.786 139.139 208.038 138.833 208.403 138.597C208.768 138.362 209.179 138.244 209.636 138.244C209.722 138.244 209.83 138.246 209.959 138.249C210.088 138.253 210.186 138.258 210.252 138.264V139.457C210.213 139.447 210.121 139.433 209.979 139.413C209.84 139.389 209.692 139.378 209.536 139.378C209.165 139.378 208.834 139.456 208.542 139.612C208.254 139.764 208.025 139.976 207.856 140.248C207.69 140.516 207.608 140.823 207.608 141.168V146H206.434ZM8.39711 163V155.364H9.53063V156.557H9.63006C9.78915 156.149 10.046 155.833 10.4007 155.607C10.7553 155.379 11.1812 155.264 11.6784 155.264C12.1821 155.264 12.6014 155.379 12.9362 155.607C13.2742 155.833 13.5377 156.149 13.7267 156.557H13.8062C14.0017 156.162 14.2951 155.849 14.6862 155.617C15.0773 155.382 15.5463 155.264 16.0931 155.264C16.7759 155.264 17.3344 155.478 17.7686 155.906C18.2027 156.33 18.4198 156.991 18.4198 157.889V163H17.2465V157.889C17.2465 157.326 17.0924 156.923 16.7842 156.681C16.4759 156.439 16.113 156.318 15.6954 156.318C15.1585 156.318 14.7425 156.481 14.4475 156.805C14.1526 157.127 14.0051 157.535 14.0051 158.028V163H12.8119V157.77C12.8119 157.336 12.671 156.986 12.3893 156.721C12.1076 156.452 11.7446 156.318 11.3005 156.318C10.9956 156.318 10.7106 156.399 10.4454 156.562C10.1836 156.724 9.97144 156.95 9.80904 157.238C9.64995 157.523 9.5704 157.853 9.5704 158.227V163H8.39711ZM23.6673 163.159C22.978 163.159 22.3731 162.995 21.8527 162.667C21.3357 162.339 20.9313 161.88 20.6396 161.29C20.3513 160.7 20.2071 160.01 20.2071 159.222C20.2071 158.426 20.3513 157.732 20.6396 157.138C20.9313 156.545 21.3357 156.085 21.8527 155.756C22.3731 155.428 22.978 155.264 23.6673 155.264C24.3567 155.264 24.96 155.428 25.477 155.756C25.9974 156.085 26.4017 156.545 26.6901 157.138C26.9817 157.732 27.1276 158.426 27.1276 159.222C27.1276 160.01 26.9817 160.7 26.6901 161.29C26.4017 161.88 25.9974 162.339 25.477 162.667C24.96 162.995 24.3567 163.159 23.6673 163.159ZM23.6673 162.105C24.191 162.105 24.6219 161.971 24.96 161.702C25.298 161.434 25.5483 161.081 25.7107 160.643C25.8731 160.206 25.9543 159.732 25.9543 159.222C25.9543 158.711 25.8731 158.236 25.7107 157.795C25.5483 157.354 25.298 156.998 24.96 156.726C24.6219 156.454 24.191 156.318 23.6673 156.318C23.1437 156.318 22.7128 156.454 22.3747 156.726C22.0367 156.998 21.7864 157.354 21.624 157.795C21.4616 158.236 21.3804 158.711 21.3804 159.222C21.3804 159.732 21.4616 160.206 21.624 160.643C21.7864 161.081 22.0367 161.434 22.3747 161.702C22.7128 161.971 23.1437 162.105 23.6673 162.105ZM30.0919 152.818V163H28.9186V152.818H30.0919ZM35.4426 163.159C34.7068 163.159 34.0721 162.997 33.5384 162.672C33.0081 162.344 32.5988 161.886 32.3105 161.3C32.0254 160.71 31.8829 160.024 31.8829 159.241C31.8829 158.459 32.0254 157.77 32.3105 157.173C32.5988 156.573 32.9999 156.106 33.5136 155.771C34.0306 155.433 34.6338 155.264 35.3232 155.264C35.721 155.264 36.1137 155.33 36.5015 155.463C36.8893 155.596 37.2423 155.811 37.5605 156.109C37.8786 156.404 38.1322 156.795 38.3211 157.283C38.51 157.77 38.6045 158.37 38.6045 159.082V159.58H32.7181V158.565H37.4113C37.4113 158.134 37.3251 157.75 37.1528 157.412C36.9838 157.074 36.7418 156.807 36.4269 156.612C36.1154 156.416 35.7475 156.318 35.3232 156.318C34.8559 156.318 34.4516 156.434 34.1102 156.666C33.7721 156.895 33.5119 157.193 33.3296 157.561C33.1473 157.929 33.0562 158.323 33.0562 158.744V159.42C33.0562 159.997 33.1556 160.486 33.3545 160.887C33.5567 161.285 33.8367 161.588 34.1947 161.797C34.5526 162.002 34.9686 162.105 35.4426 162.105C35.7508 162.105 36.0292 162.062 36.2778 161.976C36.5297 161.886 36.7468 161.754 36.9291 161.578C37.1114 161.399 37.2522 161.177 37.3517 160.912L38.4852 161.23C38.3659 161.615 38.1653 161.953 37.8836 162.244C37.6019 162.533 37.2539 162.758 36.8396 162.92C36.4253 163.08 35.9596 163.159 35.4426 163.159ZM43.4916 163.159C42.7757 163.159 42.1592 162.99 41.6421 162.652C41.1251 162.314 40.7274 161.848 40.449 161.255C40.1705 160.662 40.0313 159.984 40.0313 159.222C40.0313 158.446 40.1739 157.762 40.4589 157.168C40.7472 156.572 41.1483 156.106 41.662 155.771C42.1791 155.433 42.7823 155.264 43.4717 155.264C44.0086 155.264 44.4925 155.364 44.9234 155.562C45.3543 155.761 45.7072 156.04 45.9823 156.398C46.2574 156.756 46.4281 157.173 46.4944 157.651H45.3211C45.2316 157.303 45.0328 156.994 44.7245 156.726C44.4196 156.454 44.0086 156.318 43.4916 156.318C43.0342 156.318 42.6331 156.437 42.2884 156.676C41.9471 156.911 41.6802 157.245 41.488 157.675C41.2991 158.103 41.2046 158.605 41.2046 159.182C41.2046 159.772 41.2974 160.286 41.483 160.723C41.672 161.161 41.9371 161.5 42.2785 161.742C42.6232 161.984 43.0276 162.105 43.4916 162.105C43.7965 162.105 44.0732 162.052 44.3218 161.946C44.5704 161.84 44.7809 161.688 44.9532 161.489C45.1256 161.29 45.2482 161.051 45.3211 160.773H46.4944C46.4281 161.223 46.2641 161.629 46.0022 161.991C45.7437 162.349 45.4007 162.634 44.9731 162.846C44.5489 163.055 44.055 163.159 43.4916 163.159ZM53.0221 159.878V155.364H54.1954V163H53.0221V161.707H52.9426C52.7636 162.095 52.4852 162.425 52.1073 162.697C51.7295 162.965 51.2522 163.099 50.6755 163.099C50.1982 163.099 49.774 162.995 49.4028 162.786C49.0316 162.574 48.7399 162.256 48.5278 161.832C48.3157 161.404 48.2096 160.866 48.2096 160.216V155.364H49.3829V160.136C49.3829 160.693 49.5387 161.137 49.8502 161.469C50.1651 161.8 50.5661 161.966 51.0534 161.966C51.345 161.966 51.6417 161.891 51.9433 161.742C52.2482 161.593 52.5034 161.364 52.7089 161.056C52.9177 160.748 53.0221 160.355 53.0221 159.878ZM57.5177 152.818V163H56.3444V152.818H57.5177ZM61.9138 163.179C61.4299 163.179 60.9907 163.088 60.5963 162.906C60.2019 162.72 59.8887 162.453 59.6567 162.105C59.4247 161.754 59.3087 161.33 59.3087 160.832C59.3087 160.395 59.3949 160.04 59.5672 159.768C59.7396 159.493 59.9699 159.278 60.2583 159.122C60.5466 158.966 60.8648 158.85 61.2128 158.774C61.5641 158.695 61.9171 158.632 62.2718 158.585C62.7358 158.526 63.1119 158.481 63.4003 158.451C63.692 158.418 63.9041 158.363 64.0367 158.287C64.1726 158.211 64.2405 158.078 64.2405 157.889V157.849C64.2405 157.359 64.1063 156.978 63.8378 156.706C63.5727 156.434 63.17 156.298 62.6297 156.298C62.0696 156.298 61.6304 156.421 61.3122 156.666C60.9941 156.911 60.7703 157.173 60.6411 157.452L59.5274 157.054C59.7263 156.59 59.9914 156.229 60.3229 155.97C60.6576 155.708 61.0222 155.526 61.4166 155.423C61.8144 155.317 62.2055 155.264 62.5899 155.264C62.8352 155.264 63.1169 155.294 63.4351 155.354C63.7566 155.41 64.0665 155.528 64.3648 155.707C64.6664 155.886 64.9166 156.156 65.1155 156.517C65.3144 156.878 65.4138 157.362 65.4138 157.969V163H64.2405V161.966H64.1808C64.1013 162.132 63.9687 162.309 63.7831 162.498C63.5975 162.687 63.3506 162.848 63.0423 162.98C62.7341 163.113 62.3579 163.179 61.9138 163.179ZM62.0928 162.125C62.5568 162.125 62.9479 162.034 63.2661 161.852C63.5876 161.669 63.8295 161.434 63.9919 161.146C64.1576 160.857 64.2405 160.554 64.2405 160.236V159.162C64.1908 159.222 64.0814 159.276 63.9124 159.326C63.7467 159.372 63.5544 159.414 63.3357 159.45C63.1202 159.483 62.9098 159.513 62.7043 159.54C62.5021 159.563 62.338 159.583 62.2121 159.599C61.9072 159.639 61.6221 159.704 61.357 159.793C61.0951 159.879 60.883 160.01 60.7206 160.186C60.5615 160.358 60.482 160.594 60.482 160.892C60.482 161.3 60.6328 161.608 60.9344 161.817C61.2393 162.022 61.6254 162.125 62.0928 162.125ZM67.5553 163V155.364H68.6888V156.517H68.7684C68.9076 156.139 69.1595 155.833 69.5241 155.597C69.8886 155.362 70.2996 155.244 70.757 155.244C70.8432 155.244 70.9509 155.246 71.0802 155.249C71.2094 155.253 71.3072 155.258 71.3735 155.264V156.457C71.3337 156.447 71.2426 156.433 71.1001 156.413C70.9608 156.389 70.8134 156.378 70.6576 156.378C70.2864 156.378 69.9549 156.456 69.6633 156.612C69.3749 156.764 69.1462 156.976 68.9772 157.248C68.8115 157.516 68.7286 157.823 68.7286 158.168V163H67.5553ZM78.949 163.179C78.4651 163.179 78.0259 163.088 77.6315 162.906C77.2371 162.72 76.9239 162.453 76.6919 162.105C76.4598 161.754 76.3438 161.33 76.3438 160.832C76.3438 160.395 76.43 160.04 76.6024 159.768C76.7747 159.493 77.0051 159.278 77.2934 159.122C77.5818 158.966 77.8999 158.85 78.248 158.774C78.5993 158.695 78.9523 158.632 79.3069 158.585C79.7709 158.526 80.1471 158.481 80.4355 158.451C80.7271 158.418 80.9392 158.363 81.0718 158.287C81.2077 158.211 81.2757 158.078 81.2757 157.889V157.849C81.2757 157.359 81.1414 156.978 80.873 156.706C80.6078 156.434 80.2051 156.298 79.6649 156.298C79.1047 156.298 78.6656 156.421 78.3474 156.666C78.0292 156.911 77.8055 157.173 77.6762 157.452L76.5626 157.054C76.7615 156.59 77.0266 156.229 77.358 155.97C77.6928 155.708 78.0574 155.526 78.4518 155.423C78.8495 155.317 79.2406 155.264 79.6251 155.264C79.8704 155.264 80.1521 155.294 80.4703 155.354C80.7918 155.41 81.1017 155.528 81.3999 155.707C81.7016 155.886 81.9518 156.156 82.1507 156.517C82.3495 156.878 82.449 157.362 82.449 157.969V163H81.2757V161.966H81.216C81.1365 162.132 81.0039 162.309 80.8183 162.498C80.6327 162.687 80.3857 162.848 80.0775 162.98C79.7693 163.113 79.3931 163.179 78.949 163.179ZM79.1279 162.125C79.5919 162.125 79.983 162.034 80.3012 161.852C80.6227 161.669 80.8647 161.434 81.0271 161.146C81.1928 160.857 81.2757 160.554 81.2757 160.236V159.162C81.2259 159.222 81.1166 159.276 80.9475 159.326C80.7818 159.372 80.5896 159.414 80.3708 159.45C80.1554 159.483 79.9449 159.513 79.7394 159.54C79.5373 159.563 79.3732 159.583 79.2472 159.599C78.9423 159.639 78.6573 159.704 78.3921 159.793C78.1303 159.879 77.9182 160.01 77.7558 160.186C77.5967 160.358 77.5171 160.594 77.5171 160.892C77.5171 161.3 77.6679 161.608 77.9695 161.817C78.2745 162.022 78.6606 162.125 79.1279 162.125ZM85.7638 158.406V163H84.5905V155.364H85.724V156.557H85.8234C86.0024 156.169 86.2742 155.857 86.6388 155.622C87.0033 155.384 87.474 155.264 88.0507 155.264C88.5677 155.264 89.0202 155.37 89.4079 155.582C89.7957 155.791 90.0973 156.109 90.3128 156.537C90.5282 156.961 90.6359 157.498 90.6359 158.148V163H89.4626V158.227C89.4626 157.627 89.3068 157.16 88.9953 156.825C88.6837 156.487 88.2562 156.318 87.7126 156.318C87.3381 156.318 87.0033 156.399 86.7084 156.562C86.4167 156.724 86.1863 156.961 86.0173 157.273C85.8483 157.584 85.7638 157.962 85.7638 158.406ZM95.6634 163.159C95.0271 163.159 94.4653 162.998 93.9781 162.677C93.4909 162.352 93.1097 161.895 92.8346 161.305C92.5595 160.711 92.422 160.01 92.422 159.202C92.422 158.4 92.5595 157.704 92.8346 157.114C93.1097 156.524 93.4925 156.068 93.983 155.746C94.4736 155.425 95.0403 155.264 95.6833 155.264C96.1805 155.264 96.5732 155.347 96.8616 155.513C97.1533 155.675 97.3753 155.861 97.5278 156.07C97.6836 156.275 97.8045 156.444 97.8907 156.577H97.9901V152.818H99.1634V163H98.0299V161.827H97.8907C97.8045 161.966 97.6819 162.142 97.5228 162.354C97.3637 162.562 97.1367 162.75 96.8417 162.915C96.5467 163.078 96.154 163.159 95.6634 163.159ZM95.8225 162.105C96.2932 162.105 96.6909 161.982 97.0157 161.737C97.3405 161.489 97.5874 161.146 97.7565 160.708C97.9255 160.267 98.01 159.759 98.01 159.182C98.01 158.612 97.9272 158.113 97.7615 157.685C97.5957 157.254 97.3505 156.92 97.0257 156.681C96.7008 156.439 96.2998 156.318 95.8225 156.318C95.3254 156.318 94.9111 156.446 94.5796 156.701C94.2515 156.953 94.0046 157.296 93.8389 157.73C93.6765 158.161 93.5953 158.645 93.5953 159.182C93.5953 159.725 93.6781 160.219 93.8438 160.663C94.0129 161.104 94.2615 161.455 94.5896 161.717C94.921 161.976 95.332 162.105 95.8225 162.105ZM105.413 163V155.364H106.546V156.557H106.646C106.805 156.149 107.062 155.833 107.416 155.607C107.771 155.379 108.197 155.264 108.694 155.264C109.198 155.264 109.617 155.379 109.952 155.607C110.29 155.833 110.553 156.149 110.742 156.557H110.822C111.017 156.162 111.311 155.849 111.702 155.617C112.093 155.382 112.562 155.264 113.109 155.264C113.792 155.264 114.35 155.478 114.784 155.906C115.218 156.33 115.435 156.991 115.435 157.889V163H114.262V157.889C114.262 157.326 114.108 156.923 113.8 156.681C113.492 156.439 113.129 156.318 112.711 156.318C112.174 156.318 111.758 156.481 111.463 156.805C111.168 157.127 111.021 157.535 111.021 158.028V163H109.828V157.77C109.828 157.336 109.687 156.986 109.405 156.721C109.123 156.452 108.76 156.318 108.316 156.318C108.011 156.318 107.726 156.399 107.461 156.562C107.199 156.724 106.987 156.95 106.825 157.238C106.666 157.523 106.586 157.853 106.586 158.227V163H105.413ZM119.828 163.179C119.344 163.179 118.905 163.088 118.51 162.906C118.116 162.72 117.803 162.453 117.571 162.105C117.339 161.754 117.223 161.33 117.223 160.832C117.223 160.395 117.309 160.04 117.481 159.768C117.654 159.493 117.884 159.278 118.172 159.122C118.461 158.966 118.779 158.85 119.127 158.774C119.478 158.695 119.831 158.632 120.186 158.585C120.65 158.526 121.026 158.481 121.314 158.451C121.606 158.418 121.818 158.363 121.951 158.287C122.087 158.211 122.155 158.078 122.155 157.889V157.849C122.155 157.359 122.02 156.978 121.752 156.706C121.487 156.434 121.084 156.298 120.544 156.298C119.984 156.298 119.544 156.421 119.226 156.666C118.908 156.911 118.684 157.173 118.555 157.452L117.441 157.054C117.64 156.59 117.906 156.229 118.237 155.97C118.572 155.708 118.936 155.526 119.331 155.423C119.728 155.317 120.12 155.264 120.504 155.264C120.749 155.264 121.031 155.294 121.349 155.354C121.671 155.41 121.981 155.528 122.279 155.707C122.58 155.886 122.831 156.156 123.03 156.517C123.228 156.878 123.328 157.362 123.328 157.969V163H122.155V161.966H122.095C122.015 162.132 121.883 162.309 121.697 162.498C121.512 162.687 121.265 162.848 120.956 162.98C120.648 163.113 120.272 163.179 119.828 163.179ZM120.007 162.125C120.471 162.125 120.862 162.034 121.18 161.852C121.502 161.669 121.744 161.434 121.906 161.146C122.072 160.857 122.155 160.554 122.155 160.236V159.162C122.105 159.222 121.995 159.276 121.826 159.326C121.661 159.372 121.468 159.414 121.25 159.45C121.034 159.483 120.824 159.513 120.618 159.54C120.416 159.563 120.252 159.583 120.126 159.599C119.821 159.639 119.536 159.704 119.271 159.793C119.009 159.879 118.797 160.01 118.635 160.186C118.476 160.358 118.396 160.594 118.396 160.892C118.396 161.3 118.547 161.608 118.848 161.817C119.153 162.022 119.54 162.125 120.007 162.125ZM128.79 155.364V156.358H124.833V155.364H128.79ZM125.986 153.534H127.16V160.812C127.16 161.144 127.208 161.393 127.304 161.558C127.403 161.721 127.529 161.83 127.682 161.886C127.838 161.939 128.002 161.966 128.174 161.966C128.303 161.966 128.409 161.959 128.492 161.946C128.575 161.929 128.641 161.916 128.691 161.906L128.93 162.96C128.85 162.99 128.739 163.02 128.597 163.05C128.454 163.083 128.273 163.099 128.055 163.099C127.723 163.099 127.398 163.028 127.08 162.886C126.765 162.743 126.503 162.526 126.295 162.234C126.089 161.943 125.986 161.575 125.986 161.131V153.534ZM133.675 163.159C132.939 163.159 132.304 162.997 131.771 162.672C131.241 162.344 130.831 161.886 130.543 161.3C130.258 160.71 130.115 160.024 130.115 159.241C130.115 158.459 130.258 157.77 130.543 157.173C130.831 156.573 131.232 156.106 131.746 155.771C132.263 155.433 132.866 155.264 133.556 155.264C133.953 155.264 134.346 155.33 134.734 155.463C135.122 155.596 135.475 155.811 135.793 156.109C136.111 156.404 136.365 156.795 136.554 157.283C136.742 157.77 136.837 158.37 136.837 159.082V159.58H130.951V158.565H135.644C135.644 158.134 135.558 157.75 135.385 157.412C135.216 157.074 134.974 156.807 134.659 156.612C134.348 156.416 133.98 156.318 133.556 156.318C133.088 156.318 132.684 156.434 132.343 156.666C132.005 156.895 131.744 157.193 131.562 157.561C131.38 157.929 131.289 158.323 131.289 158.744V159.42C131.289 159.997 131.388 160.486 131.587 160.887C131.789 161.285 132.069 161.588 132.427 161.797C132.785 162.002 133.201 162.105 133.675 162.105C133.983 162.105 134.262 162.062 134.51 161.976C134.762 161.886 134.979 161.754 135.161 161.578C135.344 161.399 135.485 161.177 135.584 160.912L136.718 161.23C136.598 161.615 136.398 161.953 136.116 162.244C135.834 162.533 135.486 162.758 135.072 162.92C134.658 163.08 134.192 163.159 133.675 163.159ZM138.622 163V155.364H139.755V156.517H139.835C139.974 156.139 140.226 155.833 140.59 155.597C140.955 155.362 141.366 155.244 141.823 155.244C141.91 155.244 142.017 155.246 142.147 155.249C142.276 155.253 142.374 155.258 142.44 155.264V156.457C142.4 156.447 142.309 156.433 142.166 156.413C142.027 156.389 141.88 156.378 141.724 156.378C141.353 156.378 141.021 156.456 140.73 156.612C140.441 156.764 140.213 156.976 140.044 157.248C139.878 157.516 139.795 157.823 139.795 158.168V163H138.622ZM143.831 163V155.364H145.004V163H143.831ZM144.427 154.091C144.199 154.091 144.001 154.013 143.836 153.857C143.673 153.701 143.592 153.514 143.592 153.295C143.592 153.077 143.673 152.889 143.836 152.734C144.001 152.578 144.199 152.5 144.427 152.5C144.656 152.5 144.852 152.578 145.014 152.734C145.18 152.889 145.263 153.077 145.263 153.295C145.263 153.514 145.18 153.701 145.014 153.857C144.852 154.013 144.656 154.091 144.427 154.091ZM149.4 163.179C148.916 163.179 148.477 163.088 148.083 162.906C147.688 162.72 147.375 162.453 147.143 162.105C146.911 161.754 146.795 161.33 146.795 160.832C146.795 160.395 146.881 160.04 147.054 159.768C147.226 159.493 147.456 159.278 147.745 159.122C148.033 158.966 148.351 158.85 148.699 158.774C149.05 158.695 149.403 158.632 149.758 158.585C150.222 158.526 150.598 158.481 150.887 158.451C151.178 158.418 151.39 158.363 151.523 158.287C151.659 158.211 151.727 158.078 151.727 157.889V157.849C151.727 157.359 151.593 156.978 151.324 156.706C151.059 156.434 150.656 156.298 150.116 156.298C149.556 156.298 149.117 156.421 148.799 156.666C148.48 156.911 148.257 157.173 148.127 157.452L147.014 157.054C147.213 156.59 147.478 156.229 147.809 155.97C148.144 155.708 148.509 155.526 148.903 155.423C149.301 155.317 149.692 155.264 150.076 155.264C150.322 155.264 150.603 155.294 150.921 155.354C151.243 155.41 151.553 155.528 151.851 155.707C152.153 155.886 152.403 156.156 152.602 156.517C152.801 156.878 152.9 157.362 152.9 157.969V163H151.727V161.966H151.667C151.588 162.132 151.455 162.309 151.269 162.498C151.084 162.687 150.837 162.848 150.529 162.98C150.22 163.113 149.844 163.179 149.4 163.179ZM149.579 162.125C150.043 162.125 150.434 162.034 150.752 161.852C151.074 161.669 151.316 161.434 151.478 161.146C151.644 160.857 151.727 160.554 151.727 160.236V159.162C151.677 159.222 151.568 159.276 151.399 159.326C151.233 159.372 151.041 159.414 150.822 159.45C150.607 159.483 150.396 159.513 150.191 159.54C149.988 159.563 149.824 159.583 149.698 159.599C149.393 159.639 149.108 159.704 148.843 159.793C148.581 159.879 148.369 160.01 148.207 160.186C148.048 160.358 147.968 160.594 147.968 160.892C147.968 161.3 148.119 161.608 148.421 161.817C148.726 162.022 149.112 162.125 149.579 162.125ZM156.215 152.818V163H155.042V152.818H156.215ZM163.773 157.074L162.719 157.372C162.653 157.196 162.555 157.026 162.426 156.86C162.3 156.691 162.127 156.552 161.909 156.442C161.69 156.333 161.41 156.278 161.068 156.278C160.601 156.278 160.212 156.386 159.9 156.602C159.592 156.814 159.438 157.084 159.438 157.412C159.438 157.704 159.544 157.934 159.756 158.103C159.968 158.272 160.3 158.413 160.75 158.526L161.884 158.804C162.567 158.97 163.075 159.223 163.41 159.565C163.745 159.903 163.912 160.339 163.912 160.872C163.912 161.31 163.786 161.701 163.534 162.045C163.286 162.39 162.938 162.662 162.49 162.861C162.043 163.06 161.523 163.159 160.929 163.159C160.15 163.159 159.506 162.99 158.995 162.652C158.485 162.314 158.162 161.82 158.026 161.17L159.139 160.892C159.246 161.303 159.446 161.611 159.741 161.817C160.039 162.022 160.429 162.125 160.909 162.125C161.456 162.125 161.89 162.009 162.212 161.777C162.537 161.542 162.699 161.26 162.699 160.932C162.699 160.667 162.606 160.445 162.421 160.266C162.235 160.083 161.95 159.947 161.566 159.858L160.293 159.56C159.594 159.394 159.08 159.137 158.752 158.789C158.427 158.438 158.264 157.999 158.264 157.472C158.264 157.041 158.385 156.66 158.627 156.328C158.873 155.997 159.206 155.737 159.627 155.548C160.051 155.359 160.532 155.264 161.068 155.264C161.824 155.264 162.417 155.43 162.848 155.761C163.282 156.093 163.591 156.53 163.773 157.074ZM172.499 163.159C171.863 163.159 171.301 162.998 170.814 162.677C170.327 162.352 169.946 161.895 169.671 161.305C169.395 160.711 169.258 160.01 169.258 159.202C169.258 158.4 169.395 157.704 169.671 157.114C169.946 156.524 170.328 156.068 170.819 155.746C171.31 155.425 171.876 155.264 172.519 155.264C173.016 155.264 173.409 155.347 173.698 155.513C173.989 155.675 174.211 155.861 174.364 156.07C174.52 156.275 174.64 156.444 174.727 156.577H174.826V152.818H175.999V163H174.866V161.827H174.727C174.64 161.966 174.518 162.142 174.359 162.354C174.2 162.562 173.973 162.75 173.678 162.915C173.383 163.078 172.99 163.159 172.499 163.159ZM172.658 162.105C173.129 162.105 173.527 161.982 173.852 161.737C174.176 161.489 174.423 161.146 174.592 160.708C174.761 160.267 174.846 159.759 174.846 159.182C174.846 158.612 174.763 158.113 174.597 157.685C174.432 157.254 174.186 156.92 173.862 156.681C173.537 156.439 173.136 156.318 172.658 156.318C172.161 156.318 171.747 156.446 171.416 156.701C171.087 156.953 170.841 157.296 170.675 157.73C170.512 158.161 170.431 158.645 170.431 159.182C170.431 159.725 170.514 160.219 170.68 160.663C170.849 161.104 171.097 161.455 171.426 161.717C171.757 161.976 172.168 162.105 172.658 162.105ZM178.311 163V155.364H179.484V163H178.311ZM178.908 154.091C178.679 154.091 178.482 154.013 178.316 153.857C178.154 153.701 178.073 153.514 178.073 153.295C178.073 153.077 178.154 152.889 178.316 152.734C178.482 152.578 178.679 152.5 178.908 152.5C179.136 152.5 179.332 152.578 179.494 152.734C179.66 152.889 179.743 153.077 179.743 153.295C179.743 153.514 179.66 153.701 179.494 153.857C179.332 154.013 179.136 154.091 178.908 154.091ZM187.043 157.074L185.989 157.372C185.922 157.196 185.824 157.026 185.695 156.86C185.569 156.691 185.397 156.552 185.178 156.442C184.959 156.333 184.679 156.278 184.338 156.278C183.871 156.278 183.481 156.386 183.17 156.602C182.861 156.814 182.707 157.084 182.707 157.412C182.707 157.704 182.813 157.934 183.025 158.103C183.238 158.272 183.569 158.413 184.02 158.526L185.153 158.804C185.836 158.97 186.345 159.223 186.68 159.565C187.014 159.903 187.182 160.339 187.182 160.872C187.182 161.31 187.056 161.701 186.804 162.045C186.555 162.39 186.207 162.662 185.76 162.861C185.312 163.06 184.792 163.159 184.199 163.159C183.42 163.159 182.775 162.99 182.265 162.652C181.754 162.314 181.431 161.82 181.295 161.17L182.409 160.892C182.515 161.303 182.716 161.611 183.011 161.817C183.309 162.022 183.698 162.125 184.179 162.125C184.726 162.125 185.16 162.009 185.481 161.777C185.806 161.542 185.969 161.26 185.969 160.932C185.969 160.667 185.876 160.445 185.69 160.266C185.505 160.083 185.22 159.947 184.835 159.858L183.562 159.56C182.863 159.394 182.349 159.137 182.021 158.789C181.696 158.438 181.534 157.999 181.534 157.472C181.534 157.041 181.655 156.66 181.897 156.328C182.142 155.997 182.475 155.737 182.896 155.548C183.32 155.359 183.801 155.264 184.338 155.264C185.094 155.264 185.687 155.43 186.118 155.761C186.552 156.093 186.86 156.53 187.043 157.074ZM192.05 163.159C191.334 163.159 190.718 162.99 190.201 162.652C189.684 162.314 189.286 161.848 189.008 161.255C188.729 160.662 188.59 159.984 188.59 159.222C188.59 158.446 188.732 157.762 189.017 157.168C189.306 156.572 189.707 156.106 190.221 155.771C190.738 155.433 191.341 155.264 192.03 155.264C192.567 155.264 193.051 155.364 193.482 155.562C193.913 155.761 194.266 156.04 194.541 156.398C194.816 156.756 194.987 157.173 195.053 157.651H193.88C193.79 157.303 193.591 156.994 193.283 156.726C192.978 156.454 192.567 156.318 192.05 156.318C191.593 156.318 191.192 156.437 190.847 156.676C190.506 156.911 190.239 157.245 190.047 157.675C189.858 158.103 189.763 158.605 189.763 159.182C189.763 159.772 189.856 160.286 190.042 160.723C190.231 161.161 190.496 161.5 190.837 161.742C191.182 161.984 191.586 162.105 192.05 162.105C192.355 162.105 192.632 162.052 192.88 161.946C193.129 161.84 193.339 161.688 193.512 161.489C193.684 161.29 193.807 161.051 193.88 160.773H195.053C194.987 161.223 194.823 161.629 194.561 161.991C194.302 162.349 193.959 162.634 193.532 162.846C193.107 163.055 192.614 163.159 192.05 163.159ZM199.87 163.159C199.181 163.159 198.576 162.995 198.056 162.667C197.539 162.339 197.134 161.88 196.843 161.29C196.554 160.7 196.41 160.01 196.41 159.222C196.41 158.426 196.554 157.732 196.843 157.138C197.134 156.545 197.539 156.085 198.056 155.756C198.576 155.428 199.181 155.264 199.87 155.264C200.56 155.264 201.163 155.428 201.68 155.756C202.2 156.085 202.605 156.545 202.893 157.138C203.185 157.732 203.331 158.426 203.331 159.222C203.331 160.01 203.185 160.7 202.893 161.29C202.605 161.88 202.2 162.339 201.68 162.667C201.163 162.995 200.56 163.159 199.87 163.159ZM199.87 162.105C200.394 162.105 200.825 161.971 201.163 161.702C201.501 161.434 201.751 161.081 201.914 160.643C202.076 160.206 202.157 159.732 202.157 159.222C202.157 158.711 202.076 158.236 201.914 157.795C201.751 157.354 201.501 156.998 201.163 156.726C200.825 156.454 200.394 156.318 199.87 156.318C199.347 156.318 198.916 156.454 198.578 156.726C198.24 156.998 197.99 157.354 197.827 157.795C197.665 158.236 197.584 158.711 197.584 159.222C197.584 159.732 197.665 160.206 197.827 160.643C197.99 161.081 198.24 161.434 198.578 161.702C198.916 161.971 199.347 162.105 199.87 162.105ZM211.093 155.364L208.269 163H207.076L204.252 155.364H205.524L207.632 161.449H207.712L209.82 155.364H211.093ZM215.57 163.159C214.834 163.159 214.199 162.997 213.665 162.672C213.135 162.344 212.726 161.886 212.437 161.3C212.152 160.71 212.01 160.024 212.01 159.241C212.01 158.459 212.152 157.77 212.437 157.173C212.726 156.573 213.127 156.106 213.641 155.771C214.158 155.433 214.761 155.264 215.45 155.264C215.848 155.264 216.241 155.33 216.628 155.463C217.016 155.596 217.369 155.811 217.687 156.109C218.006 156.404 218.259 156.795 218.448 157.283C218.637 157.77 218.731 158.37 218.731 159.082V159.58H212.845V158.565H217.538C217.538 158.134 217.452 157.75 217.28 157.412C217.111 157.074 216.869 156.807 216.554 156.612C216.242 156.416 215.874 156.318 215.45 156.318C214.983 156.318 214.579 156.434 214.237 156.666C213.899 156.895 213.639 157.193 213.457 157.561C213.274 157.929 213.183 158.323 213.183 158.744V159.42C213.183 159.997 213.283 160.486 213.481 160.887C213.684 161.285 213.964 161.588 214.322 161.797C214.68 162.002 215.096 162.105 215.57 162.105C215.878 162.105 216.156 162.062 216.405 161.976C216.657 161.886 216.874 161.754 217.056 161.578C217.238 161.399 217.379 161.177 217.479 160.912L218.612 161.23C218.493 161.615 218.292 161.953 218.011 162.244C217.729 162.533 217.381 162.758 216.967 162.92C216.552 163.08 216.087 163.159 215.57 163.159ZM220.516 163V155.364H221.65V156.517H221.729C221.869 156.139 222.12 155.833 222.485 155.597C222.85 155.362 223.261 155.244 223.718 155.244C223.804 155.244 223.912 155.246 224.041 155.249C224.17 155.253 224.268 155.258 224.334 155.264V156.457C224.295 156.447 224.204 156.433 224.061 156.413C223.922 156.389 223.774 156.378 223.619 156.378C223.247 156.378 222.916 156.456 222.624 156.612C222.336 156.764 222.107 156.976 221.938 157.248C221.772 157.516 221.69 157.823 221.69 158.168V163H220.516ZM226.713 165.864C226.514 165.864 226.337 165.847 226.181 165.814C226.026 165.784 225.918 165.754 225.858 165.724L226.157 164.69C226.442 164.763 226.693 164.79 226.912 164.77C227.131 164.75 227.325 164.652 227.494 164.477C227.666 164.304 227.824 164.024 227.966 163.636L228.185 163.04L225.361 155.364H226.634L228.742 161.449H228.821L230.929 155.364H232.202L228.96 164.114C228.815 164.508 228.634 164.835 228.419 165.093C228.203 165.355 227.953 165.549 227.668 165.675C227.386 165.801 227.068 165.864 226.713 165.864Z" fill="black" fill-opacity="0.75"/>
<path opacity="0.3" d="M83.266 185.273V194H82.2092V185.273H83.266ZM85.3849 194V185.273H88.4361C89.044 185.273 89.5455 185.378 89.9403 185.588C90.3352 185.795 90.6293 186.075 90.8224 186.428C91.0156 186.777 91.1122 187.165 91.1122 187.591C91.1122 187.966 91.0455 188.276 90.9119 188.52C90.7813 188.764 90.608 188.957 90.392 189.099C90.179 189.241 89.9474 189.347 89.6974 189.415V189.5C89.9645 189.517 90.233 189.611 90.5028 189.781C90.7727 189.952 90.9986 190.196 91.1804 190.514C91.3622 190.832 91.4531 191.222 91.4531 191.682C91.4531 192.119 91.3537 192.513 91.1548 192.862C90.956 193.212 90.642 193.489 90.2131 193.693C89.7841 193.898 89.2259 194 88.5384 194H85.3849ZM86.4418 193.062H88.5384C89.2287 193.062 89.7188 192.929 90.0085 192.662C90.3011 192.392 90.4474 192.065 90.4474 191.682C90.4474 191.386 90.3722 191.114 90.2216 190.864C90.071 190.611 89.8565 190.409 89.5781 190.259C89.2997 190.105 88.9702 190.028 88.5895 190.028H86.4418V193.062ZM86.4418 189.108H88.402C88.7202 189.108 89.0071 189.045 89.2628 188.92C89.5213 188.795 89.7259 188.619 89.8764 188.392C90.0298 188.165 90.1065 187.898 90.1065 187.591C90.1065 187.207 89.973 186.882 89.706 186.615C89.4389 186.345 89.0156 186.21 88.4361 186.21H86.4418V189.108ZM93.1896 185.273H94.451L97.4169 192.517H97.5192L100.485 185.273H101.746V194H100.758V187.369H100.673L97.9453 194H96.9908L94.2635 187.369H94.1783V194H93.1896V185.273ZM107.24 194V185.273H110.189C110.871 185.273 111.431 185.389 111.868 185.622C112.306 185.852 112.63 186.169 112.84 186.572C113.05 186.976 113.155 187.435 113.155 187.949C113.155 188.463 113.05 188.919 112.84 189.317C112.63 189.714 112.307 190.027 111.873 190.254C111.438 190.479 110.882 190.591 110.206 190.591H107.82V189.636H110.172C110.638 189.636 111.013 189.568 111.297 189.432C111.584 189.295 111.792 189.102 111.919 188.852C112.05 188.599 112.115 188.298 112.115 187.949C112.115 187.599 112.05 187.294 111.919 187.033C111.789 186.771 111.58 186.57 111.293 186.428C111.006 186.283 110.627 186.21 110.155 186.21H108.297V194H107.24ZM111.348 190.08L113.496 194H112.269L110.155 190.08H111.348ZM117.454 194.136C116.823 194.136 116.279 193.997 115.822 193.719C115.367 193.438 115.016 193.045 114.769 192.543C114.525 192.037 114.403 191.449 114.403 190.778C114.403 190.108 114.525 189.517 114.769 189.006C115.016 188.491 115.36 188.091 115.8 187.804C116.244 187.514 116.761 187.369 117.352 187.369C117.692 187.369 118.029 187.426 118.362 187.54C118.694 187.653 118.996 187.838 119.269 188.094C119.542 188.347 119.759 188.682 119.921 189.099C120.083 189.517 120.164 190.031 120.164 190.642V191.068H115.119V190.199H119.141C119.141 189.83 119.067 189.5 118.92 189.21C118.775 188.92 118.567 188.692 118.298 188.524C118.031 188.357 117.715 188.273 117.352 188.273C116.951 188.273 116.604 188.372 116.312 188.571C116.022 188.767 115.799 189.023 115.643 189.338C115.487 189.653 115.408 189.991 115.408 190.352V190.932C115.408 191.426 115.494 191.845 115.664 192.189C115.837 192.53 116.077 192.79 116.384 192.969C116.691 193.145 117.048 193.233 117.454 193.233C117.718 193.233 117.957 193.196 118.17 193.122C118.386 193.045 118.572 192.932 118.728 192.781C118.884 192.628 119.005 192.437 119.09 192.21L120.062 192.483C119.96 192.812 119.788 193.102 119.546 193.352C119.305 193.599 119.006 193.793 118.651 193.932C118.296 194.068 117.897 194.136 117.454 194.136ZM126.33 188.92L125.427 189.176C125.37 189.026 125.286 188.879 125.175 188.737C125.067 188.592 124.92 188.473 124.732 188.379C124.545 188.286 124.305 188.239 124.012 188.239C123.612 188.239 123.278 188.331 123.011 188.516C122.746 188.697 122.614 188.929 122.614 189.21C122.614 189.46 122.705 189.658 122.887 189.803C123.069 189.947 123.353 190.068 123.739 190.165L124.711 190.403C125.296 190.545 125.732 190.763 126.019 191.055C126.306 191.345 126.45 191.719 126.45 192.176C126.45 192.551 126.342 192.886 126.126 193.182C125.913 193.477 125.614 193.71 125.231 193.881C124.847 194.051 124.401 194.136 123.893 194.136C123.225 194.136 122.673 193.991 122.235 193.702C121.798 193.412 121.521 192.989 121.404 192.432L122.359 192.193C122.45 192.545 122.621 192.81 122.874 192.986C123.13 193.162 123.464 193.25 123.876 193.25C124.344 193.25 124.717 193.151 124.992 192.952C125.271 192.75 125.41 192.509 125.41 192.227C125.41 192 125.33 191.81 125.171 191.656C125.012 191.5 124.768 191.384 124.438 191.307L123.347 191.051C122.748 190.909 122.308 190.689 122.026 190.391C121.748 190.089 121.609 189.713 121.609 189.261C121.609 188.892 121.712 188.565 121.92 188.281C122.13 187.997 122.415 187.774 122.776 187.612C123.14 187.45 123.552 187.369 124.012 187.369C124.66 187.369 125.168 187.511 125.538 187.795C125.91 188.08 126.174 188.455 126.33 188.92ZM130.708 194.136C130.077 194.136 129.533 193.997 129.076 193.719C128.621 193.438 128.27 193.045 128.023 192.543C127.779 192.037 127.657 191.449 127.657 190.778C127.657 190.108 127.779 189.517 128.023 189.006C128.27 188.491 128.614 188.091 129.054 187.804C129.498 187.514 130.015 187.369 130.605 187.369C130.946 187.369 131.283 187.426 131.615 187.54C131.948 187.653 132.25 187.838 132.523 188.094C132.796 188.347 133.013 188.682 133.175 189.099C133.337 189.517 133.418 190.031 133.418 190.642V191.068H128.373V190.199H132.395C132.395 189.83 132.321 189.5 132.174 189.21C132.029 188.92 131.821 188.692 131.551 188.524C131.284 188.357 130.969 188.273 130.605 188.273C130.205 188.273 129.858 188.372 129.566 188.571C129.276 188.767 129.053 189.023 128.897 189.338C128.74 189.653 128.662 189.991 128.662 190.352V190.932C128.662 191.426 128.748 191.845 128.918 192.189C129.091 192.53 129.331 192.79 129.638 192.969C129.945 193.145 130.301 193.233 130.708 193.233C130.972 193.233 131.211 193.196 131.424 193.122C131.64 193.045 131.826 192.932 131.982 192.781C132.138 192.628 132.259 192.437 132.344 192.21L133.316 192.483C133.213 192.812 133.042 193.102 132.8 193.352C132.559 193.599 132.26 193.793 131.905 193.932C131.55 194.068 131.151 194.136 130.708 194.136ZM136.874 194.153C136.459 194.153 136.083 194.075 135.745 193.919C135.407 193.76 135.138 193.531 134.939 193.233C134.74 192.932 134.641 192.568 134.641 192.142C134.641 191.767 134.715 191.463 134.863 191.23C135.01 190.994 135.208 190.81 135.455 190.676C135.702 190.543 135.975 190.443 136.273 190.378C136.574 190.31 136.877 190.256 137.181 190.216C137.578 190.165 137.901 190.126 138.148 190.101C138.398 190.072 138.58 190.026 138.694 189.96C138.81 189.895 138.868 189.781 138.868 189.619V189.585C138.868 189.165 138.753 188.838 138.523 188.605C138.296 188.372 137.951 188.256 137.488 188.256C137.007 188.256 136.631 188.361 136.358 188.571C136.086 188.781 135.894 189.006 135.783 189.244L134.828 188.903C134.999 188.506 135.226 188.196 135.51 187.974C135.797 187.75 136.11 187.594 136.448 187.506C136.789 187.415 137.124 187.369 137.453 187.369C137.664 187.369 137.905 187.395 138.178 187.446C138.453 187.494 138.719 187.595 138.975 187.749C139.233 187.902 139.448 188.134 139.618 188.443C139.789 188.753 139.874 189.168 139.874 189.688V194H138.868V193.114H138.817C138.749 193.256 138.635 193.408 138.476 193.57C138.317 193.732 138.105 193.869 137.841 193.983C137.577 194.097 137.255 194.153 136.874 194.153ZM137.027 193.25C137.425 193.25 137.76 193.172 138.033 193.016C138.309 192.859 138.516 192.658 138.655 192.411C138.797 192.163 138.868 191.903 138.868 191.631V190.71C138.826 190.761 138.732 190.808 138.587 190.851C138.445 190.891 138.28 190.926 138.093 190.957C137.908 190.986 137.728 191.011 137.551 191.034C137.378 191.054 137.238 191.071 137.13 191.085C136.868 191.119 136.624 191.175 136.397 191.251C136.172 191.325 135.99 191.437 135.851 191.588C135.715 191.736 135.647 191.937 135.647 192.193C135.647 192.543 135.776 192.807 136.034 192.986C136.296 193.162 136.627 193.25 137.027 193.25ZM141.71 194V187.455H142.681V188.443H142.749C142.869 188.119 143.085 187.857 143.397 187.655C143.71 187.453 144.062 187.352 144.454 187.352C144.528 187.352 144.62 187.354 144.731 187.357C144.842 187.359 144.925 187.364 144.982 187.369V188.392C144.948 188.384 144.87 188.371 144.748 188.354C144.629 188.334 144.502 188.324 144.369 188.324C144.05 188.324 143.766 188.391 143.516 188.524C143.269 188.655 143.073 188.837 142.928 189.07C142.786 189.3 142.715 189.562 142.715 189.858V194H141.71ZM148.634 194.136C148.021 194.136 147.492 193.991 147.049 193.702C146.606 193.412 146.265 193.013 146.026 192.504C145.788 191.996 145.668 191.415 145.668 190.761C145.668 190.097 145.79 189.51 146.035 189.001C146.282 188.49 146.626 188.091 147.066 187.804C147.509 187.514 148.026 187.369 148.617 187.369C149.077 187.369 149.492 187.455 149.862 187.625C150.231 187.795 150.533 188.034 150.769 188.341C151.005 188.648 151.151 189.006 151.208 189.415H150.202C150.126 189.116 149.955 188.852 149.691 188.622C149.43 188.389 149.077 188.273 148.634 188.273C148.242 188.273 147.898 188.375 147.603 188.58C147.31 188.781 147.082 189.067 146.917 189.436C146.755 189.803 146.674 190.233 146.674 190.727C146.674 191.233 146.754 191.673 146.913 192.048C147.075 192.423 147.302 192.714 147.594 192.922C147.89 193.129 148.237 193.233 148.634 193.233C148.896 193.233 149.133 193.188 149.346 193.097C149.559 193.006 149.739 192.875 149.887 192.705C150.035 192.534 150.14 192.33 150.202 192.091H151.208C151.151 192.477 151.011 192.825 150.786 193.135C150.565 193.442 150.271 193.686 149.904 193.868C149.54 194.047 149.117 194.136 148.634 194.136ZM153.684 190.062V194H152.678V185.273H153.684V188.477H153.769C153.923 188.139 154.153 187.871 154.46 187.672C154.769 187.47 155.181 187.369 155.695 187.369C156.141 187.369 156.532 187.459 156.867 187.638C157.202 187.814 157.462 188.085 157.647 188.452C157.835 188.815 157.928 189.278 157.928 189.841V194H156.923V189.909C156.923 189.389 156.788 188.987 156.518 188.703C156.251 188.416 155.88 188.273 155.406 188.273C155.076 188.273 154.781 188.342 154.519 188.482C154.261 188.621 154.056 188.824 153.906 189.091C153.758 189.358 153.684 189.682 153.684 190.062Z" fill="black" fill-opacity="0.75"/>
<path d="M78.294 104.364C78.294 106.871 77.8243 109.019 76.8849 110.807C75.9531 112.587 74.6804 113.951 73.0668 114.898C71.4607 115.845 69.6387 116.318 67.6009 116.318C65.563 116.318 63.7372 115.845 62.1236 114.898C60.5175 113.943 59.2448 112.576 58.3054 110.795C57.3736 109.008 56.9077 106.864 56.9077 104.364C56.9077 101.856 57.3736 99.7121 58.3054 97.9318C59.2448 96.1439 60.5175 94.7765 62.1236 93.8295C63.7372 92.8826 65.563 92.4091 67.6009 92.4091C69.6387 92.4091 71.4607 92.8826 73.0668 93.8295C74.6804 94.7765 75.9531 96.1439 76.8849 97.9318C77.8243 99.7121 78.294 101.856 78.294 104.364ZM74.0554 104.364C74.0554 102.598 73.7789 101.11 73.2259 99.8977C72.6804 98.678 71.9228 97.7576 70.9531 97.1364C69.9834 96.5076 68.866 96.1932 67.6009 96.1932C66.3357 96.1932 65.2183 96.5076 64.2486 97.1364C63.2789 97.7576 62.5175 98.678 61.9645 99.8977C61.419 101.11 61.1463 102.598 61.1463 104.364C61.1463 106.129 61.419 107.621 61.9645 108.841C62.5175 110.053 63.2789 110.973 64.2486 111.602C65.2183 112.223 66.3357 112.534 67.6009 112.534C68.866 112.534 69.9834 112.223 70.9531 111.602C71.9228 110.973 72.6804 110.053 73.2259 108.841C73.7789 107.621 74.0554 106.129 74.0554 104.364ZM82.098 122.545V98.5455H86.1435V101.432H86.3821C86.5942 101.008 86.8935 100.557 87.2798 100.08C87.6662 99.5947 88.1889 99.1818 88.848 98.8409C89.5071 98.4924 90.348 98.3182 91.3707 98.3182C92.7192 98.3182 93.9351 98.6629 95.0185 99.3523C96.1094 100.034 96.973 101.045 97.6094 102.386C98.2533 103.72 98.5753 105.356 98.5753 107.295C98.5753 109.212 98.2609 110.841 97.6321 112.182C97.0033 113.523 96.1473 114.545 95.0639 115.25C93.9806 115.955 92.7533 116.307 91.3821 116.307C90.3821 116.307 89.5526 116.14 88.8935 115.807C88.2344 115.473 87.7041 115.072 87.3026 114.602C86.9086 114.125 86.6018 113.674 86.3821 113.25H86.2116V122.545H82.098ZM86.1321 107.273C86.1321 108.402 86.2912 109.39 86.6094 110.239C86.9351 111.087 87.401 111.75 88.0071 112.227C88.6207 112.697 89.3632 112.932 90.2344 112.932C91.1435 112.932 91.9048 112.689 92.5185 112.205C93.1321 111.712 93.5942 111.042 93.9048 110.193C94.223 109.337 94.3821 108.364 94.3821 107.273C94.3821 106.189 94.2268 105.227 93.9162 104.386C93.6056 103.545 93.1435 102.886 92.5298 102.409C91.9162 101.932 91.151 101.693 90.2344 101.693C89.3556 101.693 88.6094 101.924 87.9957 102.386C87.3821 102.848 86.9162 103.496 86.598 104.33C86.2874 105.163 86.1321 106.144 86.1321 107.273ZM109.825 116.341C108.075 116.341 106.564 115.977 105.291 115.25C104.026 114.515 103.053 113.477 102.371 112.136C101.689 110.788 101.348 109.201 101.348 107.375C101.348 105.58 101.689 104.004 102.371 102.648C103.06 101.284 104.022 100.223 105.257 99.4659C106.492 98.7008 107.943 98.3182 109.609 98.3182C110.685 98.3182 111.7 98.4924 112.655 98.8409C113.617 99.1818 114.465 99.7121 115.2 100.432C115.943 101.152 116.526 102.068 116.95 103.182C117.375 104.288 117.587 105.606 117.587 107.136V108.398H103.28V105.625H113.643C113.636 104.837 113.465 104.136 113.132 103.523C112.799 102.902 112.333 102.413 111.734 102.057C111.143 101.701 110.454 101.523 109.666 101.523C108.825 101.523 108.087 101.727 107.45 102.136C106.814 102.538 106.318 103.068 105.962 103.727C105.613 104.379 105.435 105.095 105.428 105.875V108.295C105.428 109.311 105.613 110.182 105.984 110.909C106.356 111.629 106.875 112.182 107.541 112.568C108.208 112.947 108.988 113.136 109.882 113.136C110.481 113.136 111.022 113.053 111.507 112.886C111.992 112.712 112.412 112.458 112.768 112.125C113.125 111.792 113.393 111.379 113.575 110.886L117.416 111.318C117.174 112.333 116.712 113.22 116.03 113.977C115.356 114.727 114.492 115.311 113.439 115.727C112.386 116.136 111.181 116.341 109.825 116.341ZM125.18 105.773V116H121.067V98.5455H124.999V101.511H125.203C125.605 100.534 126.245 99.7576 127.124 99.1818C128.01 98.6061 129.105 98.3182 130.408 98.3182C131.612 98.3182 132.661 98.5758 133.555 99.0909C134.457 99.6061 135.154 100.352 135.646 101.33C136.146 102.307 136.393 103.492 136.385 104.886V116H132.271V105.523C132.271 104.356 131.968 103.443 131.362 102.784C130.764 102.125 129.934 101.795 128.874 101.795C128.154 101.795 127.514 101.955 126.953 102.273C126.4 102.583 125.964 103.034 125.646 103.625C125.336 104.216 125.18 104.932 125.18 105.773ZM143.737 116H139.237L147.43 92.7273H152.635L160.839 116H156.339L150.124 97.5H149.942L143.737 116ZM143.885 106.875H156.158V110.261H143.885V106.875ZM171.791 116H163.905V92.7273H171.95C174.261 92.7273 176.246 93.1932 177.905 94.125C179.571 95.0492 180.852 96.3788 181.746 98.1136C182.64 99.8485 183.087 101.924 183.087 104.341C183.087 106.765 182.636 108.848 181.734 110.591C180.84 112.333 179.549 113.67 177.859 114.602C176.178 115.534 174.155 116 171.791 116ZM168.121 112.352H171.587C173.208 112.352 174.56 112.057 175.643 111.466C176.727 110.867 177.541 109.977 178.087 108.795C178.632 107.606 178.905 106.121 178.905 104.341C178.905 102.561 178.632 101.083 178.087 99.9091C177.541 98.7273 176.734 97.8447 175.666 97.2614C174.606 96.6705 173.287 96.375 171.712 96.375H168.121V112.352Z" fill="black" fill-opacity="0.75"/>
<defs>
<clipPath id="clip0_904_14166">
<rect width="58" height="58" fill="white" transform="translate(91 4)"/>
</clipPath>
</defs>
</svg>
