<?xml version="1.0" encoding="UTF-8"?>
<svg xmlns="http://www.w3.org/2000/svg" version="1.1" viewBox="0 0 1400 1240">
  <!-- Generator: Adobe Illustrator 29.1.0, SVG Export Plug-In . SVG Version: 2.1.0 Build 142)  -->
  <defs>
    <style>
      .st0 {
        fill: #3f3f3f;
      }

      .st1 {
        fill: #6c6c6c;
      }

      .st2 {
        fill: #939393;
      }

      .st3 {
        fill: #5f5f5f;
      }

      .st4 {
        fill: #727272;
      }

      .st5 {
        fill: #b8b8b8;
      }

      .st6 {
        fill: #e1e1e1;
      }

      .st7 {
        fill: #555;
      }
    </style>
  </defs>
  <g id="arrows_outline">
    <g>
      <path d="M912.93,665.84c11.13,12.71,21.25,26.32,30.17,40.66,1.2.03,2.39.05,3.58.06-9.36-15.04-20.03-29.25-31.86-42.4-20.24-22.53-43.8-42.09-69.8-57.57-25.99-15.48-54.25-27.03-83.57-34.17,29.2,7.62,57.21,19.61,82.81,35.43,25.67,15.72,48.86,35.41,68.67,57.99Z"/>
      <path d="M964.62,739.86c-2.69-5.86-5.59-11.63-8.66-17.31-1.19.02-2.37.03-3.56.04,3.29,6.1,6.37,12.32,9.21,18.64,12.3,27.38,20.43,56.57,24.15,86.32,3.64,29.75,2.97,60.03-2.16,89.55-5.13,29.52-14.88,58.19-28.44,84.88-13.59,26.69-31.33,51.23-52.15,72.75-20,20.66-42.99,38.42-68,52.65l-.86,2.71,3.01.72c25.35-14.28,48.71-32.13,69.07-52.95,21.14-21.83,39.15-46.73,52.97-73.82,13.84-27.07,23.51-56.26,28.64-86.21,5.09-29.97,5.67-60.65,1.86-90.79-3.99-30.11-12.45-59.6-25.09-87.19Z"/>
    </g>
    <g>
      <path d="M736.75,624.03c46.57,46.83,109,77.31,174.41,85.7,32.69,4.22,66.08,3.18,98.4-3.38,32.33-6.52,63.53-18.5,92.03-35.14,28.56-16.54,54.36-37.86,75.98-62.85,21.65-24.96,39.05-53.58,51.51-84.22,24.99-61.28,29.19-130.97,11.23-195,9.39,31.87,13.45,65.34,11.95,98.6-1.52,33.27-8.62,66.29-20.84,97.33-12.18,31.06-29.65,60.05-51.34,85.44-21.68,25.41-47.65,47.18-76.47,64.13-28.81,16.96-60.41,29.21-93.19,35.93-32.77,6.73-66.67,8.02-99.85,3.66-33.18-4.32-65.65-14.12-95.67-28.91-30-14.83-57.51-34.66-81.01-58.46l2.85-2.83Z"/>
      <polygon points="733.37 646.35 737.37 646.17 736.48 626.47 756.19 627.01 756.3 623.01 732.29 622.35 733.37 646.35"/>
    </g>
    <g>
      <path d="M684.2,270.75c-.54-.99-1.09-1.98-1.64-2.97-5.48,10.24-10.38,20.79-14.62,31.6-12.22,31.01-19.33,64.02-20.87,97.26-1.51,33.25,2.52,66.7,11.89,98.55-17.9-64-13.67-133.64,11.32-194.88,4.11-10.1,8.76-19.97,13.92-29.57Z"/>
      <path d="M1162.67,197.88l-.14-3.09c-22.91-22.56-49.44-41.43-78.29-55.66-30.01-14.76-62.46-24.54-95.63-28.83-33.16-4.34-67.05-3.03-99.79,3.7-32.75,6.72-64.34,18.97-93.12,35.93-14.39,8.49-28.09,18.14-40.89,28.87-12.79,10.74-24.69,22.53-35.53,35.22-10.13,11.86-19.32,24.5-27.5,37.77.58.96,1.15,1.93,1.72,2.9,8.39-13.56,17.84-26.47,28.29-38.51,10.81-12.48,22.65-24.05,35.36-34.57,12.71-10.52,26.31-19.95,40.57-28.24,28.48-16.63,59.66-28.62,91.97-35.14,32.3-6.57,65.67-7.63,98.34-3.42,64.2,8.21,125.52,37.68,171.82,83.02l2.83.08Z"/>
    </g>
    <g>
      <path d="M716,490.78c17.27-63.75,12.45-133.05-12.99-193.9-12.69-30.42-30.28-58.82-52.13-83.53-21.81-24.74-47.79-45.77-76.45-62.13-28.6-16.47-59.97-28.15-92.41-34.37-32.44-6.27-65.93-7.03-98.69-2.5-65.57,9-128.02,40.21-174.49,87.77,22.9-24.07,49.86-44.31,79.42-59.65,29.57-15.32,61.72-25.68,94.71-30.61,32.99-4.98,66.83-4.34,99.67,1.74,32.85,6.07,64.68,17.68,93.77,34.16,29.09,16.47,55.5,37.71,77.71,62.74,22.21,25.01,40.28,53.72,53.09,84.64,12.85,30.9,20.6,63.91,22.8,97.3,2.16,33.4-1.27,67.14-10.12,99.39l-3.88-1.05Z"/>
      <polygon points="737.02 482.55 734.86 479.17 718.25 489.8 708.86 472.45 705.34 474.36 716.78 495.49 737.02 482.55"/>
    </g>
    <g>
      <path d="M417.76,712.93c-15.94-.49-31.84-2.22-47.49-5.24-16.21-3.12-32.15-7.59-47.62-13.34-15.47-5.75-30.44-12.81-44.74-21.02-28.64-16.35-54.61-37.36-76.42-62.08-21.84-24.69-39.44-53.06-52.14-83.46-24.99-59.7-30.12-127.54-14.02-190.31l-1.35-2.49-2.61,1.67c-8.08,31.12-11.16,63.54-9.06,95.64,2.22,33.37,9.98,66.36,22.84,97.23,12.82,30.89,30.9,59.58,53.1,84.57,22.2,25,48.6,46.23,77.67,62.68,14.55,8.21,29.75,15.26,45.45,20.97,15.69,5.71,31.86,10.12,48.27,13.16,15.33,2.84,30.88,4.48,46.46,4.93.54-.98,1.09-1.96,1.65-2.94Z"/>
      <path d="M468.9,710.2c-10.8,1.49-21.68,2.4-32.57,2.73-.59.97-1.17,1.94-1.75,2.91,11.61-.38,23.2-1.41,34.68-3.14,32.97-4.92,65.1-15.27,94.67-30.56,29.55-15.32,56.5-35.53,79.4-59.57-46.48,47.5-108.9,78.66-174.43,87.64Z"/>
    </g>
    <g>
      <path d="M610.98,575.37c-29.29,7.88-57.35,20.22-82.94,36.46-25.62,16.18-48.83,36.2-68.46,59.29-19.62,23.1-35.86,49.07-47.78,76.95-5.97,13.93-10.89,28.31-14.7,42.99-3.83,14.67-6.4,29.67-7.92,44.75-.49,3.76-.67,7.55-.94,11.34l-.38,5.68-.14,5.69c-.09,3.79-.23,7.58-.12,11.38l.08,5.69c.02,1.9.17,3.79.25,5.68.72,15.16,2.58,30.26,5.57,45.15,2.99,14.88,7.12,29.54,12.33,43.81,5.23,14.27,11.56,28.12,18.87,41.45,29.19,53.38,74.97,97.57,129.51,125.1-27.47-13.34-52.93-30.87-75.27-51.79-22.33-20.94-41.36-45.4-56.44-72.08-15.13-26.67-25.97-55.78-32.24-85.83-3.14-15.03-5.13-30.29-5.98-45.63-.09-1.92-.26-3.83-.29-5.75l-.13-5.76c-.15-3.84-.03-7.68.03-11.52l.1-5.76.34-5.75c.24-3.83.4-7.67.86-11.49,5.69-61.25,30.98-120.43,70.91-167.24,19.94-23.43,43.51-43.74,69.52-60.15,26.05-16.36,54.58-28.72,84.31-36.55l1.03,3.89Z"/>
      <polygon points="593.34 561.29 591.49 564.84 609.01 573.92 598.68 590.72 602.09 592.81 614.67 572.35 593.34 561.29"/>
    </g>
  </g>
  <g id="text_arrows_outline">
    <g>
      <path d="M326.99,883.47c-.08-1.74.16-3.23.73-4.48s1.37-2.33,2.4-3.25l2.28,2.21c-.85.77-1.49,1.61-1.9,2.51-.41.9-.59,1.92-.53,3.04.06,1.32.41,2.31,1.04,2.95s1.44.94,2.45.89c.81-.04,1.44-.31,1.89-.81.45-.5.77-1.35.94-2.57l.24-1.85c.28-2.03.87-3.58,1.76-4.63s2.18-1.62,3.84-1.7c.91-.04,1.74.09,2.5.4s1.4.76,1.94,1.36.96,1.33,1.28,2.21c.32.88.51,1.87.56,2.97.08,1.56-.13,2.93-.62,4.1-.49,1.17-1.23,2.19-2.21,3.05l-2.19-2.24c.67-.57,1.19-1.25,1.56-2.04.38-.79.54-1.76.48-2.91-.06-1.18-.34-2.09-.85-2.72-.51-.63-1.21-.92-2.12-.88-.87.04-1.5.34-1.9.9-.4.55-.68,1.4-.84,2.54l-.3,1.86c-.29,2.09-.89,3.64-1.79,4.65-.9,1-2.18,1.55-3.84,1.63-.97.05-1.86-.08-2.66-.38-.81-.3-1.51-.75-2.1-1.37-.59-.62-1.07-1.38-1.42-2.29s-.56-1.96-.61-3.15Z"/>
      <path d="M346.6,902.46l-17.65,1.79-.34-3.34,17.65-1.79-.62-6.14,2.95-.3,1.59,15.62-2.95.3-.62-6.14Z"/>
      <path d="M330.83,919.13l-.53-3.31,20.45-3.26,1.41,8.82c.29,1.84-.03,3.37-.96,4.6-.94,1.23-2.35,2-4.25,2.3-1.47.23-2.73.09-3.81-.43-1.07-.52-1.91-1.4-2.51-2.65l-7.91,5.8-.59-3.69,7.61-5.42-.65-4.07-8.26,1.32ZM342.71,922.64c.13.84.46,1.46.97,1.86.51.4,1.18.53,1.99.4l1.4-.22c.82-.13,1.41-.46,1.77-1,.36-.54.48-1.23.34-2.07l-.84-5.27-6.48,1.03.84,5.27Z"/>
      <path d="M354.74,935.4l-12.48,2.77c-1.72.38-2.95,1-3.67,1.85s-.91,2.07-.56,3.65,1.04,2.61,2.05,3.07,2.39.5,4.11.12l12.48-2.77.71,3.22-11.93,2.65c-1.49.33-2.8.48-3.94.45-1.14-.03-2.13-.27-2.97-.71-.84-.44-1.54-1.1-2.1-1.98-.56-.88-.99-2.01-1.3-3.4-.31-1.39-.4-2.6-.26-3.64.14-1.03.49-1.93,1.06-2.68.57-.76,1.37-1.39,2.39-1.9,1.02-.51,2.27-.93,3.76-1.26l11.93-2.65.71,3.21Z"/>
      <path d="M340.79,966.39c-.75-2.61-.46-4.9.88-6.89,1.33-1.99,3.67-3.46,7.02-4.42,1.67-.48,3.2-.71,4.58-.7,1.38.01,2.62.26,3.7.73,1.08.47,1.99,1.16,2.74,2.07.74.91,1.3,2.01,1.67,3.3.5,1.73.54,3.29.12,4.67s-1.27,2.62-2.56,3.71l-2.26-2.28c.85-.61,1.46-1.36,1.81-2.23.36-.87.37-1.89.04-3.05-.44-1.54-1.31-2.6-2.61-3.17-1.3-.57-2.88-.59-4.73-.06l-3.04.87c-1.85.53-3.18,1.38-3.98,2.56-.8,1.18-.98,2.53-.53,4.07.34,1.2.93,2.08,1.77,2.66.83.57,1.79.9,2.86.99l-.82,3.04c-1.63-.25-3.03-.86-4.18-1.83-1.15-.97-1.98-2.31-2.47-4.04Z"/>
      <path d="M364.28,980.35l-16.75,5.85-1.1-3.17,16.75-5.84-2.03-5.83,2.8-.98,5.17,14.82-2.8.98-2.03-5.83Z"/>
      <path d="M371.87,992.13l-11.8,4.91c-1.63.68-2.73,1.5-3.29,2.46-.56.96-.54,2.19.09,3.69.62,1.5,1.47,2.39,2.56,2.67,1.08.28,2.44.08,4.06-.6l11.8-4.91,1.27,3.04-11.29,4.7c-1.41.58-2.67.96-3.8,1.13-1.13.17-2.15.11-3.05-.18-.9-.29-1.71-.82-2.41-1.58-.71-.77-1.33-1.81-1.88-3.12-.55-1.31-.84-2.49-.89-3.53s.14-1.98.58-2.83c.43-.84,1.1-1.61,2.02-2.29.92-.68,2.08-1.31,3.48-1.9l11.29-4.7,1.26,3.04Z"/>
      <path d="M361.91,1020.95l-1.48-3.01,18.6-9.12,3.93,8.02c.82,1.67.96,3.23.43,4.68s-1.66,2.6-3.38,3.44c-1.33.65-2.59.89-3.77.71s-2.24-.78-3.18-1.8l-5.86,7.86-1.65-3.36,5.68-7.41-1.82-3.7-7.51,3.68ZM374.3,1020.82c.37.76.86,1.26,1.47,1.49.61.23,1.28.16,2.02-.2l1.27-.62c.74-.36,1.21-.86,1.4-1.48.19-.62.1-1.31-.28-2.08l-2.35-4.79-5.89,2.89,2.35,4.79Z"/>
      <path d="M370.17,1037.26l18.04-10.17,6.51,11.55-2.58,1.46-4.87-8.63-5.01,2.83,4.42,7.83-2.58,1.46-4.42-7.83-5.27,2.97,4.87,8.63-2.58,1.46-6.51-11.55Z"/>
      <path d="M384.75,1061.82l17.18-11.57,7.41,11-2.46,1.66-5.53-8.22-4.77,3.21,5.02,7.46-2.46,1.66-5.02-7.46-5.02,3.38,5.53,8.22-2.46,1.66-7.41-11Z"/>
      <path d="M395.95,1078.07l16.56-12.43,2.01,2.68-14.19,10.65,5.06,6.74-2.37,1.78-7.07-9.42Z"/>
      <path d="M423.85,1080.35l-9.8,8.2c-1.35,1.13-2.16,2.24-2.41,3.33-.25,1.09.14,2.25,1.18,3.5,1.04,1.24,2.12,1.84,3.23,1.78,1.12-.06,2.35-.65,3.7-1.78l9.8-8.2,2.11,2.53-9.38,7.84c-1.17.98-2.27,1.71-3.29,2.21-1.03.5-2.02.74-2.96.74-.95,0-1.87-.27-2.77-.79-.9-.52-1.81-1.33-2.72-2.42s-1.55-2.13-1.9-3.11c-.35-.98-.45-1.94-.29-2.87.16-.93.58-1.86,1.25-2.79.67-.92,1.59-1.87,2.76-2.85l9.38-7.84,2.11,2.53Z"/>
      <path d="M425.68,1114.26c-1.86-1.97-2.65-4.14-2.38-6.52s1.67-4.76,4.21-7.15c1.27-1.19,2.52-2.1,3.75-2.72,1.24-.62,2.44-.97,3.62-1.05,1.18-.08,2.31.12,3.38.58,1.08.47,2.08,1.19,3,2.17,1.23,1.31,1.99,2.68,2.25,4.1.27,1.42.08,2.91-.57,4.47l-3.06-.99c.48-.94.67-1.88.59-2.82-.08-.94-.54-1.85-1.37-2.73-1.1-1.17-2.36-1.71-3.78-1.62s-2.83.79-4.23,2.11l-2.3,2.17c-1.4,1.32-2.19,2.69-2.36,4.1-.17,1.41.29,2.7,1.39,3.86.86.91,1.78,1.42,2.79,1.55,1,.13,2-.02,2.99-.44l.67,3.08c-1.57.53-3.08.62-4.55.3s-2.82-1.15-4.05-2.46Z"/>
      <path d="M434.49,1122.78l1.89-1.97,2.03,1.95,10.57-10.99-2.03-1.95,1.89-1.97,6.5,6.25-1.89,1.97-2.05-1.97-10.57,10.99,2.05,1.97-1.89,1.97-6.5-6.25Z"/>
      <path d="M459.19,1117.72l5.53,4.81c1,.87,1.76,1.82,2.29,2.86.53,1.04.8,2.13.81,3.28s-.25,2.35-.79,3.6c-.54,1.25-1.37,2.53-2.5,3.83s-2.27,2.3-3.44,3.01c-1.16.71-2.31,1.13-3.45,1.28-1.14.15-2.26.04-3.36-.34-1.1-.38-2.15-1-3.15-1.87l-5.53-4.81,13.58-15.64ZM453.09,1135.92c1.17,1.01,2.42,1.46,3.78,1.35,1.35-.11,2.64-.87,3.88-2.29l2.18-2.51c1.23-1.42,1.81-2.81,1.73-4.16s-.7-2.54-1.87-3.55l-3-2.61-9.69,11.16,3,2.61Z"/>
      <path d="M472.47,1155.39l1.94-5.58-6.14-4.72-4.85,3.34-2.7-2.08,18.23-12.11,3.34,2.57-7.03,20.72-2.77-2.13ZM478.72,1137.97l-.12-.09-7.95,5.42,4.84,3.73,3.22-9.05Z"/>
      <path d="M494.45,1149.24l-10.08,14.6-2.76-1.91,10.08-14.6-5.08-3.51,1.69-2.44,12.91,8.92-1.69,2.44-5.08-3.51Z"/>
      <path d="M493.04,1169.62l1.45-2.32,2.39,1.49,8.08-12.93-2.39-1.49,1.45-2.31,7.65,4.78-1.45,2.31-2.42-1.51-8.08,12.93,2.42,1.51-1.45,2.31-7.65-4.78Z"/>
      <path d="M512.97,1181.91c-1.18-.65-2.13-1.45-2.87-2.39-.74-.94-1.23-1.99-1.47-3.16s-.23-2.44.04-3.81.83-2.82,1.68-4.34c.84-1.52,1.78-2.76,2.79-3.73,1.02-.96,2.09-1.65,3.21-2.05,1.12-.41,2.27-.55,3.46-.42s2.37.51,3.54,1.17c1.18.65,2.13,1.45,2.87,2.39.73.94,1.23,1.99,1.47,3.16.25,1.17.23,2.44-.04,3.81-.28,1.37-.83,2.82-1.68,4.34-.84,1.52-1.78,2.76-2.79,3.73-1.02.96-2.09,1.65-3.21,2.05-1.12.41-2.27.55-3.46.42s-2.37-.51-3.54-1.17ZM514.41,1179.31c.69.38,1.4.62,2.11.69s1.4,0,2.06-.24,1.29-.62,1.88-1.16c.59-.54,1.12-1.22,1.58-2.05l1.59-2.87c.46-.83.76-1.64.9-2.43.14-.79.14-1.52-.02-2.21s-.45-1.31-.89-1.88c-.45-.56-1.01-1.04-1.71-1.42-.71-.39-1.42-.63-2.12-.7-.71-.07-1.39,0-2.05.24-.66.23-1.29.62-1.88,1.16-.59.54-1.12,1.22-1.58,2.05l-1.59,2.87c-.46.83-.76,1.64-.9,2.43-.14.79-.14,1.52.02,2.21.15.68.45,1.31.88,1.87s1.01,1.04,1.72,1.43Z"/>
      <path d="M536.69,1180.89l-.19-4.95-.08-.04-6.76,14.33-2.9-1.37,8.84-18.73,3.38,1.6,1.23,13.25.19,4.95.08.04,6.76-14.33,2.9,1.37-8.84,18.73-3.38-1.6-1.23-13.24Z"/>
    </g>
    <g>
      <path d="M866.28,1179.98c-1.51.86-2.95,1.32-4.32,1.37-1.37.05-2.7-.17-3.98-.67l.94-3.03c1.08.41,2.11.6,3.1.56s1.97-.34,2.96-.9c1.15-.66,1.87-1.41,2.16-2.26.29-.85.19-1.71-.31-2.59-.4-.71-.93-1.15-1.57-1.32s-1.55-.07-2.72.32l-1.76.63c-1.94.67-3.58.84-4.93.52-1.35-.33-2.43-1.21-3.25-2.66-.45-.79-.71-1.59-.77-2.41-.07-.82.05-1.6.34-2.34.29-.75.76-1.46,1.39-2.14.64-.68,1.44-1.29,2.4-1.84,1.36-.77,2.67-1.21,3.94-1.3,1.27-.09,2.51.1,3.72.6l-1.01,2.96c-.81-.34-1.65-.5-2.52-.48s-1.81.32-2.81.88c-1.03.59-1.71,1.25-2.05,1.98-.33.74-.27,1.5.18,2.29.43.76.98,1.19,1.66,1.29.67.11,1.56-.03,2.64-.39l1.79-.57c2-.68,3.65-.85,4.96-.5,1.3.35,2.37,1.25,3.19,2.69.48.84.77,1.69.87,2.54.1.85,0,1.68-.27,2.49-.28.81-.75,1.58-1.4,2.3-.66.73-1.5,1.38-2.53,1.97Z"/>
      <path d="M877.96,1172.7l-11.24-17.39,7.48-4.83c1.61-1.04,3.16-1.37,4.66-1,1.49.38,2.75,1.36,3.79,2.96,1.03,1.59,1.41,3.15,1.14,4.67-.27,1.52-1.21,2.79-2.82,3.84l-4.66,3.01,4.48,6.93-2.82,1.82ZM874.69,1161.46l4.49-2.9c.71-.46,1.15-1.01,1.31-1.63.16-.63.01-1.29-.43-1.98l-.77-1.18c-.45-.69-.99-1.09-1.63-1.21-.64-.11-1.31.06-2.03.52l-4.49,2.9,3.54,5.48Z"/>
      <path d="M895.28,1161.24l-12.2-16.74,10.72-7.81,1.75,2.4-8.01,5.84,3.39,4.65,7.26-5.3,1.75,2.4-7.27,5.29,3.57,4.89,8.01-5.84,1.75,2.4-10.72,7.81Z"/>
      <path d="M917.41,1144.79c-2.1,1.72-4.32,2.36-6.67,1.92-2.35-.44-4.63-2-6.84-4.7-1.1-1.35-1.92-2.66-2.46-3.93-.53-1.28-.8-2.5-.79-3.68,0-1.18.28-2.29.82-3.33.54-1.04,1.33-1.99,2.37-2.84,1.39-1.14,2.81-1.79,4.25-1.96,1.44-.16,2.91.13,4.42.88l-1.2,2.98c-.9-.54-1.83-.8-2.77-.78s-1.88.41-2.82,1.17c-1.24,1.01-1.87,2.23-1.88,3.65-.01,1.42.59,2.88,1.81,4.37l2,2.44c1.22,1.49,2.53,2.37,3.92,2.64,1.4.27,2.71-.11,3.95-1.12.96-.79,1.54-1.68,1.74-2.67.2-.99.12-2-.23-3.02l3.12-.45c.42,1.6.41,3.12-.02,4.56s-1.34,2.73-2.73,3.87Z"/>
      <path d="M920.96,1117.67l11.99,13.08-2.47,2.26-11.99-13.08-4.55,4.17-2-2.19,11.57-10.6,2,2.19-4.55,4.17Z"/>
      <path d="M943.75,1120.37l-2.34,2.4-14.83-14.46,6.24-6.39c1.3-1.33,2.72-1.99,4.27-1.97s3.01.69,4.38,2.03c1.06,1.04,1.71,2.14,1.93,3.31s.02,2.37-.63,3.6l9.37,2.88-2.61,2.68-8.89-2.87-2.88,2.95,5.99,5.84ZM939.47,1108.73c.59-.61.9-1.24.91-1.89.01-.65-.27-1.26-.87-1.84l-1.01-.99c-.59-.58-1.21-.85-1.86-.82s-1.27.35-1.86.96l-3.73,3.82,4.69,4.58,3.73-3.82Z"/>
      <path d="M964.83,1097.33l-5.46-2.25-5.06,5.86,3.06,5.04-2.23,2.58-11.05-18.89,2.76-3.19,20.29,8.2-2.29,2.65ZM947.79,1090.09l-.1.11,4.95,8.24,4-4.62-8.85-3.73Z"/>
      <path d="M970.44,1090.44l-16.38-12.68,2.05-2.65,14.03,10.86,5.16-6.66,2.35,1.82-7.21,9.31Z"/>
      <path d="M986.02,1069.42l-17.3-11.38,4.89-7.44c1.05-1.6,2.34-2.53,3.86-2.79,1.52-.26,3.07.14,4.66,1.18,1.59,1.04,2.56,2.31,2.93,3.81.37,1.5.02,3.04-1.03,4.65l-3.05,4.64,6.89,4.53-1.84,2.8ZM978.49,1060.46l2.93-4.46c.47-.71.65-1.39.54-2.02-.11-.64-.5-1.18-1.19-1.64l-1.18-.78c-.69-.45-1.35-.6-1.98-.45-.63.15-1.18.59-1.65,1.3l-2.94,4.46,5.45,3.59Z"/>
      <path d="M998.97,1048.99l-1.67,2.9-17.94-10.34,4.46-7.74c.93-1.61,2.14-2.6,3.65-2.97,1.5-.37,3.08-.07,4.75.89,1.29.74,2.18,1.65,2.69,2.73.51,1.08.6,2.29.28,3.64l9.79.47-1.87,3.24-9.32-.58-2.06,3.57,7.25,4.18ZM991.95,1038.78c.42-.74.56-1.42.42-2.05-.15-.63-.58-1.16-1.29-1.57l-1.23-.71c-.72-.41-1.39-.52-2.01-.33-.62.19-1.14.65-1.57,1.39l-2.67,4.63,5.68,3.28,2.67-4.63Z"/>
      <path d="M1007.9,1033.04l-18.51-9.3,5.95-11.85,2.65,1.33-4.45,8.86,5.14,2.58,4.04-8.03,2.65,1.33-4.04,8.03,5.41,2.72,4.45-8.86,2.65,1.33-5.95,11.85Z"/>
      <path d="M997.62,1007.05l2.9-6.73c.52-1.22,1.2-2.24,2.03-3.05.83-.82,1.78-1.41,2.88-1.77s2.31-.47,3.67-.34,2.82.54,4.4,1.22,2.88,1.47,3.91,2.36c1.03.89,1.78,1.86,2.27,2.9s.72,2.14.69,3.3c-.03,1.16-.3,2.35-.83,3.57l-2.9,6.73-19.02-8.19ZM1016.81,1007.34c.61-1.42.66-2.75.14-4.01-.51-1.26-1.63-2.25-3.36-3l-3.05-1.31c-1.73-.74-3.22-.87-4.49-.38-1.27.49-2.2,1.44-2.81,2.86l-1.57,3.65,13.57,5.84,1.57-3.65Z"/>
      <path d="M1024.92,995.41l-2.56-.95.98-2.64-14.3-5.3-.98,2.64-2.56-.95,3.14-8.46,2.56.95-.99,2.67,14.3,5.3.99-2.67,2.56.95-3.14,8.46Z"/>
      <path d="M1032.84,973.68c-.82,2.58-2.33,4.34-4.54,5.26-2.21.92-4.97.86-8.29-.19-1.66-.52-3.06-1.17-4.21-1.95-1.14-.78-2.04-1.66-2.68-2.65-.64-.99-1.02-2.07-1.14-3.24-.12-1.17.02-2.39.43-3.68.54-1.72,1.37-3.04,2.48-3.96,1.11-.92,2.51-1.48,4.18-1.68l.62,3.15c-1.05.04-1.96.33-2.75.86-.78.53-1.35,1.37-1.71,2.52-.48,1.53-.34,2.89.43,4.09.77,1.2,2.07,2.08,3.91,2.67l3.01.95c1.84.58,3.41.6,4.73.06s2.21-1.57,2.7-3.1c.38-1.19.37-2.25,0-3.19-.38-.94-.99-1.74-1.84-2.4l2.37-2.08c1.22,1.11,2.05,2.39,2.48,3.83.43,1.44.37,3.02-.17,4.74Z"/>
      <path d="M1020.97,949.05l17.19,4.38-.83,3.25-17.19-4.38-1.52,5.98-2.88-.73,3.88-15.21,2.88.73-1.52,5.98Z"/>
      <path d="M1040.57,943.3l-2.67-.55.57-2.76-14.94-3.08-.57,2.76-2.67-.55,1.82-8.83,2.67.55-.58,2.79,14.94,3.08.58-2.79,2.67.55-1.82,8.83Z"/>
      <path d="M1045.15,920.34c-.2,1.33-.62,2.5-1.24,3.52-.62,1.02-1.44,1.84-2.45,2.48-1.01.64-2.2,1.07-3.59,1.29-1.38.22-2.94.2-4.66-.06-1.72-.26-3.21-.7-4.47-1.32-1.26-.62-2.27-1.38-3.04-2.29-.77-.91-1.31-1.94-1.6-3.09s-.34-2.4-.14-3.73.62-2.5,1.24-3.52c.62-1.02,1.44-1.84,2.45-2.48,1.01-.64,2.2-1.07,3.59-1.29,1.38-.22,2.94-.2,4.66.06,1.72.26,3.21.7,4.47,1.32s2.27,1.38,3.04,2.29c.77.91,1.31,1.94,1.6,3.09.29,1.16.34,2.4.14,3.73ZM1042.22,919.9c.12-.78.09-1.52-.08-2.22-.18-.7-.49-1.31-.94-1.85-.45-.54-1.03-.99-1.74-1.36-.71-.37-1.53-.62-2.47-.77l-3.24-.49c-.94-.14-1.8-.14-2.59,0-.78.14-1.47.4-2.06.78-.59.38-1.07.88-1.45,1.49-.38.61-.62,1.31-.74,2.09-.12.8-.09,1.55.08,2.23.18.69.49,1.3.94,1.84.45.54,1.03.99,1.74,1.36.71.37,1.53.62,2.47.77l3.24.49c.94.14,1.81.14,2.59,0,.79-.14,1.47-.4,2.06-.78.59-.38,1.07-.87,1.44-1.48.37-.6.62-1.31.74-2.11Z"/>
      <path d="M1035.95,898.47l-4.57,1.9v.09s15.78,1.36,15.78,1.36l-.27,3.19-20.63-1.78.32-3.72,11.99-5.76,4.57-1.9v-.09s-15.78-1.36-15.78-1.36l.27-3.19,20.63,1.77-.32,3.73-11.99,5.76Z"/>
    </g>
    <g>
      <path d="M300.51,95.6l-.98-2.58,2.66-1.01-5.49-14.41-2.66,1.01-.98-2.58,8.52-3.25.98,2.58-2.69,1.02,5.49,14.41,2.69-1.02.98,2.58-8.52,3.25Z"/>
      <path d="M316.04,77.69l-3.56-3.52-.09.03,4.9,15.25-3.08.99-6.4-19.94,3.6-1.16,10.05,8.94,3.56,3.52.09-.03-4.9-15.25,3.08-.99,6.4,19.94-3.6,1.16-10.05-8.94Z"/>
      <path d="M340.48,82.57l-11.81-18.61,3.4-.86,5.77,9.21,3.74,6.57.12-.03.19-7.57.68-10.85,3.31-.84-1.6,22.01-3.81.97Z"/>
      <path d="M355.3,79.02l-3.98-20.56,13.17-2.55.57,2.95-9.84,1.9,1.11,5.71,8.92-1.73.57,2.95-8.92,1.73,1.16,6.01,9.84-1.9.57,2.95-13.17,2.55Z"/>
      <path d="M377.31,75.12l-3.36.45-2.78-20.76,8.95-1.2c1.86-.25,3.41.11,4.63,1.09,1.22.98,1.96,2.43,2.22,4.35.2,1.49.02,2.77-.53,3.84s-1.47,1.9-2.74,2.47l5.66,8.14-3.75.5-5.28-7.83-4.13.55,1.12,8.39ZM381.16,63.19c.85-.11,1.49-.42,1.9-.93s.57-1.18.46-2l-.19-1.42c-.11-.83-.43-1.43-.97-1.81-.54-.38-1.23-.51-2.08-.4l-5.35.72.88,6.57,5.35-.72Z"/>
      <path d="M400.95,72.91c-1.76.13-3.27-.08-4.54-.62s-2.39-1.33-3.35-2.34l2.17-2.36c.8.84,1.67,1.46,2.59,1.85.92.39,1.95.55,3.09.46,1.34-.1,2.32-.47,2.95-1.12.63-.65.91-1.48.84-2.5-.06-.82-.35-1.45-.86-1.89-.51-.44-1.39-.74-2.62-.89l-1.88-.19c-2.06-.23-3.64-.78-4.73-1.66-1.09-.88-1.69-2.16-1.82-3.84-.07-.92.04-1.76.34-2.54.29-.77.74-1.44,1.33-1.99.59-.56,1.32-1.01,2.2-1.35.88-.35,1.87-.56,2.99-.64,1.58-.12,2.96.06,4.16.52,1.2.46,2.24,1.18,3.14,2.16l-2.21,2.27c-.59-.66-1.29-1.17-2.1-1.53-.81-.36-1.79-.5-2.95-.41-1.2.09-2.11.4-2.73.92-.62.53-.9,1.25-.83,2.17.07.88.38,1.51.95,1.9.57.39,1.43.65,2.59.79l1.88.25c2.12.24,3.7.81,4.74,1.69,1.04.89,1.62,2.17,1.74,3.84.07.98-.03,1.88-.31,2.7s-.72,1.54-1.33,2.16c-.61.62-1.37,1.11-2.28,1.49-.91.38-1.97.61-3.17.7Z"/>
      <path d="M413.78,71.77l-.38-20.94,13.41-.24.05,3-10.02.18.11,5.82,9.09-.17.05,3-9.09.17.11,6.12,10.02-.18.05,3-13.41.24Z"/>
      <path d="M442.64,50.95l7.39.49c1.34.09,2.53.39,3.59.9,1.06.51,1.94,1.23,2.65,2.15.71.92,1.23,2.05,1.56,3.38.33,1.34.44,2.87.32,4.61-.12,1.74-.43,3.24-.93,4.52-.51,1.28-1.17,2.33-2,3.14-.83.82-1.8,1.41-2.92,1.77s-2.34.5-3.68.42l-7.39-.49,1.4-20.89ZM448.83,69.35c1.56.1,2.85-.3,3.87-1.21s1.6-2.32,1.73-4.21l.22-3.35c.13-1.9-.26-3.36-1.15-4.41-.89-1.04-2.12-1.61-3.67-1.72l-4.01-.27-1,14.91,4.01.27Z"/>
      <path d="M462.86,73.52l2.65-20.77,13.3,1.7-.38,2.98-9.94-1.27-.74,5.77,9.02,1.15-.38,2.98-9.02-1.15-.77,6.07,9.94,1.27-.38,2.98-13.3-1.7Z"/>
      <path d="M487.78,77.6c-1.73-.32-3.14-.91-4.23-1.76s-1.97-1.89-2.64-3.11l2.7-1.73c.56,1.02,1.24,1.84,2.03,2.45.79.61,1.75,1.03,2.87,1.23,1.32.24,2.37.13,3.14-.33.78-.47,1.26-1.2,1.45-2.2.15-.81.03-1.49-.35-2.05-.38-.56-1.15-1.07-2.31-1.53l-1.77-.66c-1.94-.75-3.32-1.68-4.15-2.81-.83-1.13-1.09-2.52-.78-4.17.17-.9.49-1.69.97-2.37.48-.67,1.08-1.2,1.79-1.59.71-.39,1.54-.64,2.47-.75s1.95-.06,3.06.14c1.55.29,2.85.81,3.89,1.56,1.04.75,1.87,1.71,2.48,2.89l-2.71,1.63c-.4-.79-.95-1.46-1.64-2.01s-1.61-.94-2.75-1.15c-1.18-.22-2.14-.15-2.87.2-.74.35-1.19.98-1.36,1.88-.16.87-.01,1.56.44,2.08s1.22.99,2.3,1.42l1.76.72c1.99.78,3.38,1.72,4.16,2.85.78,1.12,1.01,2.51.71,4.16-.18.96-.51,1.81-.99,2.53-.48.72-1.09,1.31-1.83,1.75s-1.6.73-2.59.86c-.98.13-2.06.09-3.24-.13Z"/>
      <path d="M499.64,79.62l.64-2.69,2.77.66,3.55-15.01-2.77-.66.64-2.69,8.88,2.1-.63,2.69-2.8-.66-3.55,15.01,2.8.66-.64,2.69-8.88-2.1Z"/>
      <path d="M527.65,83.8l-.12-.03c-.5.91-1.3,1.55-2.42,1.91s-2.44.32-3.98-.13c-1.19-.35-2.23-.9-3.11-1.65-.89-.75-1.57-1.67-2.05-2.76-.48-1.09-.74-2.34-.77-3.76s.2-2.97.7-4.66c.49-1.67,1.14-3.09,1.94-4.26.8-1.17,1.72-2.09,2.74-2.74,1.03-.66,2.14-1.05,3.35-1.19,1.21-.14,2.47,0,3.8.38,1.8.53,3.21,1.38,4.23,2.54s1.66,2.55,1.93,4.17l-3.1.77c-.11-1.06-.48-2-1.11-2.82-.63-.82-1.56-1.42-2.79-1.78-1.59-.47-3.02-.33-4.29.4-1.27.74-2.18,2.04-2.73,3.91l-.97,3.29c-.55,1.87-.49,3.46.18,4.76.67,1.31,1.8,2.19,3.39,2.66.63.19,1.26.28,1.89.29.62,0,1.2-.09,1.72-.28.53-.19.99-.49,1.38-.88s.69-.91.88-1.55l.46-1.56-4.14-1.22.82-2.79,7.28,2.14-3.15,10.71-2.85-.84.89-3.02Z"/>
      <path d="M544.49,80.6l-.64-4.96-.08-.03-5.53,15.04-3.04-1.12,7.22-19.65,3.55,1.3,2.43,13.23.64,4.96.08.03,5.53-15.04,3.04,1.12-7.22,19.66-3.55-1.3-2.43-13.23Z"/>
    </g>
    <g>
      <path d="M833.06,92.42l-3.2,1.13-6.98-19.74,8.51-3.01c1.77-.63,3.36-.59,4.75.12,1.4.71,2.42,1.97,3.06,3.8.5,1.41.59,2.7.27,3.87-.32,1.16-1.05,2.16-2.18,2.98l7.21,6.81-3.56,1.26-6.78-6.58-3.93,1.39,2.82,7.98ZM834.38,79.96c.81-.29,1.37-.72,1.67-1.3.3-.58.32-1.27.04-2.06l-.48-1.35c-.28-.79-.72-1.31-1.32-1.58-.6-.26-1.31-.25-2.12.04l-5.09,1.8,2.21,6.25,5.09-1.8Z"/>
      <path d="M849.62,86.8l-5.82-20.12,12.88-3.72.83,2.88-9.63,2.78,1.62,5.59,8.73-2.52.83,2.88-8.73,2.52,1.7,5.88,9.62-2.78.83,2.88-12.88,3.72Z"/>
      <path d="M871.46,62.47l4.03,17.48-3.3.76-4.03-17.48-6.08,1.4-.67-2.92,15.46-3.57.67,2.92-6.08,1.4Z"/>
      <path d="M889.36,77.11l-3.34.57-3.52-20.64,8.9-1.52c1.85-.32,3.41,0,4.66.92s2.04,2.35,2.37,4.27c.25,1.48.12,2.76-.39,3.86-.51,1.09-1.4,1.95-2.65,2.57l5.95,7.93-3.73.64-5.56-7.63-4.11.7,1.42,8.34ZM892.78,65.05c.85-.14,1.47-.48,1.87-1,.4-.52.53-1.2.39-2.02l-.24-1.41c-.14-.82-.49-1.42-1.03-1.78-.55-.36-1.25-.47-2.09-.32l-5.32.91,1.12,6.54,5.32-.91Z"/>
      <path d="M914.37,73.88c-1.35.14-2.61.04-3.76-.31-1.15-.35-2.17-.93-3.05-1.76-.88-.82-1.61-1.88-2.18-3.18-.57-1.3-.95-2.82-1.14-4.57s-.14-3.32.15-4.71c.28-1.39.77-2.58,1.46-3.57.69-.99,1.56-1.78,2.61-2.36,1.05-.58,2.26-.95,3.61-1.09s2.61-.04,3.76.31c1.15.35,2.17.94,3.05,1.76.88.82,1.61,1.88,2.18,3.18.57,1.3.95,2.82,1.14,4.57.19,1.75.14,3.32-.15,4.71-.28,1.39-.77,2.58-1.46,3.56-.69.99-1.56,1.78-2.61,2.36-1.05.58-2.26.95-3.61,1.09ZM914.05,70.9c.79-.08,1.51-.3,2.15-.65.64-.35,1.16-.82,1.57-1.39.41-.58.71-1.26.88-2.05.18-.79.22-1.66.11-2.62l-.35-3.29c-.1-.96-.32-1.8-.66-2.53-.34-.73-.77-1.34-1.29-1.82-.52-.48-1.13-.82-1.83-1.03s-1.44-.27-2.24-.19c-.82.09-1.54.31-2.16.66-.63.35-1.15.81-1.56,1.39-.41.58-.71,1.26-.88,2.05-.18.79-.22,1.66-.11,2.62l.35,3.29c.1.96.32,1.8.66,2.53.34.73.77,1.34,1.29,1.82.52.48,1.13.82,1.81,1.03.69.21,1.44.27,2.25.18Z"/>
      <path d="M934.96,72.31c-1.76.08-3.27-.17-4.52-.76-1.26-.58-2.35-1.39-3.28-2.43l2.24-2.29c.78.87,1.62,1.51,2.54,1.93.91.42,1.93.6,3.07.55,1.34-.06,2.33-.41,2.99-1.04.65-.63.96-1.45.91-2.47-.04-.82-.31-1.46-.81-1.92-.5-.46-1.37-.78-2.6-.96l-1.87-.25c-2.06-.29-3.61-.89-4.68-1.8-1.06-.91-1.63-2.21-1.71-3.89-.04-.92.1-1.76.41-2.53s.78-1.42,1.38-1.95,1.35-.97,2.24-1.29c.89-.32,1.89-.51,3.01-.56,1.58-.07,2.96.14,4.14.64,1.18.5,2.21,1.25,3.08,2.25l-2.27,2.21c-.57-.67-1.26-1.2-2.05-1.59-.8-.38-1.78-.55-2.94-.5-1.2.05-2.12.34-2.75.85-.64.51-.94,1.22-.89,2.14.04.88.34,1.52.9,1.93.56.41,1.41.69,2.56.86l1.88.31c2.12.3,3.68.91,4.69,1.83,1.01.92,1.56,2.21,1.63,3.89.04.98-.08,1.88-.39,2.69-.3.81-.77,1.52-1.39,2.12-.62.6-1.4,1.07-2.32,1.43-.93.35-1.99.56-3.19.61Z"/>
      <path d="M952.09,71.6l.08-8.25-7.07-12.76,3.87.04,5.01,9.38h.09s5.16-9.28,5.16-9.28l3.72.04-7.38,12.56-.08,8.31-3.39-.03Z"/>
      <path d="M975.94,54.57l-1.2,17.9-3.38-.23,1.2-17.9-6.23-.42.2-2.99,15.83,1.06-.2,2.99-6.23-.42Z"/>
      <path d="M999.37,65.9l-9.4-1.21-1.16,9.05-3.36-.43,2.66-20.77,3.36.43-1.12,8.75,9.4,1.21,1.12-8.75,3.36.43-2.66,20.77-3.36-.43,1.16-9.05Z"/>
      <path d="M1007.84,76.44l3.94-20.57,13.17,2.52-.56,2.95-9.84-1.88-1.09,5.72,8.93,1.71-.56,2.95-8.93-1.71-1.15,6.01,9.84,1.88-.56,2.95-13.17-2.52Z"/>
      <path d="M1032.46,82.05c-1.71-.43-3.08-1.1-4.12-2.02-1.04-.92-1.85-2.01-2.44-3.27l2.8-1.56c.5,1.05,1.12,1.91,1.88,2.57.75.66,1.68,1.13,2.79,1.41,1.3.33,2.35.28,3.16-.14.81-.42,1.33-1.12,1.58-2.11.2-.8.12-1.48-.22-2.07-.35-.58-1.09-1.14-2.21-1.67l-1.72-.77c-1.89-.86-3.21-1.89-3.96-3.07s-.93-2.58-.52-4.21c.22-.89.6-1.66,1.12-2.3.52-.64,1.15-1.13,1.89-1.48s1.57-.54,2.51-.59c.94-.05,1.95.06,3.04.33,1.53.38,2.79.98,3.79,1.8.99.82,1.76,1.83,2.3,3.04l-2.81,1.46c-.35-.81-.86-1.51-1.51-2.11s-1.54-1.04-2.67-1.32c-1.16-.29-2.12-.29-2.88.02s-1.25.9-1.47,1.8c-.21.85-.11,1.55.31,2.1.42.55,1.15,1.07,2.21,1.56l1.71.83c1.94.9,3.26,1.93,3.97,3.1.71,1.17.86,2.57.45,4.2-.24.95-.62,1.77-1.14,2.47s-1.17,1.24-1.94,1.63c-.77.39-1.65.63-2.63.7s-2.06-.04-3.23-.33Z"/>
      <path d="M1044.16,84.8l.8-2.64,2.73.83,4.47-14.76-2.73-.83.8-2.64,8.73,2.65-.8,2.64-2.76-.84-4.47,14.76,2.76.84-.8,2.64-8.73-2.65Z"/>
      <path d="M1063.92,91.58c-1.66-.59-2.96-1.4-3.9-2.41-.94-1.02-1.65-2.18-2.11-3.49l2.94-1.28c.39,1.1.93,2.01,1.62,2.74.68.73,1.56,1.29,2.63,1.67,1.26.45,2.31.51,3.16.17.84-.34,1.43-.98,1.78-1.95.28-.77.27-1.46-.02-2.08-.29-.61-.97-1.24-2.04-1.88l-1.64-.94c-1.79-1.04-3.01-2.19-3.65-3.44-.64-1.25-.67-2.66-.11-4.24.31-.87.76-1.59,1.34-2.18.58-.59,1.25-1.02,2.02-1.29.77-.27,1.62-.38,2.56-.34.94.04,1.94.25,2.99.62,1.49.53,2.69,1.25,3.59,2.16.91.91,1.57,1.99,2,3.25l-2.94,1.18c-.27-.84-.71-1.59-1.3-2.25-.59-.66-1.44-1.18-2.53-1.57-1.13-.4-2.09-.49-2.87-.26-.78.23-1.33.78-1.64,1.64-.3.83-.26,1.54.1,2.12.36.59,1.04,1.18,2.04,1.77l1.62.99c1.84,1.08,3.06,2.24,3.65,3.47s.6,2.64.04,4.22c-.33.92-.79,1.7-1.38,2.34-.59.64-1.29,1.12-2.09,1.44s-1.7.47-2.69.44c-.99-.02-2.05-.24-3.18-.64Z"/>
    </g>
    <g>
      <path d="M91.94,548.62l19.02-8.2,3.53,8.17c.76,1.76.83,3.35.21,4.76s-1.8,2.49-3.55,3.24-3.34.87-4.79.35c-1.45-.52-2.56-1.66-3.32-3.42l-2.2-5.09-7.57,3.27-1.33-3.08ZM103.57,547.26l2.12,4.9c.34.78.8,1.3,1.4,1.56.59.26,1.27.23,2.02-.1l1.3-.56c.76-.33,1.24-.79,1.46-1.41.22-.61.16-1.31-.18-2.09l-2.12-4.9-5.99,2.58Z"/>
      <path d="M101.88,570.66l-1.51-3,18.5-9.3,4.01,7.98c.83,1.66.99,3.22.48,4.68-.52,1.46-1.64,2.62-3.35,3.48-1.33.67-2.58.91-3.76.75-1.18-.17-2.25-.76-3.2-1.76l-5.78,7.92-1.68-3.34,5.61-7.47-1.85-3.69-7.48,3.76ZM114.27,570.41c.38.76.88,1.25,1.49,1.48.61.23,1.28.15,2.02-.22l1.27-.64c.74-.37,1.2-.87,1.38-1.49.18-.62.08-1.31-.3-2.07l-2.4-4.77-5.86,2.95,2.4,4.77Z"/>
      <path d="M113.88,593.8c-.68-1.16-1.09-2.33-1.24-3.52-.15-1.18-.03-2.34.35-3.47.38-1.13,1.05-2.21,1.99-3.25.94-1.04,2.16-2,3.67-2.87,1.5-.88,2.94-1.47,4.31-1.77s2.64-.35,3.81-.12c1.17.22,2.23.69,3.19,1.4.95.71,1.77,1.65,2.45,2.82.68,1.16,1.09,2.33,1.24,3.52.15,1.18.03,2.34-.35,3.47-.38,1.13-1.05,2.21-1.99,3.25-.94,1.04-2.16,2-3.67,2.87-1.5.88-2.94,1.47-4.31,1.77-1.37.3-2.64.35-3.81.12-1.17-.22-2.23-.69-3.19-1.4-.95-.71-1.77-1.65-2.45-2.82ZM116.45,592.3c.4.68.88,1.24,1.46,1.67.57.43,1.21.72,1.89.85.69.14,1.42.13,2.21-.03.78-.16,1.58-.48,2.41-.96l2.83-1.65c.82-.48,1.5-1.02,2.02-1.62.52-.6.89-1.24,1.11-1.9s.28-1.36.19-2.07c-.09-.71-.34-1.41-.74-2.09-.41-.7-.9-1.26-1.47-1.69-.57-.42-1.2-.7-1.89-.84-.69-.14-1.42-.13-2.21.03s-1.58.48-2.41.96l-2.83,1.65c-.82.48-1.5,1.02-2.02,1.62-.52.6-.89,1.24-1.11,1.9-.22.67-.29,1.35-.2,2.06.09.7.34,1.41.75,2.11Z"/>
      <path d="M122.15,606.76l17.22-11.5,4.94,7.4c1.07,1.6,1.42,3.14,1.07,4.64-.36,1.5-1.32,2.77-2.9,3.83-1.58,1.06-3.13,1.46-4.65,1.21-1.52-.25-2.81-1.17-3.88-2.76l-3.08-4.61-6.86,4.58-1.86-2.79ZM133.34,603.31l2.97,4.44c.47.71,1.02,1.14,1.65,1.29.63.15,1.29,0,1.97-.46l1.17-.78c.68-.46,1.08-1.01,1.18-1.65.1-.64-.08-1.31-.55-2.02l-2.97-4.44-5.43,3.63Z"/>
      <path d="M133.9,623.94l16.54-12.46,7.98,10.59-2.37,1.79-5.96-7.92-4.6,3.46,5.41,7.18-2.37,1.79-5.41-7.18-4.83,3.64,5.96,7.92-2.37,1.79-7.98-10.59Z"/>
      <path d="M148.13,642.21l-2.17-2.56,15.8-13.39,5.78,6.81c1.2,1.42,1.72,2.9,1.56,4.43-.16,1.54-.97,2.93-2.44,4.17-1.13.96-2.29,1.5-3.48,1.61-1.19.11-2.36-.21-3.52-.96l-3.76,9.06-2.42-2.85,3.7-8.58-2.67-3.15-6.38,5.41ZM160.12,639.05c.55.65,1.15,1.01,1.79,1.09s1.28-.15,1.91-.69l1.08-.92c.63-.54.96-1.13.99-1.78.03-.65-.23-1.3-.78-1.95l-3.45-4.07-5,4.24,3.45,4.07Z"/>
      <path d="M177.8,648.82l-12.88,12.2-2.31-2.43,12.88-12.2-4.25-4.48,2.15-2.04,10.8,11.39-2.15,2.04-4.24-4.48Z"/>
      <path d="M176.71,672.79l5.6-5.93,3.44-14.02,2.78,2.63-2.66,10.17.06.06,9.98-3.27,2.68,2.53-13.8,4.16-5.64,5.98-2.44-2.3Z"/>
      <path d="M194.9,689.06l12.93-16.18,6.95,5.56c1.5,1.2,2.31,2.57,2.42,4.1s-.42,3.04-1.61,4.53c-1.19,1.48-2.54,2.34-4.06,2.56-1.52.23-3.03-.26-4.53-1.46l-4.33-3.46-5.15,6.44-2.62-2.09ZM204.52,682.39l4.17,3.33c.66.53,1.32.77,1.97.73.65-.05,1.23-.39,1.74-1.04l.88-1.1c.51-.64.72-1.28.63-1.93-.1-.64-.48-1.23-1.14-1.76l-4.17-3.34-4.08,5.1Z"/>
      <path d="M214.01,703.83l-2.74-1.94,11.96-16.91,7.29,5.16c1.52,1.07,2.39,2.38,2.62,3.91s-.21,3.08-1.32,4.64c-.86,1.21-1.85,2.02-2.97,2.42-1.12.41-2.34.39-3.65-.06l-1.38,9.71-3.05-2.16,1.44-9.23-3.37-2.38-4.83,6.83ZM224.83,697.78c.69.49,1.36.69,2.01.61s1.2-.47,1.68-1.14l.82-1.16c.48-.67.65-1.33.52-1.97-.13-.64-.54-1.2-1.24-1.69l-4.36-3.08-3.79,5.35,4.36,3.08Z"/>
      <path d="M229.09,714.21l10.98-17.56,11.25,7.03-1.57,2.52-8.4-5.25-3.05,4.88,7.62,4.77-1.57,2.52-7.62-4.77-3.21,5.13,8.4,5.25-1.57,2.52-11.25-7.03Z"/>
      <path d="M255.89,706.38l6.43,3.52c1.16.64,2.11,1.41,2.85,2.31.74.9,1.23,1.91,1.49,3.03.25,1.12.25,2.35,0,3.69-.26,1.34-.8,2.76-1.63,4.27-.83,1.51-1.73,2.73-2.72,3.67s-2.02,1.6-3.1,1.99c-1.08.39-2.2.51-3.35.38-1.15-.14-2.31-.52-3.48-1.16l-6.43-3.52,9.96-18.16ZM253.79,725.46c1.35.74,2.68.92,3.98.52,1.3-.39,2.4-1.41,3.3-3.06l1.6-2.91c.9-1.65,1.17-3.12.8-4.43-.37-1.31-1.23-2.33-2.58-3.07l-3.49-1.91-7.1,12.96,3.49,1.91Z"/>
      <path d="M264.9,734.66l1.19-2.46,2.54,1.23,6.65-13.73-2.54-1.23,1.19-2.46,8.12,3.93-1.19,2.46-2.56-1.24-6.65,13.73,2.56,1.24-1.19,2.46-8.12-3.93Z"/>
      <path d="M285.76,744.63c-2.49-1.06-4.09-2.74-4.8-5.02-.7-2.29-.37-5.03.99-8.24.68-1.6,1.46-2.94,2.35-4,.88-1.06,1.85-1.87,2.9-2.41s2.16-.82,3.33-.82c1.17,0,2.38.25,3.62.78,1.66.7,2.89,1.66,3.7,2.85.81,1.2,1.24,2.64,1.27,4.33l-3.2.32c.06-1.05-.14-1.99-.59-2.82s-1.24-1.48-2.35-1.95c-1.47-.63-2.84-.62-4.11.03-1.27.65-2.27,1.86-3.03,3.63l-1.24,2.91c-.75,1.77-.93,3.34-.52,4.7s1.35,2.36,2.83,2.98c1.15.49,2.21.59,3.18.3.97-.29,1.83-.82,2.57-1.6l1.85,2.56c-1.22,1.11-2.58,1.81-4.05,2.09-1.48.29-3.04.08-4.7-.63Z"/>
      <path d="M311.39,735.19l-6.02,16.69-3.15-1.14,6.02-16.69-5.81-2.09,1.01-2.79,14.76,5.33-1.01,2.79-5.81-2.09Z"/>
      <path d="M315.24,755.25l.81-2.61,2.69.83,4.51-14.57-2.69-.83.81-2.61,8.62,2.67-.81,2.61-2.72-.84-4.51,14.57,2.72.84-.81,2.61-8.62-2.67Z"/>
      <path d="M337.64,762.04c-1.3-.33-2.43-.85-3.38-1.57-.95-.72-1.69-1.61-2.23-2.68-.54-1.06-.85-2.29-.93-3.69s.08-2.94.51-4.63c.43-1.69,1.01-3.13,1.75-4.32s1.6-2.13,2.58-2.81c.98-.68,2.06-1.11,3.23-1.29,1.18-.18,2.42-.11,3.72.22,1.3.33,2.43.85,3.38,1.57.95.72,1.69,1.61,2.23,2.67.54,1.06.85,2.29.93,3.69.09,1.4-.08,2.94-.51,4.63-.43,1.69-1.01,3.13-1.75,4.32-.74,1.19-1.6,2.13-2.58,2.81-.98.68-2.06,1.11-3.23,1.29s-2.42.11-3.72-.22ZM338.37,759.16c.77.19,1.51.24,2.22.13.71-.11,1.36-.36,1.94-.76s1.09-.93,1.52-1.6.77-1.46,1-2.39l.8-3.18c.23-.92.32-1.78.25-2.58-.06-.79-.26-1.5-.58-2.13-.32-.62-.77-1.15-1.34-1.58-.57-.43-1.25-.75-2.01-.94-.79-.2-1.53-.24-2.23-.13-.7.11-1.34.36-1.92.76s-1.09.93-1.52,1.6c-.43.67-.77,1.46-1,2.39l-.8,3.18c-.23.92-.32,1.78-.25,2.58.06.79.26,1.5.58,2.13s.77,1.15,1.33,1.58,1.24.74,2.03.94Z"/>
      <path d="M360.33,754.98l-1.45-4.73-.09-.02-2.86,15.58-3.15-.58,3.74-20.37,3.68.68,4.58,12.49,1.45,4.73.09.02,2.86-15.58,3.15.58-3.74,20.37-3.68-.68-4.58-12.49Z"/>
    </g>
    <g>
      <path d="M1019.57,765.82l-3.28.68-4.21-20.28,8.75-1.81c1.82-.38,3.37-.13,4.64.75,1.27.88,2.1,2.26,2.49,4.13.3,1.45.22,2.73-.25,3.83-.47,1.1-1.31,1.97-2.53,2.63l6.16,7.63-3.66.76-5.77-7.35-4.04.84,1.7,8.19ZM1022.53,753.79c.83-.17,1.44-.52,1.81-1.05.38-.53.48-1.2.31-2.01l-.29-1.39c-.17-.81-.53-1.38-1.08-1.72-.55-.34-1.25-.42-2.08-.25l-5.23,1.08,1.33,6.42,5.23-1.08Z"/>
      <path d="M1037.43,761.88l-5.35-20.01,12.81-3.43.77,2.87-9.57,2.56,1.49,5.56,8.68-2.32.77,2.87-8.68,2.32,1.56,5.85,9.57-2.56.77,2.87-12.81,3.43Z"/>
      <path d="M1068.78,752.54l-3.53-4.74-7.35,2.43.04,5.89-3.24,1.07.21-21.88,4-1.32,13.2,17.45-3.32,1.1ZM1057.87,737.58l-.14.05.02,9.62,5.8-1.92-5.68-7.75Z"/>
      <path d="M1083.96,747.22c-2.52,1-4.83.93-6.94-.21s-3.8-3.32-5.08-6.56c-.64-1.62-1.02-3.12-1.14-4.5-.12-1.38,0-2.63.37-3.75.37-1.12.96-2.1,1.79-2.93.83-.83,1.87-1.49,3.12-1.98,1.67-.66,3.22-.85,4.64-.57,1.42.28,2.73,1.01,3.94,2.19l-2.05,2.47c-.7-.79-1.49-1.32-2.4-1.59-.9-.27-1.92-.18-3.04.26-1.49.59-2.46,1.56-2.9,2.91-.45,1.35-.31,2.92.39,4.71l1.16,2.94c.71,1.79,1.68,3.03,2.93,3.71,1.25.68,2.62.73,4.11.14,1.16-.46,1.98-1.13,2.47-2.01.49-.88.73-1.87.71-2.94l3.11.53c-.09,1.65-.56,3.1-1.41,4.34-.85,1.24-2.11,2.19-3.79,2.85Z"/>
      <path d="M1095.6,722.48l7.43,16.12-3.04,1.4-7.43-16.12-5.6,2.58-1.24-2.7,14.25-6.57,1.24,2.69-5.61,2.58Z"/>
      <path d="M1112.42,734.08l-1.25-2.42,2.5-1.3-7.01-13.54-2.5,1.3-1.25-2.42,8.01-4.15,1.25,2.42-2.53,1.31,7.01,13.54,2.53-1.31,1.25,2.42-8.01,4.15Z"/>
      <path d="M1133.13,723.2c-1.16.68-2.33,1.1-3.51,1.25s-2.34.04-3.47-.34c-1.13-.38-2.21-1.04-3.26-1.98-1.04-.94-2-2.16-2.88-3.66-.88-1.5-1.47-2.94-1.78-4.3-.31-1.37-.35-2.64-.13-3.81.22-1.17.68-2.24,1.4-3.19s1.65-1.77,2.81-2.46c1.16-.68,2.33-1.1,3.51-1.25,1.18-.15,2.34-.04,3.47.34s2.21,1.04,3.26,1.98c1.04.94,2,2.16,2.88,3.66.88,1.5,1.47,2.94,1.78,4.3.31,1.37.35,2.64.13,3.81-.22,1.17-.68,2.24-1.4,3.19-.71.96-1.65,1.77-2.81,2.45ZM1131.63,720.64c.68-.4,1.24-.89,1.67-1.46.43-.58.71-1.21.85-1.9.13-.69.12-1.42-.04-2.21-.16-.78-.48-1.58-.96-2.41l-1.66-2.83c-.48-.82-1.02-1.49-1.63-2.01-.6-.52-1.24-.89-1.91-1.11-.67-.22-1.36-.28-2.07-.19-.71.1-1.41.34-2.09.74-.7.41-1.26.9-1.68,1.47-.42.57-.7,1.2-.84,1.89s-.12,1.42.04,2.21c.16.78.48,1.58.96,2.4l1.66,2.83c.48.82,1.02,1.49,1.63,2.01.6.52,1.24.89,1.91,1.11.67.22,1.35.28,2.06.19.7-.09,1.41-.34,2.1-.75Z"/>
      <path d="M1144.32,702.28l-4.35-2.35-.07.05,8.88,13.12-2.65,1.8-11.61-17.15,3.1-2.1,12.02,5.69,4.35,2.36.07-.05-8.88-13.12,2.65-1.8,11.61,17.15-3.1,2.1-12.02-5.69Z"/>
      <path d="M1172.39,696.2l-13.05-16.08,6.91-5.61c1.49-1.21,3-1.71,4.52-1.49,1.52.22,2.88,1.06,4.08,2.54,1.2,1.48,1.74,2.98,1.64,4.52-.1,1.54-.9,2.91-2.39,4.12l-4.31,3.5,5.2,6.41-2.6,2.11ZM1167.93,685.38l4.15-3.37c.66-.54,1.04-1.12,1.13-1.77.09-.64-.12-1.28-.64-1.92l-.89-1.1c-.52-.64-1.1-.98-1.75-1.02s-1.3.2-1.96.74l-4.15,3.36,4.11,5.07Z"/>
      <path d="M1190.92,680.65l-2.47,2.26-13.98-15.28,6.59-6.03c1.37-1.25,2.83-1.83,4.37-1.73,1.54.1,2.96.86,4.26,2.28,1,1.09,1.58,2.23,1.74,3.42.16,1.18-.12,2.37-.83,3.55l9.19,3.41-2.76,2.52-8.71-3.37-3.04,2.78,5.65,6.17ZM1187.31,668.79c.63-.57.97-1.18,1.02-1.83s-.2-1.28-.76-1.89l-.96-1.05c-.56-.61-1.16-.92-1.81-.92-.65,0-1.29.28-1.92.85l-3.94,3.6,4.42,4.84,3.94-3.6Z"/>
      <path d="M1204.25,668.13l-14.84-14.45,9.25-9.5,2.13,2.07-6.91,7.1,4.12,4.02,6.27-6.44,2.13,2.07-6.27,6.44,4.34,4.22,6.91-7.1,2.13,2.07-9.25,9.5Z"/>
      <path d="M1202.3,640.25l4.79-5.54c.87-1,1.82-1.77,2.85-2.3,1.04-.53,2.13-.8,3.28-.82,1.15-.01,2.35.25,3.6.78,1.25.53,2.53,1.36,3.83,2.49s2.31,2.27,3.01,3.43c.71,1.16,1.14,2.31,1.29,3.45.15,1.14.04,2.26-.34,3.36-.38,1.1-1,2.15-1.86,3.15l-4.79,5.54-15.66-13.55ZM1220.51,646.31c1.01-1.17,1.46-2.43,1.35-3.78-.11-1.35-.88-2.64-2.3-3.87l-2.51-2.17c-1.42-1.23-2.81-1.8-4.16-1.72-1.35.08-2.54.71-3.54,1.88l-2.6,3.01,11.18,9.67,2.6-3.01Z"/>
      <path d="M1231.86,637.37l-2.15-1.68,1.73-2.22-12.03-9.37-1.73,2.22-2.15-1.68,5.54-7.12,2.15,1.68-1.75,2.25,12.03,9.37,1.75-2.25,2.15,1.68-5.54,7.12Z"/>
      <path d="M1245.96,619.07c-1.56,2.22-3.53,3.43-5.92,3.64-2.38.21-5-.69-7.85-2.69-1.42-1-2.56-2.04-3.42-3.13-.86-1.09-1.44-2.2-1.75-3.34-.31-1.14-.35-2.28-.11-3.43.24-1.15.75-2.27,1.52-3.37,1.04-1.47,2.22-2.48,3.56-3.02,1.34-.54,2.84-.66,4.5-.34l-.36,3.19c-1.01-.28-1.97-.28-2.88-.01s-1.7.9-2.4,1.89c-.92,1.31-1.2,2.65-.83,4.02.37,1.37,1.34,2.61,2.92,3.72l2.58,1.82c1.58,1.11,3.07,1.6,4.49,1.49,1.42-.12,2.59-.83,3.51-2.14.72-1.02,1.04-2.03.96-3.04-.08-1.01-.42-1.96-1.03-2.85l2.89-1.27c.83,1.43,1.23,2.9,1.2,4.4-.03,1.5-.56,2.99-1.6,4.46Z"/>
      <path d="M1242.1,592.01l15.05,9.39-1.77,2.85-15.05-9.39-3.27,5.24-2.52-1.57,8.31-13.32,2.52,1.57-3.27,5.24Z"/>
      <path d="M1262.57,592.43l-2.39-1.33,1.37-2.46-13.33-7.41-1.37,2.46-2.39-1.33,4.38-7.88,2.39,1.33-1.38,2.49,13.33,7.41,1.38-2.49,2.39,1.33-4.38,7.88Z"/>
      <path d="M1273.86,572.08c-.6,1.2-1.35,2.19-2.25,2.97-.91.78-1.93,1.31-3.09,1.61-1.15.3-2.42.34-3.81.13-1.38-.21-2.86-.71-4.42-1.48-1.56-.77-2.84-1.65-3.85-2.62-1.01-.98-1.74-2.01-2.2-3.11-.46-1.1-.65-2.25-.58-3.44s.41-2.39,1.01-3.59,1.35-2.19,2.25-2.97c.91-.78,1.93-1.31,3.09-1.61,1.15-.3,2.42-.34,3.81-.13,1.39.21,2.86.71,4.42,1.48,1.56.77,2.84,1.65,3.85,2.62,1.01.98,1.74,2.01,2.2,3.11.46,1.1.65,2.25.58,3.44-.07,1.19-.41,2.39-1.01,3.59ZM1271.2,570.76c.35-.71.55-1.42.6-2.14.04-.72-.06-1.4-.33-2.05s-.68-1.26-1.24-1.83c-.56-.57-1.27-1.06-2.12-1.48l-2.93-1.46c-.85-.42-1.67-.69-2.47-.79-.79-.11-1.52-.07-2.2.11s-1.29.51-1.83.98c-.54.47-.99,1.06-1.34,1.77-.36.73-.56,1.44-.6,2.15s.07,1.39.33,2.04.68,1.26,1.24,1.82c.56.57,1.27,1.06,2.12,1.49l2.93,1.46c.85.42,1.67.69,2.47.79.79.11,1.52.07,2.2-.11s1.29-.5,1.83-.96c.54-.46.99-1.05,1.35-1.78Z"/>
      <path d="M1271.78,548.43l-4.93.41-.03.08,14.62,6.12-1.24,2.96-19.1-8,1.44-3.45,13.18-1.82,4.93-.41.04-.08-14.62-6.12,1.24-2.96,19.1,8-1.44,3.45-13.18,1.82Z"/>
    </g>
  </g>
  <g id="text_internal_outline">
    <g>
      <path d="M609.91,847.38l-.9-28.62h4.39l.12,13.2-.04,10.54h.29l4.92-11.93,5.17-11.81h5.04l.45,11.85.2,12.01h.29l4.02-10.17,5.58-13.69h4.51l-12.42,28.62h-5.12l-.57-13.74-.25-9.88h-.25l-4.14,9.63-6.07,13.98h-5.21Z"/>
      <path d="M648.45,817.04h4.26l-2.71,13.57h.21c.79-1.64,1.72-2.89,2.79-3.75s2.39-1.29,3.98-1.29c1.78,0,3.11.51,4,1.52.89,1.01,1.33,2.42,1.33,4.22,0,.47-.03.92-.08,1.37-.06.45-.14.95-.25,1.5l-1.93,9.63h2.58l-.7,3.57h-3.24c-.9,0-1.62-.23-2.15-.7-.53-.46-.8-1.13-.8-2.01,0-.16,0-.33.02-.51.01-.18.03-.33.06-.47l1.84-9.22c.16-.82.25-1.57.25-2.25,0-.96-.22-1.69-.66-2.19-.44-.51-1.15-.76-2.13-.76-1.42,0-2.67.6-3.73,1.8-.6.66-1.12,1.42-1.56,2.28-.44.86-.74,1.72-.9,2.56l-2.3,11.48h-4.26l6.07-30.34Z"/>
      <path d="M682.56,847.38c-.96,0-1.72-.25-2.28-.74-.56-.49-.84-1.17-.84-2.05,0-.46.04-.86.12-1.19l.16-.78h-.16c-.88,1.75-1.84,3.06-2.89,3.94-1.05.88-2.4,1.31-4.04,1.31-1.97,0-3.48-.71-4.55-2.13-1.07-1.42-1.6-3.32-1.6-5.7,0-1.86.23-3.66.7-5.41.46-1.75,1.14-3.29,2.03-4.63.89-1.34,1.96-2.41,3.22-3.22,1.26-.81,2.68-1.21,4.26-1.21,1.39,0,2.6.36,3.61,1.09,1.01.72,1.63,1.72,1.84,2.97h.21l.7-3.57h4.26l-3.57,17.75h2.75l-.7,3.57h-3.24ZM674.28,844.22c.87,0,1.65-.19,2.32-.57.67-.38,1.28-.87,1.82-1.48,1.18-1.26,1.95-2.84,2.34-4.76l.86-4.3c.08-.46.05-.93-.08-1.39-.14-.46-.38-.88-.74-1.25-.36-.37-.81-.67-1.37-.9-.56-.23-1.2-.35-1.91-.35-1.59,0-2.86.49-3.81,1.46-.96.97-1.63,2.4-2.01,4.28l-.62,2.99c-.06.33-.1.7-.14,1.11s-.06.78-.06,1.11c0,1.2.28,2.18.84,2.93.56.75,1.41,1.13,2.56,1.13Z"/>
      <path d="M695.27,847.38c-1.31,0-2.28-.29-2.89-.86-.61-.57-.92-1.37-.92-2.38,0-.22.01-.46.04-.74.03-.27.07-.55.12-.82l2.58-12.96h-3.12l.7-3.57h1.6c.79,0,1.33-.16,1.62-.49.29-.33.5-.86.64-1.6l.74-3.73h3.98l-1.15,5.82h4.26l-.7,3.57h-4.31l-2.83,14.19h4.14l-.7,3.57h-3.81Z"/>
      <path d="M729.91,847.38c-.96,0-1.71-.25-2.28-.74s-.84-1.17-.84-2.05c0-.46.04-.86.12-1.19l.16-.78h-.16c-.88,1.75-1.84,3.06-2.89,3.94-1.05.88-2.4,1.31-4.04,1.31-1.97,0-3.48-.71-4.55-2.13s-1.6-3.32-1.6-5.7c0-1.86.23-3.66.7-5.41.46-1.75,1.14-3.29,2.03-4.63.89-1.34,1.96-2.41,3.22-3.22,1.26-.81,2.68-1.21,4.26-1.21,1.39,0,2.6.36,3.61,1.09,1.01.72,1.63,1.72,1.84,2.97h.21l2.5-12.59h4.26l-5.37,26.77h2.75l-.7,3.57h-3.24ZM721.71,844.22c.85,0,1.6-.2,2.25-.59.66-.4,1.26-.88,1.8-1.46,1.2-1.28,1.98-2.86,2.34-4.71l.78-3.9c.25-1.23.03-2.26-.66-3.09-.68-.83-1.83-1.25-3.44-1.25s-2.77.49-3.73,1.46c-.96.97-1.63,2.4-2.01,4.28l-.62,2.99c-.06.33-.1.69-.14,1.09-.04.4-.06.77-.06,1.13,0,1.2.29,2.18.86,2.93.57.75,1.45,1.13,2.62,1.13Z"/>
      <path d="M741.11,847.38c-1.04,0-1.83-.27-2.38-.8-.55-.53-.82-1.22-.82-2.07,0-.27.04-.62.12-1.02l3.49-17.43h4.26l-3.57,17.75h2.75l-.7,3.57h-3.16ZM744.51,822.24c-.79,0-1.37-.16-1.72-.49s-.53-.74-.53-1.23c0-.27.07-.75.21-1.43.14-.63.42-1.15.86-1.58.44-.42,1.13-.64,2.09-.64.79,0,1.37.16,1.72.49s.53.74.53,1.23c0,.27-.07.75-.21,1.44-.14.63-.42,1.15-.86,1.58-.44.42-1.13.64-2.09.64Z"/>
      <path d="M765.05,847.38c-.96,0-1.72-.25-2.28-.74-.56-.49-.84-1.17-.84-2.05,0-.46.04-.86.12-1.19l.16-.78h-.16c-.88,1.75-1.84,3.06-2.89,3.94-1.05.88-2.4,1.31-4.04,1.31-1.97,0-3.48-.71-4.55-2.13s-1.6-3.32-1.6-5.7c0-1.86.23-3.66.7-5.41.46-1.75,1.14-3.29,2.03-4.63.89-1.34,1.96-2.41,3.22-3.22,1.26-.81,2.68-1.21,4.26-1.21,1.39,0,2.6.36,3.61,1.09,1.01.72,1.63,1.72,1.84,2.97h.21l2.5-12.59h4.26l-5.37,26.77h2.75l-.7,3.57h-3.24ZM756.85,844.22c.85,0,1.6-.2,2.25-.59.66-.4,1.26-.88,1.8-1.46,1.2-1.28,1.98-2.86,2.34-4.71l.78-3.9c.25-1.23.03-2.26-.66-3.09-.68-.83-1.83-1.25-3.44-1.25s-2.77.49-3.73,1.46c-.96.97-1.63,2.4-2.01,4.28l-.62,2.99c-.06.33-.1.69-.14,1.09-.04.4-.06.77-.06,1.13,0,1.2.29,2.18.86,2.93.57.75,1.45,1.13,2.62,1.13Z"/>
      <path d="M614.64,896.58l.74-3.69h3.69l4.26-21.24h-3.69l.74-3.69h11.81l-.74,3.69h-3.69l-4.26,21.24h3.69l-.74,3.69h-11.81Z"/>
      <path d="M641.62,896.58l4.26-21.32h4.26l-.9,4.55h.21c.79-1.64,1.7-2.89,2.73-3.75s2.33-1.29,3.92-1.29,2.75.44,3.57,1.33c.82.89,1.28,2.13,1.39,3.71h.21c.76-1.61,1.69-2.86,2.77-3.73,1.08-.87,2.44-1.31,4.08-1.31,1.72,0,3.01.5,3.87,1.5.86,1,1.29,2.38,1.29,4.16,0,.98-.12,2.05-.37,3.2l-1.89,9.39h2.58l-.7,3.57h-3.24c-.93,0-1.66-.23-2.19-.68s-.8-1.11-.8-1.99c0-.35.04-.7.12-1.03l1.85-9.27c.08-.41.15-.81.21-1.19.05-.38.08-.74.08-1.07,0-.93-.21-1.65-.64-2.15s-1.09-.76-1.99-.76c-1.26,0-2.42.6-3.48,1.8-.6.66-1.11,1.42-1.52,2.3-.41.88-.7,1.72-.86,2.54l-2.3,11.48h-4.26l2.58-12.92c.08-.41.15-.81.2-1.21s.08-.77.08-1.13c0-.9-.2-1.61-.59-2.11-.4-.51-1.03-.76-1.91-.76-.71,0-1.37.16-1.97.49-.6.33-1.13.77-1.6,1.31-.63.71-1.16,1.49-1.6,2.34-.44.85-.74,1.68-.9,2.5l-2.3,11.48h-4.26Z"/>
      <path d="M693.53,896.58c-.96,0-1.72-.25-2.28-.74-.56-.49-.84-1.17-.84-2.05,0-.46.04-.86.12-1.19l.16-.78h-.16c-.88,1.75-1.84,3.06-2.89,3.94-1.05.88-2.4,1.31-4.04,1.31-1.97,0-3.48-.71-4.55-2.13-1.07-1.42-1.6-3.32-1.6-5.7,0-1.86.23-3.66.7-5.41.46-1.75,1.14-3.29,2.03-4.63.89-1.34,1.96-2.41,3.22-3.22,1.26-.81,2.68-1.21,4.26-1.21,1.39,0,2.6.36,3.61,1.09,1.01.72,1.63,1.72,1.84,2.97h.21l.7-3.57h4.26l-3.57,17.75h2.75l-.7,3.57h-3.24ZM685.25,893.42c.87,0,1.65-.19,2.32-.57.67-.38,1.28-.87,1.82-1.48,1.18-1.26,1.95-2.84,2.34-4.76l.86-4.3c.08-.46.05-.93-.08-1.39-.14-.46-.38-.88-.74-1.25-.36-.37-.81-.67-1.37-.9-.56-.23-1.2-.35-1.91-.35-1.59,0-2.86.49-3.81,1.46-.96.97-1.63,2.4-2.01,4.28l-.62,2.99c-.06.33-.1.7-.14,1.11s-.06.78-.06,1.11c0,1.2.28,2.18.84,2.93.56.75,1.41,1.13,2.56,1.13Z"/>
      <path d="M706.85,866.24h4.26l-3.69,18.49h.25l3.4-3.61,6.27-5.86h5.04l-9.14,8.61,3.73,9.14h2.58l-.7,3.57h-2.34c-.96,0-1.73-.21-2.32-.64-.59-.42-1.06-1.1-1.42-2.03l-2.91-7.3-3.53,3.32-1.31,6.64h-4.26l6.07-30.34Z"/>
      <path d="M730.88,897.07c-2.76,0-4.86-.79-6.29-2.36-1.44-1.57-2.15-3.79-2.15-6.66,0-1.75.27-3.42.8-5.02.53-1.6,1.29-3.01,2.28-4.24.98-1.23,2.17-2.21,3.57-2.93,1.39-.72,2.95-1.09,4.67-1.09.85,0,1.7.11,2.56.33.86.22,1.63.56,2.32,1.03.68.47,1.24,1.07,1.66,1.81.42.74.63,1.63.63,2.67,0,2.28-1.14,4.02-3.42,5.22-2.28,1.21-5.86,1.86-10.72,1.97-.08.55-.12,1-.12,1.35,0,1.31.36,2.36,1.09,3.16.72.79,1.87,1.19,3.42,1.19,1.17,0,2.24-.26,3.2-.78.96-.52,1.87-1.33,2.75-2.42l2.71,2.24c-1.34,1.66-2.75,2.83-4.22,3.5-1.48.68-3.05,1.02-4.71,1.02ZM733.42,878.17c-1.48,0-2.75.5-3.83,1.51-1.08,1-1.78,2.36-2.11,4.06l-.21,1.07c1.94-.08,3.53-.22,4.76-.41,1.23-.19,2.19-.45,2.89-.78.7-.33,1.17-.73,1.41-1.2.25-.47.37-1,.37-1.61,0-.52-.1-.96-.29-1.3-.19-.34-.44-.62-.76-.83s-.66-.34-1.04-.41c-.38-.07-.78-.1-1.19-.1Z"/>
      <path d="M748.26,887.6l1.35-6.56c2.21-.14,3.98-.64,5.31-1.52,1.33-.88,2.14-2,2.44-3.36.05-.19.09-.44.12-.74.03-.3.04-.56.04-.78,0-1.07-.34-1.89-1-2.48-.67-.59-1.58-.88-2.73-.88-1.39,0-2.51.4-3.36,1.21-.85.81-1.53,1.87-2.05,3.18l-3.57-1.56c.85-2,2.03-3.6,3.55-4.82,1.52-1.22,3.49-1.83,5.92-1.83s4.3.6,5.7,1.8c1.39,1.2,2.09,2.84,2.09,4.92,0,1.12-.21,2.21-.63,3.26-.42,1.05-1.03,2-1.8,2.85-.78.85-1.72,1.57-2.81,2.17-1.09.6-2.3,1.02-3.61,1.27l-.78,3.85h-4.18ZM748.75,897.07c-.88,0-1.52-.19-1.93-.57s-.62-.86-.62-1.43c0-.22.02-.49.06-.8s.09-.58.14-.8c.14-.71.46-1.32.96-1.82.5-.51,1.26-.76,2.28-.76.87,0,1.52.19,1.93.57s.62.86.62,1.43c0,.19-.02.45-.06.76-.04.31-.09.59-.14.84-.14.71-.45,1.32-.94,1.82-.49.51-1.26.76-2.3.76Z"/>
    </g>
    <g>
      <path d="M315.43,393.33l-.9-28.62h4.39l.12,13.2-.04,10.54h.29l4.92-11.93,5.17-11.81h5.04l.45,11.85.21,12.01h.29l4.02-10.17,5.58-13.69h4.51l-12.42,28.62h-5.12l-.57-13.74-.25-9.88h-.25l-4.14,9.63-6.07,13.98h-5.21Z"/>
      <path d="M353.97,362.99h4.26l-2.71,13.57h.21c.79-1.64,1.72-2.89,2.79-3.75,1.07-.86,2.39-1.29,3.98-1.29,1.78,0,3.11.51,4,1.52.89,1.01,1.33,2.42,1.33,4.22,0,.47-.03.92-.08,1.37s-.14.95-.25,1.5l-1.93,9.63h2.58l-.7,3.57h-3.24c-.9,0-1.62-.23-2.15-.7-.53-.46-.8-1.13-.8-2.01,0-.16,0-.33.02-.51.01-.18.03-.33.06-.47l1.84-9.22c.16-.82.25-1.57.25-2.25,0-.96-.22-1.69-.66-2.19-.44-.51-1.15-.76-2.13-.76-1.42,0-2.67.6-3.73,1.8-.6.66-1.12,1.42-1.56,2.28-.44.86-.74,1.72-.9,2.56l-2.3,11.48h-4.26l6.07-30.34Z"/>
      <path d="M388.08,393.33c-.96,0-1.71-.25-2.28-.74s-.84-1.17-.84-2.05c0-.46.04-.86.12-1.19l.16-.78h-.16c-.88,1.75-1.84,3.06-2.89,3.94-1.05.88-2.4,1.31-4.04,1.31-1.97,0-3.48-.71-4.55-2.13s-1.6-3.32-1.6-5.7c0-1.86.23-3.66.7-5.41.46-1.75,1.14-3.29,2.03-4.63.89-1.34,1.96-2.41,3.22-3.22,1.26-.81,2.68-1.21,4.26-1.21,1.39,0,2.6.36,3.61,1.09,1.01.72,1.63,1.72,1.84,2.97h.21l.7-3.57h4.26l-3.57,17.75h2.75l-.7,3.57h-3.24ZM379.8,390.17c.87,0,1.65-.19,2.32-.57.67-.38,1.28-.87,1.82-1.48,1.17-1.26,1.95-2.84,2.34-4.76l.86-4.3c.08-.46.05-.93-.08-1.39-.14-.46-.38-.88-.74-1.25-.36-.37-.81-.67-1.37-.9-.56-.23-1.2-.35-1.91-.35-1.58,0-2.86.49-3.81,1.46-.96.97-1.63,2.4-2.01,4.28l-.62,2.99c-.06.33-.1.7-.14,1.11s-.06.78-.06,1.11c0,1.2.28,2.18.84,2.93.56.75,1.41,1.13,2.56,1.13Z"/>
      <path d="M400.79,393.33c-1.31,0-2.28-.29-2.89-.86-.61-.57-.92-1.37-.92-2.38,0-.22.01-.46.04-.74.03-.27.07-.55.12-.82l2.58-12.96h-3.12l.7-3.57h1.6c.79,0,1.33-.16,1.62-.49.29-.33.5-.86.64-1.6l.74-3.73h3.98l-1.15,5.82h4.26l-.7,3.57h-4.3l-2.83,14.19h4.14l-.7,3.57h-3.81Z"/>
      <path d="M426.25,393.82c-1.69,0-3.27-.33-4.74-.99s-2.63-1.6-3.5-2.83l2.79-2.55c.68.89,1.47,1.58,2.36,2.07.89.49,1.95.73,3.18.73,1.37,0,2.43-.3,3.18-.89.75-.59,1.13-1.39,1.13-2.39,0-.57-.18-1.06-.53-1.48-.36-.42-1.05-.72-2.09-.91l-1.85-.33c-1.72-.3-3.1-.88-4.14-1.72-1.04-.85-1.56-2.14-1.56-3.86,0-.93.17-1.83.51-2.69s.85-1.62,1.54-2.28c.68-.66,1.54-1.18,2.58-1.58,1.04-.4,2.25-.6,3.65-.6,3.17,0,5.63,1.08,7.38,3.25l-2.79,2.55c-.49-.65-1.13-1.18-1.93-1.6s-1.76-.63-2.91-.63c-1.31,0-2.29.28-2.93.85-.64.57-.96,1.3-.96,2.19,0,.59.18,1.09.55,1.5.37.41,1.06.7,2.07.89l1.84.29c1.78.3,3.17.89,4.18,1.77,1.01.88,1.52,2.18,1.52,3.9,0,1.07-.2,2.05-.59,2.94s-.96,1.66-1.7,2.32c-.74.66-1.63,1.17-2.69,1.54-1.05.37-2.23.55-3.55.55Z"/>
      <path d="M444.58,362.99h4.26l-2.71,13.57h.21c.79-1.64,1.72-2.89,2.79-3.75,1.07-.86,2.39-1.29,3.98-1.29,1.78,0,3.11.51,4,1.52.89,1.01,1.33,2.42,1.33,4.22,0,.47-.03.92-.08,1.37-.06.45-.14.95-.25,1.5l-1.93,9.63h2.58l-.7,3.57h-3.24c-.9,0-1.62-.23-2.15-.7-.53-.46-.8-1.13-.8-2.01,0-.16,0-.33.02-.51.01-.18.03-.33.06-.47l1.84-9.22c.16-.82.25-1.57.25-2.25,0-.96-.22-1.69-.66-2.19-.44-.51-1.15-.76-2.13-.76-1.42,0-2.67.6-3.73,1.8-.6.66-1.12,1.42-1.56,2.28-.44.86-.74,1.72-.9,2.56l-2.3,11.48h-4.26l6.07-30.34Z"/>
      <path d="M470.66,393.82c-2.41,0-4.35-.75-5.82-2.25-1.48-1.5-2.21-3.69-2.21-6.56,0-1.83.27-3.57.82-5.21.55-1.64,1.3-3.08,2.28-4.3.97-1.23,2.12-2.2,3.46-2.91,1.34-.71,2.81-1.07,4.43-1.07,2.4,0,4.35.75,5.82,2.25,1.48,1.5,2.21,3.69,2.21,6.56,0,1.86-.27,3.6-.82,5.23-.55,1.63-1.31,3.05-2.28,4.28-.97,1.23-2.13,2.2-3.46,2.91-1.34.71-2.82,1.07-4.43,1.07ZM470.99,390.25c1.34,0,2.51-.49,3.5-1.48s1.69-2.43,2.07-4.33l.7-3.42c.05-.22.1-.47.12-.74s.04-.56.04-.87c0-1.32-.35-2.37-1.04-3.15-.7-.78-1.73-1.17-3.1-1.17s-2.51.5-3.51,1.48-1.69,2.43-2.07,4.33l-.7,3.42c-.05.25-.1.5-.12.76s-.04.54-.04.84c0,1.32.35,2.37,1.05,3.15s1.73,1.17,3.1,1.17Z"/>
      <path d="M492.76,372.01l-2.58,12.96c-.08.38-.14.77-.18,1.15s-.06.72-.06,1.02c0,.96.21,1.7.61,2.21.41.52,1.09.78,2.05.78,1.37,0,2.58-.6,3.65-1.8.63-.71,1.15-1.5,1.58-2.36.42-.86.72-1.71.88-2.56l2.3-11.4h4.26l-3.57,17.75h2.75l-.7,3.57h-3.28c-.96,0-1.7-.25-2.23-.76-.53-.5-.8-1.2-.8-2.07,0-.35.04-.76.12-1.23l.08-.49h-.21c-.79,1.64-1.71,2.89-2.75,3.75-1.04.86-2.32,1.29-3.85,1.29-1.75,0-3.07-.51-3.96-1.52-.89-1.01-1.33-2.42-1.33-4.22,0-.46.03-.93.08-1.39s.14-.97.25-1.52l2.62-13.16h4.26Z"/>
      <path d="M511.66,393.33c-1.04,0-1.83-.27-2.38-.8-.55-.53-.82-1.22-.82-2.07,0-.27.04-.62.12-1.02l5.29-26.45h4.26l-5.37,26.77h2.95l-.7,3.57h-3.36Z"/>
      <path d="M535.6,393.33c-.96,0-1.72-.25-2.28-.74-.56-.49-.84-1.17-.84-2.05,0-.46.04-.86.12-1.19l.16-.78h-.16c-.88,1.75-1.84,3.06-2.89,3.94-1.05.88-2.4,1.31-4.04,1.31-1.97,0-3.49-.71-4.55-2.13-1.07-1.42-1.6-3.32-1.6-5.7,0-1.86.23-3.66.7-5.41.46-1.75,1.14-3.29,2.03-4.63.89-1.34,1.96-2.41,3.22-3.22,1.26-.81,2.68-1.21,4.26-1.21,1.39,0,2.6.36,3.61,1.09,1.01.72,1.63,1.72,1.84,2.97h.21l2.5-12.59h4.26l-5.37,26.77h2.75l-.7,3.57h-3.24ZM527.4,390.17c.85,0,1.6-.2,2.25-.59.66-.4,1.26-.88,1.8-1.46,1.2-1.28,1.98-2.86,2.34-4.71l.78-3.9c.25-1.23.03-2.26-.66-3.09-.68-.83-1.83-1.25-3.44-1.25s-2.77.49-3.73,1.46c-.96.97-1.63,2.4-2.01,4.28l-.61,2.99c-.06.33-.1.69-.14,1.09-.04.4-.06.77-.06,1.13,0,1.2.29,2.18.86,2.93.57.75,1.45,1.13,2.62,1.13Z"/>
      <path d="M352.68,442.53l.74-3.69h3.69l4.26-21.24h-3.69l.74-3.69h11.81l-.74,3.69h-3.69l-4.26,21.24h3.69l-.74,3.69h-11.81Z"/>
      <path d="M379.66,442.53l4.26-21.32h4.26l-.9,4.55h.21c.79-1.64,1.7-2.89,2.73-3.75,1.03-.86,2.33-1.29,3.92-1.29s2.75.44,3.57,1.33c.82.89,1.29,2.13,1.39,3.71h.21c.76-1.61,1.69-2.86,2.77-3.73,1.08-.87,2.44-1.31,4.08-1.31,1.72,0,3.01.5,3.87,1.5.86,1,1.29,2.38,1.29,4.16,0,.98-.12,2.05-.37,3.2l-1.89,9.39h2.58l-.7,3.57h-3.24c-.93,0-1.66-.23-2.19-.68s-.8-1.11-.8-1.99c0-.35.04-.7.12-1.03l1.85-9.27c.08-.41.15-.81.21-1.19.05-.38.08-.74.08-1.07,0-.93-.21-1.65-.64-2.15s-1.09-.76-1.99-.76c-1.26,0-2.42.6-3.49,1.8-.6.66-1.11,1.42-1.52,2.3-.41.88-.7,1.72-.86,2.54l-2.3,11.48h-4.26l2.58-12.92c.08-.41.15-.81.2-1.21s.08-.77.08-1.13c0-.9-.2-1.61-.59-2.11-.4-.51-1.03-.76-1.91-.76-.71,0-1.37.16-1.97.49-.6.33-1.13.77-1.6,1.31-.63.71-1.16,1.49-1.6,2.34-.44.85-.74,1.68-.9,2.5l-2.3,11.48h-4.26Z"/>
      <path d="M431.56,442.53c-.96,0-1.72-.25-2.28-.74-.56-.49-.84-1.17-.84-2.05,0-.46.04-.86.12-1.19l.16-.78h-.16c-.88,1.75-1.84,3.06-2.89,3.94-1.05.88-2.4,1.31-4.04,1.31-1.97,0-3.49-.71-4.55-2.13-1.07-1.42-1.6-3.32-1.6-5.7,0-1.86.23-3.66.7-5.41.46-1.75,1.14-3.29,2.03-4.63.89-1.34,1.96-2.41,3.22-3.22,1.26-.81,2.68-1.21,4.26-1.21,1.39,0,2.6.36,3.61,1.09,1.01.72,1.63,1.72,1.84,2.97h.21l.7-3.57h4.26l-3.57,17.75h2.75l-.7,3.57h-3.24ZM423.28,439.37c.87,0,1.65-.19,2.32-.57.67-.38,1.28-.87,1.82-1.48,1.18-1.26,1.95-2.84,2.34-4.76l.86-4.3c.08-.46.05-.93-.08-1.39-.14-.46-.38-.88-.74-1.25-.36-.37-.81-.67-1.37-.9-.56-.23-1.2-.35-1.91-.35-1.59,0-2.86.49-3.81,1.46-.96.97-1.63,2.4-2.01,4.28l-.62,2.99c-.05.33-.1.7-.14,1.11s-.06.78-.06,1.11c0,1.2.28,2.18.84,2.93.56.75,1.41,1.13,2.56,1.13Z"/>
      <path d="M444.89,412.19h4.26l-3.69,18.49h.25l3.4-3.61,6.27-5.86h5.04l-9.14,8.61,3.73,9.14h2.58l-.7,3.57h-2.34c-.96,0-1.73-.21-2.32-.64-.59-.42-1.06-1.1-1.42-2.03l-2.91-7.3-3.53,3.32-1.31,6.64h-4.26l6.07-30.34Z"/>
      <path d="M468.91,443.02c-2.76,0-4.86-.79-6.29-2.36-1.44-1.57-2.15-3.79-2.15-6.66,0-1.75.27-3.42.8-5.02.53-1.6,1.29-3.01,2.28-4.24.98-1.23,2.17-2.21,3.57-2.93,1.39-.72,2.95-1.09,4.67-1.09.85,0,1.7.11,2.56.33.86.22,1.63.56,2.32,1.03.68.47,1.24,1.07,1.66,1.81.42.74.63,1.63.63,2.67,0,2.28-1.14,4.02-3.42,5.22-2.28,1.21-5.86,1.86-10.72,1.97-.08.55-.12,1-.12,1.35,0,1.31.36,2.36,1.09,3.16.72.79,1.87,1.19,3.42,1.19,1.17,0,2.24-.26,3.2-.78.96-.52,1.87-1.33,2.75-2.42l2.71,2.24c-1.34,1.66-2.75,2.83-4.22,3.5-1.48.68-3.05,1.02-4.71,1.02ZM471.46,424.12c-1.48,0-2.75.5-3.83,1.51-1.08,1-1.78,2.36-2.11,4.06l-.21,1.07c1.94-.08,3.53-.22,4.76-.41,1.23-.19,2.19-.45,2.89-.78.7-.33,1.17-.73,1.41-1.2.25-.47.37-1,.37-1.61,0-.52-.1-.96-.29-1.3-.19-.34-.44-.62-.76-.83s-.66-.34-1.04-.41c-.38-.07-.78-.1-1.19-.1Z"/>
      <path d="M486.3,433.55l1.35-6.56c2.21-.14,3.98-.64,5.31-1.52,1.33-.88,2.14-2,2.44-3.36.05-.19.09-.44.12-.74.03-.3.04-.56.04-.78,0-1.07-.34-1.89-1-2.48-.67-.59-1.58-.88-2.73-.88-1.39,0-2.51.4-3.36,1.21-.85.81-1.53,1.87-2.05,3.18l-3.57-1.56c.85-2,2.03-3.6,3.55-4.82,1.52-1.22,3.49-1.83,5.92-1.83s4.3.6,5.7,1.8c1.39,1.2,2.09,2.84,2.09,4.92,0,1.12-.21,2.21-.63,3.26-.42,1.05-1.03,2-1.8,2.85-.78.85-1.72,1.57-2.81,2.17-1.09.6-2.3,1.02-3.61,1.27l-.78,3.85h-4.18ZM486.79,443.02c-.88,0-1.52-.19-1.93-.57s-.62-.86-.62-1.43c0-.22.02-.49.06-.8s.09-.58.14-.8c.14-.71.46-1.32.96-1.82.5-.51,1.26-.76,2.28-.76.87,0,1.52.19,1.93.57s.62.86.62,1.43c0,.19-.02.45-.06.76-.04.31-.09.59-.14.84-.14.71-.45,1.32-.94,1.82-.49.51-1.26.76-2.3.76Z"/>
    </g>
    <g>
      <path d="M863.37,381.02h-12.55l-2.54,12.46h-4.43l5.74-28.62h4.43l-2.42,12.22h12.55l2.42-12.22h4.43l-5.74,28.62h-4.43l2.54-12.46Z"/>
      <path d="M880.63,393.98c-2.41,0-4.35-.75-5.82-2.25-1.48-1.5-2.21-3.69-2.21-6.56,0-1.83.27-3.57.82-5.21.55-1.64,1.31-3.08,2.28-4.3.97-1.23,2.12-2.2,3.46-2.91,1.34-.71,2.81-1.07,4.43-1.07,2.41,0,4.35.75,5.82,2.25s2.21,3.69,2.21,6.56c0,1.86-.27,3.6-.82,5.23-.55,1.63-1.3,3.05-2.28,4.28-.97,1.23-2.12,2.2-3.46,2.91-1.34.71-2.82,1.07-4.43,1.07ZM880.96,390.41c1.34,0,2.51-.49,3.51-1.48,1-.99,1.69-2.43,2.07-4.33l.7-3.42c.05-.22.1-.47.12-.74.03-.27.04-.56.04-.87,0-1.32-.35-2.37-1.05-3.15-.7-.78-1.73-1.17-3.1-1.17s-2.51.5-3.5,1.48c-1,.99-1.69,2.43-2.07,4.33l-.7,3.42c-.06.25-.1.5-.12.76-.03.26-.04.54-.04.84,0,1.32.35,2.37,1.05,3.15.7.78,1.73,1.17,3.09,1.17Z"/>
      <path d="M895.39,372.17h4.18l.33,9.23.21,7.63h.21l2.99-6.64,4.71-10.21h4.06l.74,9.43.49,7.42h.21l2.87-6.85,4.35-10h4.18l-9.72,21.32h-4.76l-.86-9.63-.41-6.15h-.21l-2.58,5.78-4.71,10h-4.92l-1.35-21.32Z"/>
      <path d="M942.17,393.98c-1.7,0-3.27-.33-4.74-.99-1.46-.66-2.63-1.6-3.51-2.83l2.79-2.55c.68.89,1.47,1.58,2.36,2.07.89.49,1.95.73,3.18.73,1.37,0,2.42-.3,3.18-.89.75-.59,1.13-1.39,1.13-2.39,0-.57-.18-1.06-.53-1.48s-1.05-.72-2.09-.91l-1.84-.33c-1.72-.3-3.1-.88-4.14-1.72-1.04-.85-1.56-2.14-1.56-3.86,0-.93.17-1.83.51-2.69s.85-1.62,1.54-2.28,1.54-1.18,2.58-1.58c1.04-.4,2.25-.6,3.65-.6,3.17,0,5.63,1.08,7.38,3.25l-2.79,2.55c-.49-.65-1.13-1.18-1.93-1.6-.79-.42-1.76-.63-2.91-.63-1.31,0-2.29.28-2.93.85-.64.57-.96,1.3-.96,2.19,0,.59.18,1.09.55,1.5.37.41,1.06.7,2.07.89l1.84.29c1.78.3,3.17.89,4.18,1.77,1.01.88,1.52,2.18,1.52,3.9,0,1.07-.2,2.05-.59,2.94-.4.89-.96,1.66-1.7,2.32-.74.66-1.63,1.17-2.68,1.54-1.05.37-2.24.55-3.55.55Z"/>
      <path d="M960.5,363.15h4.26l-2.71,13.57h.21c.79-1.64,1.72-2.89,2.79-3.75,1.07-.86,2.39-1.29,3.98-1.29,1.78,0,3.11.51,4,1.52.89,1.01,1.33,2.42,1.33,4.22,0,.47-.03.92-.08,1.37s-.14.95-.25,1.5l-1.93,9.63h2.58l-.7,3.57h-3.24c-.9,0-1.62-.23-2.15-.7-.53-.46-.8-1.13-.8-2.01,0-.16,0-.33.02-.51.01-.18.03-.33.06-.47l1.84-9.22c.16-.82.25-1.57.25-2.25,0-.96-.22-1.69-.66-2.19-.44-.51-1.15-.76-2.13-.76-1.42,0-2.67.6-3.73,1.8-.6.66-1.12,1.42-1.56,2.28-.44.86-.74,1.72-.9,2.56l-2.3,11.48h-4.26l6.07-30.34Z"/>
      <path d="M986.57,393.98c-2.41,0-4.35-.75-5.82-2.25-1.48-1.5-2.21-3.69-2.21-6.56,0-1.83.27-3.57.82-5.21.55-1.64,1.3-3.08,2.28-4.3.97-1.23,2.12-2.2,3.46-2.91,1.34-.71,2.81-1.07,4.43-1.07,2.4,0,4.35.75,5.82,2.25,1.48,1.5,2.21,3.69,2.21,6.56,0,1.86-.27,3.6-.82,5.23-.55,1.63-1.31,3.05-2.28,4.28-.97,1.23-2.13,2.2-3.46,2.91-1.34.71-2.82,1.07-4.43,1.07ZM986.9,390.41c1.34,0,2.51-.49,3.5-1.48s1.69-2.43,2.07-4.33l.7-3.42c.05-.22.1-.47.12-.74s.04-.56.04-.87c0-1.32-.35-2.37-1.04-3.15-.7-.78-1.73-1.17-3.1-1.17s-2.51.5-3.51,1.48-1.69,2.43-2.07,4.33l-.7,3.42c-.05.25-.1.5-.12.76s-.04.54-.04.84c0,1.32.35,2.37,1.05,3.15s1.73,1.17,3.1,1.17Z"/>
      <path d="M1008.67,372.17l-2.58,12.96c-.08.38-.14.77-.18,1.15s-.06.72-.06,1.02c0,.96.21,1.7.62,2.21s1.09.78,2.05.78c1.37,0,2.58-.6,3.65-1.8.63-.71,1.15-1.5,1.58-2.36s.72-1.71.88-2.56l2.3-11.4h4.26l-3.57,17.75h2.75l-.7,3.57h-3.28c-.96,0-1.7-.25-2.23-.76-.53-.5-.8-1.2-.8-2.07,0-.35.04-.76.12-1.23l.08-.49h-.21c-.79,1.64-1.71,2.89-2.75,3.75-1.04.86-2.32,1.29-3.85,1.29-1.75,0-3.07-.51-3.96-1.52-.89-1.01-1.33-2.42-1.33-4.22,0-.46.03-.93.08-1.39.05-.46.14-.97.25-1.52l2.62-13.16h4.26Z"/>
      <path d="M1027.57,393.49c-1.04,0-1.83-.27-2.38-.8-.55-.53-.82-1.22-.82-2.07,0-.27.04-.62.12-1.02l5.29-26.45h4.26l-5.37,26.77h2.95l-.7,3.57h-3.36Z"/>
      <path d="M1051.51,393.49c-.96,0-1.72-.25-2.28-.74-.56-.49-.84-1.17-.84-2.05,0-.46.04-.86.12-1.19l.16-.78h-.16c-.88,1.75-1.84,3.06-2.89,3.94-1.05.88-2.4,1.31-4.04,1.31-1.97,0-3.49-.71-4.55-2.13-1.07-1.42-1.6-3.32-1.6-5.7,0-1.86.23-3.66.7-5.41.46-1.75,1.14-3.29,2.03-4.63.89-1.34,1.96-2.41,3.22-3.22,1.26-.81,2.68-1.21,4.26-1.21,1.39,0,2.6.36,3.61,1.09,1.01.72,1.63,1.72,1.84,2.97h.21l2.5-12.59h4.26l-5.37,26.77h2.75l-.7,3.57h-3.24ZM1043.31,390.33c.85,0,1.6-.2,2.25-.59.66-.4,1.26-.88,1.8-1.46,1.2-1.28,1.98-2.86,2.34-4.71l.78-3.9c.25-1.23.03-2.26-.66-3.09-.68-.83-1.83-1.25-3.44-1.25s-2.77.49-3.73,1.46c-.96.97-1.63,2.4-2.01,4.28l-.61,2.99c-.06.33-.1.69-.14,1.09-.04.4-.06.77-.06,1.13,0,1.2.29,2.18.86,2.93.57.75,1.45,1.13,2.62,1.13Z"/>
      <path d="M859.66,442.69l.74-3.69h3.69l4.26-21.24h-3.69l.74-3.69h11.81l-.74,3.69h-3.69l-4.26,21.24h3.69l-.74,3.69h-11.81Z"/>
      <path d="M886.63,442.69l4.26-21.32h4.26l-.9,4.55h.21c.79-1.64,1.7-2.89,2.73-3.75,1.02-.86,2.33-1.29,3.92-1.29s2.75.44,3.57,1.33c.82.89,1.28,2.13,1.39,3.71h.21c.76-1.61,1.69-2.86,2.77-3.73,1.08-.87,2.44-1.31,4.08-1.31,1.72,0,3.01.5,3.88,1.5.86,1,1.29,2.38,1.29,4.16,0,.98-.12,2.05-.37,3.2l-1.89,9.39h2.58l-.7,3.57h-3.24c-.93,0-1.66-.23-2.19-.68s-.8-1.11-.8-1.99c0-.35.04-.7.12-1.03l1.84-9.27c.08-.41.15-.81.21-1.19s.08-.74.08-1.07c0-.93-.21-1.65-.64-2.15s-1.09-.76-1.99-.76c-1.26,0-2.42.6-3.48,1.8-.6.66-1.11,1.42-1.52,2.3-.41.88-.7,1.72-.86,2.54l-2.3,11.48h-4.26l2.58-12.92c.08-.41.15-.81.21-1.21s.08-.77.08-1.13c0-.9-.2-1.61-.59-2.11s-1.03-.76-1.91-.76c-.71,0-1.37.16-1.97.49-.6.33-1.13.77-1.6,1.31-.63.71-1.16,1.49-1.6,2.34-.44.85-.74,1.68-.9,2.5l-2.3,11.48h-4.26Z"/>
      <path d="M938.54,442.69c-.96,0-1.71-.25-2.28-.74s-.84-1.17-.84-2.05c0-.46.04-.86.12-1.19l.16-.78h-.16c-.88,1.75-1.84,3.06-2.89,3.94-1.05.88-2.4,1.31-4.04,1.31-1.97,0-3.48-.71-4.55-2.13s-1.6-3.32-1.6-5.7c0-1.86.23-3.66.7-5.41.46-1.75,1.14-3.29,2.03-4.63.89-1.34,1.96-2.41,3.22-3.22,1.26-.81,2.68-1.21,4.26-1.21,1.39,0,2.6.36,3.61,1.09,1.01.72,1.63,1.72,1.84,2.97h.21l.7-3.57h4.26l-3.57,17.75h2.75l-.7,3.57h-3.24ZM930.26,439.53c.87,0,1.65-.19,2.32-.57.67-.38,1.28-.87,1.82-1.48,1.17-1.26,1.95-2.84,2.34-4.76l.86-4.3c.08-.46.05-.93-.08-1.39-.14-.46-.38-.88-.74-1.25-.36-.37-.81-.67-1.37-.9-.56-.23-1.2-.35-1.91-.35-1.58,0-2.86.49-3.81,1.46-.96.97-1.63,2.4-2.01,4.28l-.62,2.99c-.06.33-.1.7-.14,1.11s-.06.78-.06,1.11c0,1.2.28,2.18.84,2.93.56.75,1.41,1.13,2.56,1.13Z"/>
      <path d="M951.87,412.35h4.26l-3.69,18.49h.25l3.4-3.61,6.27-5.86h5.04l-9.14,8.61,3.73,9.14h2.58l-.7,3.57h-2.34c-.96,0-1.73-.21-2.32-.64-.59-.42-1.06-1.1-1.41-2.03l-2.91-7.3-3.53,3.32-1.31,6.64h-4.26l6.07-30.34Z"/>
      <path d="M975.89,443.18c-2.76,0-4.86-.79-6.29-2.36-1.43-1.57-2.15-3.79-2.15-6.66,0-1.75.27-3.42.8-5.02.53-1.6,1.29-3.01,2.28-4.24.98-1.23,2.17-2.21,3.57-2.93,1.39-.72,2.95-1.09,4.67-1.09.85,0,1.7.11,2.56.33.86.22,1.63.56,2.32,1.03.68.47,1.24,1.07,1.66,1.81.42.74.64,1.63.64,2.67,0,2.28-1.14,4.02-3.42,5.22s-5.86,1.86-10.72,1.97c-.08.55-.12,1-.12,1.35,0,1.31.36,2.36,1.09,3.16.72.79,1.87,1.19,3.42,1.19,1.17,0,2.24-.26,3.2-.78s1.87-1.33,2.75-2.42l2.71,2.24c-1.34,1.66-2.75,2.83-4.22,3.5-1.48.68-3.05,1.02-4.71,1.02ZM978.43,424.28c-1.48,0-2.75.5-3.83,1.51s-1.78,2.36-2.11,4.06l-.21,1.07c1.94-.08,3.53-.22,4.76-.41,1.23-.19,2.19-.45,2.89-.78s1.17-.73,1.42-1.2c.25-.47.37-1,.37-1.61,0-.52-.1-.96-.29-1.3-.19-.34-.45-.62-.76-.83-.31-.21-.66-.34-1.05-.41-.38-.07-.78-.1-1.19-.1Z"/>
      <path d="M1001.35,442.69c-1.04,0-1.83-.27-2.38-.8-.55-.53-.82-1.22-.82-2.07,0-.27.04-.62.12-1.02l3.49-17.43h4.26l-3.57,17.75h2.75l-.7,3.57h-3.16ZM1004.75,417.55c-.79,0-1.37-.16-1.72-.49s-.53-.74-.53-1.23c0-.27.07-.75.21-1.43.14-.63.42-1.15.86-1.58.44-.42,1.13-.64,2.09-.64.79,0,1.37.16,1.72.49s.53.74.53,1.23c0,.27-.07.75-.21,1.44-.14.63-.42,1.15-.86,1.58-.44.42-1.13.64-2.09.64Z"/>
      <path d="M1013.98,442.69c-1.31,0-2.28-.29-2.89-.86-.62-.57-.92-1.37-.92-2.38,0-.22.01-.46.04-.74s.07-.55.12-.82l2.58-12.96h-3.12l.7-3.57h1.6c.79,0,1.33-.16,1.62-.49.29-.33.5-.86.64-1.6l.74-3.73h3.98l-1.15,5.82h4.26l-.7,3.57h-4.31l-2.83,14.19h4.14l-.7,3.57h-3.81Z"/>
      <path d="M1027.71,433.71l1.35-6.56c2.21-.14,3.98-.64,5.31-1.52,1.32-.88,2.14-2,2.44-3.36.05-.19.1-.44.12-.74.03-.3.04-.56.04-.78,0-1.07-.34-1.89-1.01-2.48s-1.58-.88-2.73-.88c-1.39,0-2.51.4-3.36,1.21-.85.81-1.53,1.87-2.05,3.18l-3.57-1.56c.85-2,2.03-3.6,3.55-4.82s3.49-1.83,5.92-1.83,4.3.6,5.7,1.8,2.09,2.84,2.09,4.92c0,1.12-.21,2.21-.64,3.26-.42,1.05-1.02,2-1.8,2.85-.78.85-1.72,1.57-2.81,2.17-1.09.6-2.3,1.02-3.61,1.27l-.78,3.85h-4.18ZM1028.21,443.18c-.88,0-1.52-.19-1.93-.57s-.62-.86-.62-1.43c0-.22.02-.49.06-.8s.09-.58.14-.8c.14-.71.46-1.32.96-1.82s1.26-.76,2.28-.76c.88,0,1.52.19,1.93.57s.62.86.62,1.43c0,.19-.02.45-.06.76-.04.31-.09.59-.14.84-.14.71-.45,1.32-.94,1.82-.49.51-1.26.76-2.3.76Z"/>
    </g>
  </g>
  <g id="text_main_outline">
    <g>
      <path d="M593.54,1140.48h-.12l-2.04,4.08-5.44,9.88-5.32-9.84-2.12-4.4h-.12v18.6h-5.72v-27.92h6.44l6.84,13.08h.08l6.76-13.08h6.48v27.92h-5.72v-18.32Z"/>
      <path d="M616.62,1159.28c-1.84,0-3.52-.31-5.04-.92-1.52-.61-2.81-1.53-3.88-2.74-1.07-1.21-1.89-2.72-2.48-4.52-.59-1.8-.88-3.89-.88-6.26s.29-4.46.88-6.26c.59-1.8,1.41-3.31,2.48-4.52,1.07-1.21,2.36-2.13,3.88-2.74,1.52-.61,3.2-.92,5.04-.92s3.52.31,5.04.92c1.52.61,2.81,1.53,3.88,2.74,1.07,1.21,1.89,2.72,2.48,4.52.59,1.8.88,3.89.88,6.26s-.29,4.46-.88,6.26c-.59,1.8-1.41,3.31-2.48,4.52-1.07,1.21-2.36,2.13-3.88,2.74-1.52.61-3.2.92-5.04.92ZM616.62,1153.88c1.84,0,3.27-.6,4.3-1.8,1.03-1.2,1.54-2.92,1.54-5.16v-4.16c0-2.24-.51-3.96-1.54-5.16-1.03-1.2-2.46-1.8-4.3-1.8s-3.27.6-4.3,1.8c-1.03,1.2-1.54,2.92-1.54,5.16v4.16c0,2.24.51,3.96,1.54,5.16,1.03,1.2,2.46,1.8,4.3,1.8Z"/>
      <path d="M633.98,1158.8v-27.92h6.08v22.52h10.64v5.4h-16.72Z"/>
      <path d="M655.18,1158.8v-27.92h19v5.4h-12.92v5.68h11.08v5.4h-11.08v6.04h12.92v5.4h-19Z"/>
      <path d="M690.74,1159.28c-1.89,0-3.6-.3-5.12-.9-1.52-.6-2.81-1.49-3.88-2.68-1.07-1.19-1.89-2.67-2.48-4.44-.59-1.77-.88-3.85-.88-6.22s.29-4.43.88-6.26c.59-1.83,1.41-3.36,2.48-4.6,1.07-1.24,2.36-2.18,3.88-2.82,1.52-.64,3.23-.96,5.12-.96,2.59,0,4.72.53,6.4,1.58,1.68,1.05,3.03,2.71,4.04,4.98l-5.24,2.72c-.37-1.17-.95-2.11-1.74-2.82-.79-.71-1.94-1.06-3.46-1.06-1.79,0-3.22.58-4.3,1.74s-1.62,2.85-1.62,5.06v4.48c0,2.21.54,3.9,1.62,5.06s2.51,1.74,4.3,1.74c1.49,0,2.69-.41,3.58-1.22.89-.81,1.55-1.79,1.98-2.94l4.96,2.88c-1.04,2.13-2.41,3.78-4.1,4.94s-3.83,1.74-6.42,1.74Z"/>
      <path d="M711.26,1130.88v17.12c0,1.97.39,3.45,1.16,4.42s2.07,1.46,3.88,1.46,3.11-.49,3.88-1.46,1.16-2.45,1.16-4.42v-17.12h5.92v16.48c0,2.05-.19,3.83-.58,5.34s-1.02,2.75-1.9,3.72-2.01,1.69-3.4,2.16c-1.39.47-3.08.7-5.08.7s-3.69-.23-5.08-.7c-1.39-.47-2.52-1.19-3.4-2.16-.88-.97-1.51-2.21-1.9-3.72s-.58-3.29-.58-5.34v-16.48h5.92Z"/>
      <path d="M733.26,1158.8v-27.92h6.08v22.52h10.64v5.4h-16.72Z"/>
      <path d="M772.34,1158.8l-2-6.64h-9.32l-2,6.64h-6.16l9.2-27.92h7.52l9.08,27.92h-6.32ZM765.74,1136.4h-.2l-3.08,10.6h6.4l-3.12-10.6Z"/>
      <path d="M788.62,1158.8h-6.08v-27.92h13.24c1.28,0,2.44.21,3.48.64,1.04.43,1.93,1.03,2.66,1.82.73.79,1.3,1.73,1.7,2.82.4,1.09.6,2.31.6,3.64,0,1.89-.42,3.55-1.26,4.96-.84,1.41-2.11,2.44-3.82,3.08l5.48,10.96h-6.76l-4.88-10.24h-4.36v10.24ZM795.02,1143.44c.91,0,1.62-.23,2.14-.7.52-.47.78-1.15.78-2.06v-1.76c0-.91-.26-1.59-.78-2.06-.52-.47-1.23-.7-2.14-.7h-6.4v7.28h6.4Z"/>
      <path d="M594.22,1207.28c-2.45,0-4.53-.42-6.24-1.26s-3.16-1.93-4.36-3.26l4-4.04c1.89,2.11,4.23,3.17,7,3.17,1.49,0,2.6-.3,3.32-.91.72-.61,1.08-1.41,1.08-2.42,0-.77-.21-1.41-.64-1.92-.43-.51-1.29-.87-2.6-1.05l-2.76-.36c-2.96-.37-5.13-1.27-6.5-2.68-1.37-1.42-2.06-3.3-2.06-5.65,0-1.25.24-2.4.72-3.44s1.17-1.94,2.06-2.68c.89-.75,1.99-1.33,3.28-1.74,1.29-.41,2.77-.62,4.42-.62,2.11,0,3.96.33,5.56,1,1.6.67,2.97,1.64,4.12,2.92l-4.04,4.09c-.67-.77-1.47-1.39-2.42-1.88-.95-.49-2.14-.73-3.58-.73-1.36,0-2.37.24-3.04.71-.67.47-1,1.13-1,1.98,0,.95.26,1.64.78,2.06.52.42,1.37.73,2.54.91l2.76.44c2.88.45,5.01,1.34,6.4,2.66,1.39,1.32,2.08,3.2,2.08,5.63,0,1.33-.24,2.56-.72,3.68s-1.18,2.08-2.1,2.88c-.92.8-2.06,1.42-3.42,1.86-1.36.44-2.91.66-4.64.66Z"/>
      <path d="M610.14,1206.8v-27.92h13.2c1.31,0,2.48.22,3.52.66,1.04.44,1.93,1.05,2.66,1.82.73.77,1.3,1.71,1.7,2.82.4,1.11.6,2.31.6,3.62s-.2,2.55-.6,3.64c-.4,1.09-.97,2.03-1.7,2.8-.73.77-1.62,1.38-2.66,1.82-1.04.44-2.21.66-3.52.66h-7.12v10.08h-6.08ZM616.22,1191.44h6.4c.91,0,1.62-.23,2.14-.7s.78-1.15.78-2.06v-1.76c0-.91-.26-1.59-.78-2.06-.52-.47-1.23-.7-2.14-.7h-6.4v7.28Z"/>
      <path d="M636.38,1206.8v-27.92h19v5.4h-12.92v5.68h11.08v5.4h-11.08v6.04h12.92v5.4h-19Z"/>
      <path d="M671.94,1207.28c-1.89,0-3.6-.3-5.12-.9-1.52-.6-2.81-1.49-3.88-2.68-1.07-1.19-1.89-2.67-2.48-4.44-.59-1.77-.88-3.85-.88-6.22s.29-4.43.88-6.26c.59-1.83,1.41-3.36,2.48-4.6,1.07-1.24,2.36-2.18,3.88-2.82,1.52-.64,3.23-.96,5.12-.96,2.59,0,4.72.53,6.4,1.58,1.68,1.05,3.03,2.71,4.04,4.98l-5.24,2.72c-.37-1.17-.95-2.11-1.74-2.82-.79-.71-1.94-1.06-3.46-1.06-1.79,0-3.22.58-4.3,1.74s-1.62,2.85-1.62,5.06v4.48c0,2.21.54,3.9,1.62,5.06s2.51,1.74,4.3,1.74c1.49,0,2.69-.41,3.58-1.22.89-.81,1.55-1.79,1.98-2.94l4.96,2.88c-1.04,2.13-2.41,3.78-4.1,4.94s-3.83,1.74-6.42,1.74Z"/>
      <path d="M698.34,1184.28v22.52h-6.08v-22.52h-7.56v-5.4h21.2v5.4h-7.56Z"/>
      <path d="M716.14,1206.8h-6.08v-27.92h13.24c1.28,0,2.44.21,3.48.64,1.04.43,1.93,1.03,2.66,1.82.73.79,1.3,1.73,1.7,2.82.4,1.09.6,2.31.6,3.64,0,1.89-.42,3.55-1.26,4.96-.84,1.41-2.11,2.44-3.82,3.08l5.48,10.96h-6.76l-4.88-10.24h-4.36v10.24ZM722.54,1191.44c.91,0,1.62-.23,2.14-.7.52-.47.78-1.15.78-2.06v-1.76c0-.91-.26-1.59-.78-2.06-.52-.47-1.23-.7-2.14-.7h-6.4v7.28h6.4Z"/>
      <path d="M742.22,1178.88v17.12c0,1.97.39,3.45,1.16,4.42s2.07,1.46,3.88,1.46,3.11-.49,3.88-1.46,1.16-2.45,1.16-4.42v-17.12h5.92v16.48c0,2.05-.19,3.83-.58,5.34s-1.02,2.75-1.9,3.72-2.01,1.69-3.4,2.16c-1.39.47-3.08.7-5.08.7s-3.69-.23-5.08-.7c-1.39-.47-2.52-1.19-3.4-2.16-.88-.97-1.51-2.21-1.9-3.72s-.58-3.29-.58-5.34v-16.48h5.92Z"/>
      <path d="M785.1,1188.48h-.12l-2.04,4.08-5.44,9.88-5.32-9.84-2.12-4.4h-.12v18.6h-5.72v-27.92h6.44l6.84,13.08h.08l6.76-13.08h6.48v27.92h-5.72v-18.32Z"/>
    </g>
    <g>
      <path d="M1120.42,251.8h-6.08v-27.92h13.24c1.28,0,2.44.21,3.48.64,1.04.43,1.93,1.03,2.66,1.82.73.79,1.3,1.73,1.7,2.82.4,1.09.6,2.31.6,3.64,0,1.89-.42,3.55-1.26,4.96-.84,1.41-2.11,2.44-3.82,3.08l5.48,10.96h-6.76l-4.88-10.24h-4.36v10.24ZM1126.82,236.44c.91,0,1.62-.23,2.14-.7.52-.47.78-1.15.78-2.06v-1.76c0-.91-.26-1.59-.78-2.06-.52-.47-1.23-.7-2.14-.7h-6.4v7.28h6.4Z"/>
      <path d="M1141.3,251.8v-27.92h19v5.4h-12.92v5.68h11.08v5.4h-11.08v6.04h12.92v5.4h-19Z"/>
      <path d="M1182.78,251.8l-2-6.64h-9.32l-2,6.64h-6.16l9.2-27.92h7.52l9.08,27.92h-6.32ZM1176.18,229.4h-.2l-3.08,10.6h6.4l-3.12-10.6Z"/>
      <path d="M1203.06,252.28c-1.89,0-3.6-.3-5.12-.9-1.52-.6-2.81-1.49-3.88-2.68s-1.89-2.67-2.48-4.44c-.59-1.77-.88-3.85-.88-6.22s.29-4.43.88-6.26c.59-1.83,1.41-3.36,2.48-4.6s2.36-2.18,3.88-2.82c1.52-.64,3.23-.96,5.12-.96,2.59,0,4.72.53,6.4,1.58,1.68,1.05,3.03,2.71,4.04,4.98l-5.24,2.72c-.37-1.17-.95-2.11-1.74-2.82-.79-.71-1.94-1.06-3.46-1.06-1.79,0-3.22.58-4.3,1.74s-1.62,2.85-1.62,5.06v4.48c0,2.21.54,3.9,1.62,5.06s2.51,1.74,4.3,1.74c1.49,0,2.69-.41,3.58-1.22s1.55-1.79,1.98-2.94l4.96,2.88c-1.04,2.13-2.41,3.78-4.1,4.94s-3.83,1.74-6.42,1.74Z"/>
      <path d="M1229.46,229.28v22.52h-6.08v-22.52h-7.56v-5.4h21.2v5.4h-7.56Z"/>
      <path d="M1239.94,251.8v-4.84h3.6v-18.24h-3.6v-4.84h13.28v4.84h-3.6v18.24h3.6v4.84h-13.28Z"/>
      <path d="M1269.5,252.28c-1.84,0-3.52-.31-5.04-.92-1.52-.61-2.81-1.53-3.88-2.74-1.07-1.21-1.89-2.72-2.48-4.52-.59-1.8-.88-3.89-.88-6.26s.29-4.46.88-6.26c.59-1.8,1.41-3.31,2.48-4.52,1.07-1.21,2.36-2.13,3.88-2.74,1.52-.61,3.2-.92,5.04-.92s3.52.31,5.04.92c1.52.61,2.81,1.53,3.88,2.74,1.07,1.21,1.89,2.72,2.48,4.52s.88,3.89.88,6.26-.29,4.46-.88,6.26-1.41,3.31-2.48,4.52c-1.07,1.21-2.36,2.13-3.88,2.74-1.52.61-3.2.92-5.04.92ZM1269.5,246.88c1.84,0,3.27-.6,4.3-1.8,1.03-1.2,1.54-2.92,1.54-5.16v-4.16c0-2.24-.51-3.96-1.54-5.16-1.03-1.2-2.46-1.8-4.3-1.8s-3.27.6-4.3,1.8c-1.03,1.2-1.54,2.92-1.54,5.16v4.16c0,2.24.51,3.96,1.54,5.16,1.03,1.2,2.46,1.8,4.3,1.8Z"/>
      <path d="M1295.38,238.6l-2.68-5.6h-.12v18.8h-5.72v-27.92h6.64l7.64,13.2,2.68,5.6h.12v-18.8h5.72v27.92h-6.64l-7.64-13.2Z"/>
      <path d="M1100.86,300.28c-1.89,0-3.6-.3-5.12-.9-1.52-.6-2.81-1.49-3.88-2.68s-1.89-2.67-2.48-4.44c-.59-1.77-.88-3.85-.88-6.22s.29-4.43.88-6.26c.59-1.83,1.41-3.36,2.48-4.6s2.36-2.18,3.88-2.82c1.52-.64,3.23-.96,5.12-.96,2.59,0,4.72.53,6.4,1.58,1.68,1.05,3.03,2.71,4.04,4.98l-5.24,2.72c-.37-1.17-.95-2.11-1.74-2.82-.79-.71-1.94-1.06-3.46-1.06-1.79,0-3.22.58-4.3,1.74s-1.62,2.85-1.62,5.06v4.48c0,2.21.54,3.9,1.62,5.06s2.51,1.74,4.3,1.74c1.49,0,2.69-.41,3.58-1.22s1.55-1.79,1.98-2.94l4.96,2.88c-1.04,2.13-2.41,3.78-4.1,4.94s-3.83,1.74-6.42,1.74Z"/>
      <path d="M1126.3,300.28c-1.84,0-3.52-.31-5.04-.92-1.52-.61-2.81-1.53-3.88-2.74-1.07-1.21-1.89-2.72-2.48-4.52s-.88-3.89-.88-6.26.29-4.46.88-6.26,1.41-3.31,2.48-4.52c1.07-1.21,2.36-2.13,3.88-2.74,1.52-.61,3.2-.92,5.04-.92s3.52.31,5.04.92c1.52.61,2.81,1.53,3.88,2.74,1.07,1.21,1.89,2.72,2.48,4.52.59,1.8.88,3.89.88,6.26s-.29,4.46-.88,6.26c-.59,1.8-1.41,3.31-2.48,4.52s-2.36,2.13-3.88,2.74c-1.52.61-3.2.92-5.04.92ZM1126.3,294.88c1.84,0,3.27-.6,4.3-1.8s1.54-2.92,1.54-5.16v-4.16c0-2.24-.51-3.96-1.54-5.16s-2.46-1.8-4.3-1.8-3.27.6-4.3,1.8c-1.03,1.2-1.54,2.92-1.54,5.16v4.16c0,2.24.51,3.96,1.54,5.16,1.03,1.2,2.46,1.8,4.3,1.8Z"/>
      <path d="M1152.18,286.6l-2.68-5.6h-.12v18.8h-5.72v-27.92h6.64l7.64,13.2,2.68,5.6h.12v-18.8h5.72v27.92h-6.64l-7.64-13.2Z"/>
      <path d="M1172.62,271.88h10.52c1.84,0,3.52.29,5.04.88,1.52.59,2.81,1.46,3.88,2.62,1.07,1.16,1.89,2.61,2.48,4.36.59,1.75.88,3.78.88,6.1s-.29,4.35-.88,6.1c-.59,1.75-1.41,3.2-2.48,4.36-1.07,1.16-2.36,2.03-3.88,2.62-1.52.59-3.2.88-5.04.88h-10.52v-27.92ZM1183.14,294.4c1.81,0,3.24-.51,4.28-1.52s1.56-2.64,1.56-4.88v-4.32c0-2.24-.52-3.87-1.56-4.88-1.04-1.01-2.47-1.52-4.28-1.52h-4.44v17.12h4.44Z"/>
      <path d="M1199.42,299.8v-4.84h3.6v-18.24h-3.6v-4.84h13.28v4.84h-3.6v18.24h3.6v4.84h-13.28Z"/>
      <path d="M1229.26,277.28v22.52h-6.08v-22.52h-7.56v-5.4h21.2v5.4h-7.56Z"/>
      <path d="M1239.74,299.8v-4.84h3.6v-18.24h-3.6v-4.84h13.28v4.84h-3.6v18.24h3.6v4.84h-13.28Z"/>
      <path d="M1269.3,300.28c-1.84,0-3.52-.31-5.04-.92-1.52-.61-2.81-1.53-3.88-2.74-1.07-1.21-1.89-2.72-2.48-4.52-.59-1.8-.88-3.89-.88-6.26s.29-4.46.88-6.26c.59-1.8,1.41-3.31,2.48-4.52,1.07-1.21,2.36-2.13,3.88-2.74,1.52-.61,3.2-.92,5.04-.92s3.52.31,5.04.92c1.52.61,2.81,1.53,3.88,2.74,1.07,1.21,1.89,2.72,2.48,4.52s.88,3.89.88,6.26-.29,4.46-.88,6.26-1.41,3.31-2.48,4.52c-1.07,1.21-2.36,2.13-3.88,2.74-1.52.61-3.2.92-5.04.92ZM1269.3,294.88c1.84,0,3.27-.6,4.3-1.8,1.03-1.2,1.54-2.92,1.54-5.16v-4.16c0-2.24-.51-3.96-1.54-5.16-1.03-1.2-2.46-1.8-4.3-1.8s-3.27.6-4.3,1.8c-1.03,1.2-1.54,2.92-1.54,5.16v4.16c0,2.24.51,3.96,1.54,5.16,1.03,1.2,2.46,1.8,4.3,1.8Z"/>
      <path d="M1295.18,286.6l-2.68-5.6h-.12v18.8h-5.72v-27.92h6.64l7.64,13.2,2.68,5.6h.12v-18.8h5.72v27.92h-6.64l-7.64-13.2Z"/>
      <path d="M1324.66,300.28c-2.45,0-4.53-.42-6.24-1.26-1.71-.84-3.16-1.93-4.36-3.26l4-4.04c1.89,2.11,4.23,3.17,7,3.17,1.49,0,2.6-.3,3.32-.91s1.08-1.41,1.08-2.42c0-.77-.21-1.41-.64-1.92-.43-.51-1.29-.87-2.6-1.05l-2.76-.36c-2.96-.37-5.13-1.27-6.5-2.68-1.37-1.42-2.06-3.3-2.06-5.65,0-1.25.24-2.4.72-3.44.48-1.04,1.17-1.94,2.06-2.68.89-.75,1.99-1.33,3.28-1.74,1.29-.41,2.77-.62,4.42-.62,2.11,0,3.96.33,5.56,1,1.6.67,2.97,1.64,4.12,2.92l-4.04,4.09c-.67-.77-1.47-1.39-2.42-1.88-.95-.49-2.14-.73-3.58-.73-1.36,0-2.37.24-3.04.71-.67.47-1,1.13-1,1.98,0,.95.26,1.64.78,2.06.52.42,1.37.73,2.54.91l2.76.44c2.88.45,5.01,1.34,6.4,2.66s2.08,3.2,2.08,5.63c0,1.33-.24,2.56-.72,3.68-.48,1.12-1.18,2.08-2.1,2.88-.92.8-2.06,1.42-3.42,1.86-1.36.44-2.91.66-4.64.66Z"/>
    </g>
    <g>
      <path d="M69.54,232.48h-.12l-2.04,4.08-5.44,9.88-5.32-9.84-2.12-4.4h-.12v18.6h-5.72v-27.92h6.44l6.84,13.08h.08l6.76-13.08h6.48v27.92h-5.72v-18.32Z"/>
      <path d="M92.62,251.28c-1.84,0-3.52-.31-5.04-.92-1.52-.61-2.81-1.53-3.88-2.74-1.07-1.21-1.89-2.72-2.48-4.52-.59-1.8-.88-3.89-.88-6.26s.29-4.46.88-6.26c.59-1.8,1.41-3.31,2.48-4.52,1.07-1.21,2.36-2.13,3.88-2.74,1.52-.61,3.2-.92,5.04-.92s3.52.31,5.04.92c1.52.61,2.81,1.53,3.88,2.74,1.07,1.21,1.89,2.72,2.48,4.52.59,1.8.88,3.89.88,6.26s-.29,4.46-.88,6.26c-.59,1.8-1.41,3.31-2.48,4.52-1.07,1.21-2.36,2.13-3.88,2.74-1.52.61-3.2.92-5.04.92ZM92.62,245.88c1.84,0,3.27-.6,4.3-1.8,1.03-1.2,1.54-2.92,1.54-5.16v-4.16c0-2.24-.51-3.96-1.54-5.16-1.03-1.2-2.46-1.8-4.3-1.8s-3.27.6-4.3,1.8c-1.03,1.2-1.54,2.92-1.54,5.16v4.16c0,2.24.51,3.96,1.54,5.16,1.03,1.2,2.46,1.8,4.3,1.8Z"/>
      <path d="M109.98,250.8v-27.92h6.08v22.52h10.64v5.4h-16.72Z"/>
      <path d="M131.18,250.8v-27.92h19v5.4h-12.92v5.68h11.08v5.4h-11.08v6.04h12.92v5.4h-19Z"/>
      <path d="M166.74,251.28c-1.89,0-3.6-.3-5.12-.9-1.52-.6-2.81-1.49-3.88-2.68-1.07-1.19-1.89-2.67-2.48-4.44-.59-1.77-.88-3.85-.88-6.22s.29-4.43.88-6.26c.59-1.83,1.41-3.36,2.48-4.6,1.07-1.24,2.36-2.18,3.88-2.82,1.52-.64,3.23-.96,5.12-.96,2.59,0,4.72.53,6.4,1.58,1.68,1.05,3.03,2.71,4.04,4.98l-5.24,2.72c-.37-1.17-.95-2.11-1.74-2.82-.79-.71-1.94-1.06-3.46-1.06-1.79,0-3.22.58-4.3,1.74s-1.62,2.85-1.62,5.06v4.48c0,2.21.54,3.9,1.62,5.06s2.51,1.74,4.3,1.74c1.49,0,2.69-.41,3.58-1.22.89-.81,1.55-1.79,1.98-2.94l4.96,2.88c-1.04,2.13-2.41,3.78-4.1,4.94s-3.83,1.74-6.42,1.74Z"/>
      <path d="M187.26,222.88v17.12c0,1.97.39,3.45,1.16,4.42s2.07,1.46,3.88,1.46,3.11-.49,3.88-1.46,1.16-2.45,1.16-4.42v-17.12h5.92v16.48c0,2.05-.19,3.83-.58,5.34s-1.02,2.75-1.9,3.72-2.01,1.69-3.4,2.16c-1.39.47-3.08.7-5.08.7s-3.69-.23-5.08-.7c-1.39-.47-2.52-1.19-3.4-2.16-.88-.97-1.51-2.21-1.9-3.72s-.58-3.29-.58-5.34v-16.48h5.92Z"/>
      <path d="M209.26,250.8v-27.92h6.08v22.52h10.64v5.4h-16.72Z"/>
      <path d="M248.34,250.8l-2-6.64h-9.32l-2,6.64h-6.16l9.2-27.92h7.52l9.08,27.92h-6.32ZM241.74,228.4h-.2l-3.08,10.6h6.4l-3.12-10.6Z"/>
      <path d="M264.62,250.8h-6.08v-27.92h13.24c1.28,0,2.44.21,3.48.64,1.04.43,1.93,1.03,2.66,1.82.73.79,1.3,1.73,1.7,2.82.4,1.09.6,2.31.6,3.64,0,1.89-.42,3.55-1.26,4.96-.84,1.41-2.11,2.44-3.82,3.08l5.48,10.96h-6.76l-4.88-10.24h-4.36v10.24ZM271.02,235.44c.91,0,1.62-.23,2.14-.7.52-.47.78-1.15.78-2.06v-1.76c0-.91-.26-1.59-.78-2.06-.52-.47-1.23-.7-2.14-.7h-6.4v7.28h6.4Z"/>
      <path d="M43.28,298.8v-27.92h13.2c1.31,0,2.48.22,3.52.66,1.04.44,1.93,1.05,2.66,1.82.73.77,1.3,1.71,1.7,2.82.4,1.11.6,2.31.6,3.62s-.2,2.55-.6,3.64c-.4,1.09-.97,2.03-1.7,2.8-.73.77-1.62,1.38-2.66,1.82-1.04.44-2.21.66-3.52.66h-7.12v10.08h-6.08ZM49.36,283.44h6.4c.91,0,1.62-.23,2.14-.7s.78-1.15.78-2.06v-1.76c0-.91-.26-1.59-.78-2.06-.52-.47-1.23-.7-2.14-.7h-6.4v7.28Z"/>
      <path d="M75.6,298.8h-6.08v-27.92h13.24c1.28,0,2.44.21,3.48.64,1.04.43,1.93,1.03,2.66,1.82.73.79,1.3,1.73,1.7,2.82.4,1.09.6,2.31.6,3.64,0,1.89-.42,3.55-1.26,4.96-.84,1.41-2.11,2.44-3.82,3.08l5.48,10.96h-6.76l-4.88-10.24h-4.36v10.24ZM82,283.44c.91,0,1.62-.23,2.14-.7s.78-1.15.78-2.06v-1.76c0-.91-.26-1.59-.78-2.06-.52-.47-1.23-.7-2.14-.7h-6.4v7.28h6.4Z"/>
      <path d="M107.28,299.28c-1.84,0-3.52-.31-5.04-.92-1.52-.61-2.81-1.53-3.88-2.74-1.07-1.21-1.89-2.72-2.48-4.52-.59-1.8-.88-3.89-.88-6.26s.29-4.46.88-6.26c.59-1.8,1.41-3.31,2.48-4.52,1.07-1.21,2.36-2.13,3.88-2.74,1.52-.61,3.2-.92,5.04-.92s3.52.31,5.04.92c1.52.61,2.81,1.53,3.88,2.74,1.07,1.21,1.89,2.72,2.48,4.52.59,1.8.88,3.89.88,6.26s-.29,4.46-.88,6.26c-.59,1.8-1.41,3.31-2.48,4.52-1.07,1.21-2.36,2.13-3.88,2.74-1.52.61-3.2.92-5.04.92ZM107.28,293.88c1.84,0,3.27-.6,4.3-1.8,1.03-1.2,1.54-2.92,1.54-5.16v-4.16c0-2.24-.51-3.96-1.54-5.16-1.03-1.2-2.46-1.8-4.3-1.8s-3.27.6-4.3,1.8c-1.03,1.2-1.54,2.92-1.54,5.16v4.16c0,2.24.51,3.96,1.54,5.16,1.03,1.2,2.46,1.8,4.3,1.8Z"/>
      <path d="M124.64,298.8v-27.92h13.2c1.31,0,2.48.22,3.52.66,1.04.44,1.93,1.05,2.66,1.82.73.77,1.3,1.71,1.7,2.82.4,1.11.6,2.31.6,3.62s-.2,2.55-.6,3.64c-.4,1.09-.97,2.03-1.7,2.8-.73.77-1.62,1.38-2.66,1.82-1.04.44-2.21.66-3.52.66h-7.12v10.08h-6.08ZM130.72,283.44h6.4c.91,0,1.62-.23,2.14-.7s.78-1.15.78-2.06v-1.76c0-.91-.26-1.59-.78-2.06-.52-.47-1.23-.7-2.14-.7h-6.4v7.28Z"/>
      <path d="M150.88,298.8v-27.92h19v5.4h-12.92v5.68h11.08v5.4h-11.08v6.04h12.92v5.4h-19Z"/>
      <path d="M181.24,298.8h-6.08v-27.92h13.24c1.28,0,2.44.21,3.48.64,1.04.43,1.93,1.03,2.66,1.82.73.79,1.3,1.73,1.7,2.82.4,1.09.6,2.31.6,3.64,0,1.89-.42,3.55-1.26,4.96-.84,1.41-2.11,2.44-3.82,3.08l5.48,10.96h-6.76l-4.88-10.24h-4.36v10.24ZM187.64,283.44c.91,0,1.62-.23,2.14-.7s.78-1.15.78-2.06v-1.76c0-.91-.26-1.59-.78-2.06-.52-.47-1.23-.7-2.14-.7h-6.4v7.28h6.4Z"/>
      <path d="M212.8,276.28v22.52h-6.08v-22.52h-7.56v-5.4h21.2v5.4h-7.56Z"/>
      <path d="M223.28,298.8v-4.84h3.6v-18.24h-3.6v-4.84h13.28v4.84h-3.6v18.24h3.6v4.84h-13.28Z"/>
      <path d="M241.64,298.8v-27.92h19v5.4h-12.92v5.68h11.08v5.4h-11.08v6.04h12.92v5.4h-19Z"/>
      <path d="M274.96,299.28c-2.45,0-4.53-.42-6.24-1.26-1.71-.84-3.16-1.93-4.36-3.26l4-4.04c1.89,2.11,4.23,3.17,7,3.17,1.49,0,2.6-.3,3.32-.91s1.08-1.41,1.08-2.42c0-.77-.21-1.41-.64-1.92-.43-.51-1.29-.87-2.6-1.05l-2.76-.36c-2.96-.37-5.13-1.27-6.5-2.68-1.37-1.42-2.06-3.3-2.06-5.65,0-1.25.24-2.4.72-3.44.48-1.04,1.17-1.94,2.06-2.68.89-.75,1.99-1.33,3.28-1.74,1.29-.41,2.77-.62,4.42-.62,2.11,0,3.96.33,5.56,1,1.6.67,2.97,1.64,4.12,2.92l-4.04,4.09c-.67-.77-1.47-1.39-2.42-1.88-.95-.49-2.14-.73-3.58-.73-1.36,0-2.37.24-3.04.71-.67.47-1,1.13-1,1.98,0,.95.26,1.64.78,2.06.52.42,1.37.73,2.54.91l2.76.44c2.88.45,5.01,1.34,6.4,2.66s2.08,3.2,2.08,5.63c0,1.33-.24,2.56-.72,3.68-.48,1.12-1.18,2.08-2.1,2.88-.92.8-2.06,1.42-3.42,1.86-1.36.44-2.91.66-4.64.66Z"/>
    </g>
    <path d="M808.47,1138.25"/>
  </g>
  <g id="mol_gray">
    <g id="mol">
      <path class="st5" d="M703.91,506.45l-56.94,14.55-15.87,56.59,41.07,42.04,56.94-14.55,15.87-56.59-41.07-42.04Z"/>
      <path class="st5" d="M716.7,590.05l-15.97-63-46.57,45.32,62.54,17.68Z"/>
      <path class="st5" d="M703.91,506.45l-3.18,20.6-53.76-6.05,56.94-14.55Z"/>
      <path class="st5" d="M646.97,521l7.19,51.37-23.06,5.22,15.87-56.59Z"/>
      <path class="st1" d="M654.16,572.37l18.01,47.25,44.53-29.58-62.54-17.68Z"/>
      <path class="st4" d="M716.7,590.05l28.28-41.56-44.25-21.44,15.97,63Z"/>
      <path class="st0" d="M716.7,590.05l12.41,15.03-56.94,14.55,44.53-29.58Z"/>
      <path class="st7" d="M716.7,590.05l28.28-41.56-15.87,56.59-12.41-15.03Z"/>
      <path class="st6" d="M646.97,521l53.76,6.05-46.57,45.32-7.19-51.37Z"/>
      <path class="st2" d="M703.91,506.45l-3.18,20.6,44.25,21.44-41.07-42.04Z"/>
      <path class="st3" d="M654.16,572.37l18.01,47.25-41.07-42.04,23.06-5.22Z"/>
    </g>
  </g>
</svg>