<svg width="830" height="300" viewBox="0 0 830 300" fill="none" xmlns="http://www.w3.org/2000/svg">
<rect y="1.52588e-05" width="830" height="300" rx="3" fill="#FAFAFA"/>
<g clip-path="url(#clip0_904_14147)">
<path d="M429.573 96.7622L421.446 64.71L397.753 87.7687L429.573 96.7622Z" fill="#B8B8B8"/>
<path d="M423.063 54.2297L421.446 64.71L394.094 61.6325L423.063 54.2297Z" fill="#B8B8B8"/>
<path d="M394.094 61.6318L397.753 87.768L386.02 90.4223L394.094 61.6318Z" fill="#B8B8B8"/>
<path d="M397.753 87.7687L406.917 111.81L429.573 96.7622L397.753 87.7687Z" fill="#6C6C6C"/>
<path d="M429.573 96.7622L443.96 75.6169L421.446 64.71L429.573 96.7622Z" fill="#727272"/>
<path d="M429.573 96.7622L435.886 104.407L406.917 111.81L429.573 96.7622Z" fill="#3F3F3F"/>
<path d="M429.573 96.7622L443.96 75.6169L435.886 104.407L429.573 96.7622Z" fill="#555555"/>
<path d="M394.094 61.6325L421.446 64.71L397.753 87.7687L394.094 61.6325Z" fill="#E1E1E1"/>
<path d="M423.063 54.2297L421.446 64.71L443.96 75.6169L423.063 54.2297Z" fill="#939393"/>
<path d="M397.753 87.7687L406.917 111.81L386.02 90.423L397.753 87.7687Z" fill="#5F5F5F"/>
</g>
<path d="M334.255 190.909C334.255 191.983 334.061 192.911 333.673 193.693C333.285 194.475 332.753 195.079 332.077 195.503C331.401 195.927 330.629 196.139 329.76 196.139C328.892 196.139 328.12 195.927 327.443 195.503C326.767 195.079 326.235 194.475 325.848 193.693C325.46 192.911 325.266 191.983 325.266 190.909C325.266 189.835 325.46 188.907 325.848 188.125C326.235 187.343 326.767 186.74 327.443 186.315C328.12 185.891 328.892 185.679 329.76 185.679C330.629 185.679 331.401 185.891 332.077 186.315C332.753 186.74 333.285 187.343 333.673 188.125C334.061 188.907 334.255 189.835 334.255 190.909ZM333.061 190.909C333.061 190.027 332.914 189.283 332.619 188.677C332.327 188.07 331.931 187.611 331.431 187.3C330.934 186.988 330.377 186.832 329.76 186.832C329.144 186.832 328.585 186.988 328.085 187.3C327.588 187.611 327.192 188.07 326.897 188.677C326.605 189.283 326.459 190.027 326.459 190.909C326.459 191.791 326.605 192.535 326.897 193.141C327.192 193.748 327.588 194.207 328.085 194.518C328.585 194.83 329.144 194.986 329.76 194.986C330.377 194.986 330.934 194.83 331.431 194.518C331.931 194.207 332.327 193.748 332.619 193.141C332.914 192.535 333.061 191.791 333.061 190.909ZM336.169 198.864V188.364H337.302V189.577H337.441C337.527 189.444 337.647 189.275 337.799 189.07C337.955 188.861 338.177 188.675 338.465 188.513C338.757 188.347 339.152 188.264 339.649 188.264C340.292 188.264 340.858 188.425 341.349 188.746C341.84 189.068 342.222 189.524 342.497 190.114C342.773 190.704 342.91 191.4 342.91 192.202C342.91 193.01 342.773 193.711 342.497 194.305C342.222 194.895 341.841 195.352 341.354 195.677C340.867 195.998 340.305 196.159 339.669 196.159C339.178 196.159 338.785 196.078 338.49 195.915C338.195 195.75 337.968 195.563 337.809 195.354C337.65 195.142 337.527 194.966 337.441 194.827H337.342V198.864H336.169ZM337.322 192.182C337.322 192.759 337.407 193.267 337.576 193.708C337.745 194.146 337.992 194.489 338.316 194.737C338.641 194.982 339.039 195.105 339.509 195.105C340 195.105 340.409 194.976 340.737 194.717C341.069 194.456 341.318 194.104 341.483 193.663C341.652 193.219 341.737 192.725 341.737 192.182C341.737 191.645 341.654 191.161 341.488 190.73C341.326 190.296 341.079 189.953 340.747 189.701C340.419 189.446 340.007 189.318 339.509 189.318C339.032 189.318 338.631 189.439 338.306 189.681C337.982 189.92 337.736 190.255 337.571 190.685C337.405 191.113 337.322 191.612 337.322 192.182ZM347.902 196.159C347.166 196.159 346.531 195.997 345.997 195.672C345.467 195.344 345.058 194.886 344.769 194.3C344.484 193.71 344.342 193.024 344.342 192.241C344.342 191.459 344.484 190.77 344.769 190.173C345.058 189.573 345.459 189.106 345.973 188.771C346.49 188.433 347.093 188.264 347.782 188.264C348.18 188.264 348.573 188.331 348.96 188.463C349.348 188.596 349.701 188.811 350.019 189.109C350.338 189.404 350.591 189.795 350.78 190.283C350.969 190.77 351.063 191.37 351.063 192.082V192.58H345.177V191.565H349.87C349.87 191.134 349.784 190.75 349.612 190.412C349.443 190.074 349.201 189.807 348.886 189.612C348.574 189.416 348.206 189.318 347.782 189.318C347.315 189.318 346.911 189.434 346.569 189.666C346.231 189.895 345.971 190.193 345.789 190.561C345.606 190.929 345.515 191.323 345.515 191.744V192.42C345.515 192.997 345.615 193.486 345.813 193.887C346.016 194.285 346.296 194.588 346.654 194.797C347.012 195.002 347.428 195.105 347.902 195.105C348.21 195.105 348.488 195.062 348.737 194.976C348.989 194.886 349.206 194.754 349.388 194.578C349.57 194.399 349.711 194.177 349.811 193.912L350.944 194.23C350.825 194.615 350.624 194.953 350.343 195.244C350.061 195.533 349.713 195.758 349.299 195.92C348.884 196.08 348.419 196.159 347.902 196.159ZM354.022 191.406V196H352.848V188.364H353.982V189.557H354.081C354.26 189.169 354.532 188.857 354.897 188.622C355.261 188.384 355.732 188.264 356.309 188.264C356.826 188.264 357.278 188.37 357.666 188.582C358.054 188.791 358.355 189.109 358.571 189.537C358.786 189.961 358.894 190.498 358.894 191.148V196H357.72V191.227C357.72 190.627 357.565 190.16 357.253 189.825C356.942 189.487 356.514 189.318 355.97 189.318C355.596 189.318 355.261 189.399 354.966 189.562C354.675 189.724 354.444 189.961 354.275 190.273C354.106 190.584 354.022 190.962 354.022 191.406ZM370.384 190.074L369.33 190.372C369.264 190.197 369.166 190.026 369.037 189.86C368.911 189.691 368.739 189.552 368.52 189.442C368.301 189.333 368.021 189.278 367.68 189.278C367.212 189.278 366.823 189.386 366.511 189.602C366.203 189.814 366.049 190.084 366.049 190.412C366.049 190.704 366.155 190.934 366.367 191.103C366.579 191.272 366.911 191.413 367.362 191.526L368.495 191.804C369.178 191.97 369.687 192.223 370.021 192.565C370.356 192.903 370.524 193.339 370.524 193.872C370.524 194.31 370.398 194.701 370.146 195.045C369.897 195.39 369.549 195.662 369.102 195.861C368.654 196.06 368.134 196.159 367.541 196.159C366.762 196.159 366.117 195.99 365.607 195.652C365.096 195.314 364.773 194.82 364.637 194.17L365.751 193.892C365.857 194.303 366.057 194.611 366.352 194.817C366.651 195.022 367.04 195.125 367.521 195.125C368.068 195.125 368.502 195.009 368.823 194.777C369.148 194.542 369.31 194.26 369.31 193.932C369.31 193.667 369.218 193.445 369.032 193.266C368.846 193.083 368.561 192.947 368.177 192.858L366.904 192.56C366.205 192.394 365.691 192.137 365.363 191.789C365.038 191.438 364.876 190.999 364.876 190.472C364.876 190.041 364.997 189.66 365.239 189.328C365.484 188.997 365.817 188.737 366.238 188.548C366.662 188.359 367.143 188.264 367.68 188.264C368.435 188.264 369.029 188.43 369.46 188.761C369.894 189.093 370.202 189.53 370.384 190.074ZM375.392 196.159C374.703 196.159 374.098 195.995 373.577 195.667C373.06 195.339 372.656 194.88 372.364 194.29C372.076 193.7 371.932 193.01 371.932 192.222C371.932 191.426 372.076 190.732 372.364 190.139C372.656 189.545 373.06 189.085 373.577 188.756C374.098 188.428 374.703 188.264 375.392 188.264C376.081 188.264 376.685 188.428 377.202 188.756C377.722 189.085 378.126 189.545 378.415 190.139C378.706 190.732 378.852 191.426 378.852 192.222C378.852 193.01 378.706 193.7 378.415 194.29C378.126 194.88 377.722 195.339 377.202 195.667C376.685 195.995 376.081 196.159 375.392 196.159ZM375.392 195.105C375.916 195.105 376.347 194.971 376.685 194.702C377.023 194.434 377.273 194.081 377.435 193.643C377.598 193.206 377.679 192.732 377.679 192.222C377.679 191.711 377.598 191.236 377.435 190.795C377.273 190.354 377.023 189.998 376.685 189.726C376.347 189.454 375.916 189.318 375.392 189.318C374.868 189.318 374.437 189.454 374.099 189.726C373.761 189.998 373.511 190.354 373.349 190.795C373.186 191.236 373.105 191.711 373.105 192.222C373.105 192.732 373.186 193.206 373.349 193.643C373.511 194.081 373.761 194.434 374.099 194.702C374.437 194.971 374.868 195.105 375.392 195.105ZM385.456 192.878V188.364H386.629V196H385.456V194.707H385.376C385.197 195.095 384.919 195.425 384.541 195.697C384.163 195.965 383.686 196.099 383.109 196.099C382.632 196.099 382.208 195.995 381.836 195.786C381.465 195.574 381.174 195.256 380.961 194.832C380.749 194.404 380.643 193.866 380.643 193.216V188.364H381.816V193.136C381.816 193.693 381.972 194.137 382.284 194.469C382.599 194.8 383 194.966 383.487 194.966C383.779 194.966 384.075 194.891 384.377 194.742C384.682 194.593 384.937 194.364 385.142 194.056C385.351 193.748 385.456 193.355 385.456 192.878ZM388.778 196V188.364H389.911V189.517H389.991C390.13 189.139 390.382 188.833 390.747 188.597C391.111 188.362 391.522 188.244 391.98 188.244C392.066 188.244 392.174 188.246 392.303 188.249C392.432 188.253 392.53 188.258 392.596 188.264V189.457C392.556 189.447 392.465 189.433 392.323 189.413C392.184 189.389 392.036 189.378 391.88 189.378C391.509 189.378 391.178 189.456 390.886 189.612C390.598 189.764 390.369 189.976 390.2 190.248C390.034 190.516 389.951 190.823 389.951 191.168V196H388.778ZM396.857 196.159C396.141 196.159 395.524 195.99 395.007 195.652C394.49 195.314 394.093 194.848 393.814 194.255C393.536 193.662 393.397 192.984 393.397 192.222C393.397 191.446 393.539 190.762 393.824 190.168C394.112 189.572 394.514 189.106 395.027 188.771C395.544 188.433 396.148 188.264 396.837 188.264C397.374 188.264 397.858 188.364 398.289 188.563C398.719 188.761 399.072 189.04 399.348 189.398C399.623 189.756 399.793 190.173 399.86 190.651H398.686C398.597 190.303 398.398 189.994 398.09 189.726C397.785 189.454 397.374 189.318 396.857 189.318C396.399 189.318 395.998 189.438 395.654 189.676C395.312 189.911 395.045 190.245 394.853 190.675C394.664 191.103 394.57 191.605 394.57 192.182C394.57 192.772 394.663 193.286 394.848 193.723C395.037 194.161 395.302 194.5 395.644 194.742C395.988 194.984 396.393 195.105 396.857 195.105C397.162 195.105 397.438 195.052 397.687 194.946C397.936 194.84 398.146 194.688 398.318 194.489C398.491 194.29 398.613 194.051 398.686 193.773H399.86C399.793 194.224 399.629 194.63 399.367 194.991C399.109 195.349 398.766 195.634 398.338 195.846C397.914 196.055 397.42 196.159 396.857 196.159ZM404.777 196.159C404.041 196.159 403.406 195.997 402.872 195.672C402.342 195.344 401.933 194.886 401.644 194.3C401.359 193.71 401.217 193.024 401.217 192.241C401.217 191.459 401.359 190.77 401.644 190.173C401.933 189.573 402.334 189.106 402.848 188.771C403.365 188.433 403.968 188.264 404.657 188.264C405.055 188.264 405.448 188.331 405.835 188.463C406.223 188.596 406.576 188.811 406.894 189.109C407.213 189.404 407.466 189.795 407.655 190.283C407.844 190.77 407.938 191.37 407.938 192.082V192.58H402.052V191.565H406.745C406.745 191.134 406.659 190.75 406.487 190.412C406.318 190.074 406.076 189.807 405.761 189.612C405.449 189.416 405.081 189.318 404.657 189.318C404.19 189.318 403.786 189.434 403.444 189.666C403.106 189.895 402.846 190.193 402.664 190.561C402.481 190.929 402.39 191.323 402.39 191.744V192.42C402.39 192.997 402.49 193.486 402.688 193.887C402.891 194.285 403.171 194.588 403.529 194.797C403.887 195.002 404.303 195.105 404.777 195.105C405.085 195.105 405.363 195.062 405.612 194.976C405.864 194.886 406.081 194.754 406.263 194.578C406.445 194.399 406.586 194.177 406.686 193.912L407.819 194.23C407.7 194.615 407.499 194.953 407.218 195.244C406.936 195.533 406.588 195.758 406.174 195.92C405.759 196.08 405.294 196.159 404.777 196.159ZM417.061 188.364V189.358H412.945V188.364H417.061ZM414.178 196V187.31C414.178 186.872 414.281 186.508 414.486 186.216C414.692 185.924 414.958 185.706 415.286 185.56C415.615 185.414 415.961 185.341 416.326 185.341C416.614 185.341 416.849 185.364 417.032 185.411C417.214 185.457 417.35 185.5 417.439 185.54L417.101 186.554C417.041 186.534 416.959 186.509 416.853 186.479C416.75 186.45 416.614 186.435 416.445 186.435C416.057 186.435 415.777 186.532 415.605 186.728C415.436 186.924 415.351 187.21 415.351 187.588V196H414.178ZM418.706 196V188.364H419.839V189.517H419.919C420.058 189.139 420.31 188.833 420.674 188.597C421.039 188.362 421.45 188.244 421.907 188.244C421.994 188.244 422.101 188.246 422.231 188.249C422.36 188.253 422.458 188.258 422.524 188.264V189.457C422.484 189.447 422.393 189.433 422.25 189.413C422.111 189.389 421.964 189.378 421.808 189.378C421.437 189.378 421.105 189.456 420.814 189.612C420.525 189.764 420.297 189.976 420.128 190.248C419.962 190.516 419.879 190.823 419.879 191.168V196H418.706ZM426.162 196.179C425.678 196.179 425.239 196.088 424.844 195.906C424.45 195.72 424.137 195.453 423.905 195.105C423.673 194.754 423.557 194.33 423.557 193.832C423.557 193.395 423.643 193.04 423.815 192.768C423.988 192.493 424.218 192.278 424.506 192.122C424.795 191.966 425.113 191.85 425.461 191.774C425.812 191.695 426.165 191.632 426.52 191.585C426.984 191.526 427.36 191.481 427.648 191.451C427.94 191.418 428.152 191.363 428.285 191.287C428.421 191.211 428.489 191.078 428.489 190.889V190.849C428.489 190.359 428.354 189.978 428.086 189.706C427.821 189.434 427.418 189.298 426.878 189.298C426.318 189.298 425.878 189.421 425.56 189.666C425.242 189.911 425.018 190.173 424.889 190.452L423.775 190.054C423.974 189.59 424.239 189.229 424.571 188.97C424.906 188.708 425.27 188.526 425.665 188.423C426.062 188.317 426.454 188.264 426.838 188.264C427.083 188.264 427.365 188.294 427.683 188.354C428.005 188.41 428.315 188.528 428.613 188.707C428.914 188.886 429.165 189.156 429.364 189.517C429.562 189.878 429.662 190.362 429.662 190.969V196H428.489V194.966H428.429C428.349 195.132 428.217 195.309 428.031 195.498C427.846 195.687 427.599 195.848 427.29 195.98C426.982 196.113 426.606 196.179 426.162 196.179ZM426.341 195.125C426.805 195.125 427.196 195.034 427.514 194.852C427.836 194.669 428.078 194.434 428.24 194.146C428.406 193.857 428.489 193.554 428.489 193.236V192.162C428.439 192.222 428.329 192.276 428.16 192.326C427.995 192.372 427.802 192.414 427.584 192.45C427.368 192.483 427.158 192.513 426.952 192.54C426.75 192.563 426.586 192.583 426.46 192.599C426.155 192.639 425.87 192.704 425.605 192.793C425.343 192.88 425.131 193.01 424.969 193.186C424.81 193.358 424.73 193.594 424.73 193.892C424.73 194.3 424.881 194.608 425.182 194.817C425.487 195.022 425.873 195.125 426.341 195.125ZM431.803 196V188.364H432.937V189.557H433.036C433.195 189.149 433.452 188.833 433.807 188.607C434.162 188.379 434.587 188.264 435.085 188.264C435.588 188.264 436.008 188.379 436.342 188.607C436.68 188.833 436.944 189.149 437.133 189.557H437.212C437.408 189.162 437.701 188.849 438.092 188.617C438.484 188.382 438.953 188.264 439.499 188.264C440.182 188.264 440.741 188.478 441.175 188.906C441.609 189.33 441.826 189.991 441.826 190.889V196H440.653V190.889C440.653 190.326 440.499 189.923 440.19 189.681C439.882 189.439 439.519 189.318 439.102 189.318C438.565 189.318 438.149 189.481 437.854 189.805C437.559 190.127 437.411 190.535 437.411 191.028V196H436.218V190.77C436.218 190.336 436.077 189.986 435.796 189.721C435.514 189.452 435.151 189.318 434.707 189.318C434.402 189.318 434.117 189.399 433.852 189.562C433.59 189.724 433.378 189.95 433.215 190.238C433.056 190.523 432.977 190.853 432.977 191.227V196H431.803ZM447.173 196.159C446.437 196.159 445.803 195.997 445.269 195.672C444.739 195.344 444.329 194.886 444.041 194.3C443.756 193.71 443.613 193.024 443.613 192.241C443.613 191.459 443.756 190.77 444.041 190.173C444.329 189.573 444.73 189.106 445.244 188.771C445.761 188.433 446.364 188.264 447.054 188.264C447.451 188.264 447.844 188.331 448.232 188.463C448.62 188.596 448.973 188.811 449.291 189.109C449.609 189.404 449.863 189.795 450.052 190.283C450.241 190.77 450.335 191.37 450.335 192.082V192.58H444.449V191.565H449.142C449.142 191.134 449.056 190.75 448.883 190.412C448.714 190.074 448.472 189.807 448.157 189.612C447.846 189.416 447.478 189.318 447.054 189.318C446.586 189.318 446.182 189.434 445.841 189.666C445.503 189.895 445.242 190.193 445.06 190.561C444.878 190.929 444.787 191.323 444.787 191.744V192.42C444.787 192.997 444.886 193.486 445.085 193.887C445.287 194.285 445.567 194.588 445.925 194.797C446.283 195.002 446.699 195.105 447.173 195.105C447.481 195.105 447.76 195.062 448.008 194.976C448.26 194.886 448.477 194.754 448.66 194.578C448.842 194.399 448.983 194.177 449.082 193.912L450.216 194.23C450.096 194.615 449.896 194.953 449.614 195.244C449.332 195.533 448.984 195.758 448.57 195.92C448.156 196.08 447.69 196.159 447.173 196.159ZM453.85 196L451.523 188.364H452.756L454.407 194.21H454.486L456.117 188.364H457.37L458.981 194.19H459.06L460.711 188.364H461.944L459.617 196H458.464L456.793 190.134H456.674L455.003 196H453.85ZM466.337 196.159C465.648 196.159 465.043 195.995 464.523 195.667C464.006 195.339 463.601 194.88 463.31 194.29C463.021 193.7 462.877 193.01 462.877 192.222C462.877 191.426 463.021 190.732 463.31 190.139C463.601 189.545 464.006 189.085 464.523 188.756C465.043 188.428 465.648 188.264 466.337 188.264C467.027 188.264 467.63 188.428 468.147 188.756C468.667 189.085 469.072 189.545 469.36 190.139C469.652 190.732 469.797 191.426 469.797 192.222C469.797 193.01 469.652 193.7 469.36 194.29C469.072 194.88 468.667 195.339 468.147 195.667C467.63 195.995 467.027 196.159 466.337 196.159ZM466.337 195.105C466.861 195.105 467.292 194.971 467.63 194.702C467.968 194.434 468.218 194.081 468.381 193.643C468.543 193.206 468.624 192.732 468.624 192.222C468.624 191.711 468.543 191.236 468.381 190.795C468.218 190.354 467.968 189.998 467.63 189.726C467.292 189.454 466.861 189.318 466.337 189.318C465.814 189.318 465.383 189.454 465.045 189.726C464.707 189.998 464.456 190.354 464.294 190.795C464.132 191.236 464.05 191.711 464.05 192.222C464.05 192.732 464.132 193.206 464.294 193.643C464.456 194.081 464.707 194.434 465.045 194.702C465.383 194.971 465.814 195.105 466.337 195.105ZM471.589 196V188.364H472.722V189.517H472.802C472.941 189.139 473.193 188.833 473.557 188.597C473.922 188.362 474.333 188.244 474.79 188.244C474.876 188.244 474.984 188.246 475.113 188.249C475.243 188.253 475.34 188.258 475.407 188.264V189.457C475.367 189.447 475.276 189.433 475.133 189.413C474.994 189.389 474.847 189.378 474.691 189.378C474.32 189.378 473.988 189.456 473.696 189.612C473.408 189.764 473.179 189.976 473.01 190.248C472.845 190.516 472.762 190.823 472.762 191.168V196H471.589ZM477.891 193.216L477.871 191.764H478.11L481.451 188.364H482.903L479.343 191.963H479.244L477.891 193.216ZM476.797 196V185.818H477.971V196H476.797ZM481.65 196L478.667 192.222L479.502 191.406L483.141 196H481.65ZM491.751 188.364V189.358H487.634V188.364H491.751ZM488.867 196V187.31C488.867 186.872 488.97 186.508 489.176 186.216C489.381 185.924 489.648 185.706 489.976 185.56C490.304 185.414 490.65 185.341 491.015 185.341C491.303 185.341 491.539 185.364 491.721 185.411C491.903 185.457 492.039 185.5 492.129 185.54L491.791 186.554C491.731 186.534 491.648 186.509 491.542 186.479C491.439 186.45 491.303 186.435 491.134 186.435C490.747 186.435 490.466 186.532 490.294 186.728C490.125 186.924 490.041 187.21 490.041 187.588V196H488.867ZM496.183 196.159C495.494 196.159 494.889 195.995 494.368 195.667C493.851 195.339 493.447 194.88 493.155 194.29C492.867 193.7 492.723 193.01 492.723 192.222C492.723 191.426 492.867 190.732 493.155 190.139C493.447 189.545 493.851 189.085 494.368 188.756C494.889 188.428 495.494 188.264 496.183 188.264C496.872 188.264 497.476 188.428 497.993 188.756C498.513 189.085 498.917 189.545 499.206 190.139C499.497 190.732 499.643 191.426 499.643 192.222C499.643 193.01 499.497 193.7 499.206 194.29C498.917 194.88 498.513 195.339 497.993 195.667C497.476 195.995 496.872 196.159 496.183 196.159ZM496.183 195.105C496.707 195.105 497.138 194.971 497.476 194.702C497.814 194.434 498.064 194.081 498.226 193.643C498.389 193.206 498.47 192.732 498.47 192.222C498.47 191.711 498.389 191.236 498.226 190.795C498.064 190.354 497.814 189.998 497.476 189.726C497.138 189.454 496.707 189.318 496.183 189.318C495.659 189.318 495.228 189.454 494.89 189.726C494.552 189.998 494.302 190.354 494.14 190.795C493.977 191.236 493.896 191.711 493.896 192.222C493.896 192.732 493.977 193.206 494.14 193.643C494.302 194.081 494.552 194.434 494.89 194.702C495.228 194.971 495.659 195.105 496.183 195.105ZM501.434 196V188.364H502.568V189.517H502.647C502.786 189.139 503.038 188.833 503.403 188.597C503.768 188.362 504.179 188.244 504.636 188.244C504.722 188.244 504.83 188.246 504.959 188.249C505.088 188.253 505.186 188.258 505.252 188.264V189.457C505.213 189.447 505.121 189.433 504.979 189.413C504.84 189.389 504.692 189.378 504.536 189.378C504.165 189.378 503.834 189.456 503.542 189.612C503.254 189.764 503.025 189.976 502.856 190.248C502.69 190.516 502.608 190.823 502.608 191.168V196H501.434ZM303.397 213V205.364H304.531V206.557H304.63C304.789 206.149 305.046 205.833 305.401 205.607C305.755 205.379 306.181 205.264 306.678 205.264C307.182 205.264 307.601 205.379 307.936 205.607C308.274 205.833 308.538 206.149 308.727 206.557H308.806C309.002 206.162 309.295 205.849 309.686 205.617C310.077 205.382 310.546 205.264 311.093 205.264C311.776 205.264 312.334 205.478 312.769 205.906C313.203 206.33 313.42 206.991 313.42 207.889V213H312.247V207.889C312.247 207.326 312.092 206.923 311.784 206.681C311.476 206.439 311.113 206.318 310.695 206.318C310.158 206.318 309.743 206.481 309.448 206.805C309.153 207.127 309.005 207.535 309.005 208.028V213H307.812V207.77C307.812 207.336 307.671 206.986 307.389 206.721C307.108 206.452 306.745 206.318 306.301 206.318C305.996 206.318 305.711 206.399 305.445 206.562C305.184 206.724 304.971 206.95 304.809 207.238C304.65 207.523 304.57 207.853 304.57 208.227V213H303.397ZM318.667 213.159C317.978 213.159 317.373 212.995 316.853 212.667C316.336 212.339 315.931 211.88 315.64 211.29C315.351 210.7 315.207 210.01 315.207 209.222C315.207 208.426 315.351 207.732 315.64 207.139C315.931 206.545 316.336 206.085 316.853 205.756C317.373 205.428 317.978 205.264 318.667 205.264C319.357 205.264 319.96 205.428 320.477 205.756C320.997 206.085 321.402 206.545 321.69 207.139C321.982 207.732 322.128 208.426 322.128 209.222C322.128 210.01 321.982 210.7 321.69 211.29C321.402 211.88 320.997 212.339 320.477 212.667C319.96 212.995 319.357 213.159 318.667 213.159ZM318.667 212.105C319.191 212.105 319.622 211.971 319.96 211.702C320.298 211.434 320.548 211.081 320.711 210.643C320.873 210.206 320.954 209.732 320.954 209.222C320.954 208.711 320.873 208.236 320.711 207.795C320.548 207.354 320.298 206.998 319.96 206.726C319.622 206.454 319.191 206.318 318.667 206.318C318.144 206.318 317.713 206.454 317.375 206.726C317.037 206.998 316.786 207.354 316.624 207.795C316.462 208.236 316.38 208.711 316.38 209.222C316.38 209.732 316.462 210.206 316.624 210.643C316.786 211.081 317.037 211.434 317.375 211.702C317.713 211.971 318.144 212.105 318.667 212.105ZM325.092 202.818V213H323.919V202.818H325.092ZM330.443 213.159C329.707 213.159 329.072 212.997 328.538 212.672C328.008 212.344 327.599 211.886 327.31 211.3C327.025 210.71 326.883 210.024 326.883 209.241C326.883 208.459 327.025 207.77 327.31 207.173C327.599 206.573 328 206.106 328.514 205.771C329.031 205.433 329.634 205.264 330.323 205.264C330.721 205.264 331.114 205.331 331.502 205.463C331.889 205.596 332.242 205.811 332.56 206.109C332.879 206.404 333.132 206.795 333.321 207.283C333.51 207.77 333.604 208.37 333.604 209.082V209.58H327.718V208.565H332.411C332.411 208.134 332.325 207.75 332.153 207.412C331.984 207.074 331.742 206.807 331.427 206.612C331.115 206.416 330.747 206.318 330.323 206.318C329.856 206.318 329.452 206.434 329.11 206.666C328.772 206.895 328.512 207.193 328.33 207.561C328.147 207.929 328.056 208.323 328.056 208.744V209.42C328.056 209.997 328.156 210.486 328.354 210.887C328.557 211.285 328.837 211.588 329.195 211.797C329.553 212.002 329.969 212.105 330.443 212.105C330.751 212.105 331.029 212.062 331.278 211.976C331.53 211.886 331.747 211.754 331.929 211.578C332.111 211.399 332.252 211.177 332.352 210.912L333.485 211.23C333.366 211.615 333.165 211.953 332.884 212.244C332.602 212.533 332.254 212.758 331.84 212.92C331.425 213.08 330.96 213.159 330.443 213.159ZM338.492 213.159C337.776 213.159 337.159 212.99 336.642 212.652C336.125 212.314 335.727 211.848 335.449 211.255C335.171 210.662 335.031 209.984 335.031 209.222C335.031 208.446 335.174 207.762 335.459 207.168C335.747 206.572 336.148 206.106 336.662 205.771C337.179 205.433 337.782 205.264 338.472 205.264C339.009 205.264 339.493 205.364 339.923 205.563C340.354 205.761 340.707 206.04 340.982 206.398C341.257 206.756 341.428 207.173 341.494 207.651H340.321C340.232 207.303 340.033 206.994 339.725 206.726C339.42 206.454 339.009 206.318 338.492 206.318C338.034 206.318 337.633 206.438 337.288 206.676C336.947 206.911 336.68 207.245 336.488 207.675C336.299 208.103 336.205 208.605 336.205 209.182C336.205 209.772 336.297 210.286 336.483 210.723C336.672 211.161 336.937 211.5 337.278 211.742C337.623 211.984 338.028 212.105 338.492 212.105C338.796 212.105 339.073 212.052 339.322 211.946C339.57 211.84 339.781 211.688 339.953 211.489C340.126 211.29 340.248 211.051 340.321 210.773H341.494C341.428 211.224 341.264 211.63 341.002 211.991C340.744 212.349 340.401 212.634 339.973 212.846C339.549 213.055 339.055 213.159 338.492 213.159ZM348.022 209.878V205.364H349.195V213H348.022V211.707H347.943C347.764 212.095 347.485 212.425 347.107 212.697C346.729 212.965 346.252 213.099 345.676 213.099C345.198 213.099 344.774 212.995 344.403 212.786C344.032 212.574 343.74 212.256 343.528 211.832C343.316 211.404 343.21 210.866 343.21 210.216V205.364H344.383V210.136C344.383 210.693 344.539 211.137 344.85 211.469C345.165 211.8 345.566 211.966 346.053 211.966C346.345 211.966 346.642 211.891 346.943 211.742C347.248 211.593 347.503 211.364 347.709 211.056C347.918 210.748 348.022 210.355 348.022 209.878ZM352.518 202.818V213H351.344V202.818H352.518ZM356.914 213.179C356.43 213.179 355.991 213.088 355.596 212.906C355.202 212.72 354.889 212.453 354.657 212.105C354.425 211.754 354.309 211.33 354.309 210.832C354.309 210.395 354.395 210.04 354.567 209.768C354.74 209.493 354.97 209.278 355.258 209.122C355.547 208.966 355.865 208.85 356.213 208.774C356.564 208.695 356.917 208.632 357.272 208.585C357.736 208.526 358.112 208.481 358.4 208.451C358.692 208.418 358.904 208.363 359.037 208.287C359.173 208.211 359.241 208.078 359.241 207.889V207.849C359.241 207.359 359.106 206.978 358.838 206.706C358.573 206.434 358.17 206.298 357.63 206.298C357.07 206.298 356.63 206.421 356.312 206.666C355.994 206.911 355.77 207.173 355.641 207.452L354.527 207.054C354.726 206.59 354.991 206.229 355.323 205.97C355.658 205.708 356.022 205.526 356.417 205.423C356.814 205.317 357.205 205.264 357.59 205.264C357.835 205.264 358.117 205.294 358.435 205.354C358.757 205.41 359.066 205.528 359.365 205.707C359.666 205.886 359.917 206.156 360.116 206.517C360.314 206.878 360.414 207.362 360.414 207.969V213H359.241V211.966H359.181C359.101 212.132 358.969 212.309 358.783 212.498C358.598 212.687 358.351 212.848 358.042 212.98C357.734 213.113 357.358 213.179 356.914 213.179ZM357.093 212.125C357.557 212.125 357.948 212.034 358.266 211.852C358.588 211.669 358.83 211.434 358.992 211.146C359.158 210.857 359.241 210.554 359.241 210.236V209.162C359.191 209.222 359.081 209.276 358.912 209.326C358.747 209.372 358.554 209.414 358.336 209.45C358.12 209.483 357.91 209.513 357.704 209.54C357.502 209.563 357.338 209.583 357.212 209.599C356.907 209.639 356.622 209.704 356.357 209.793C356.095 209.88 355.883 210.01 355.721 210.186C355.562 210.358 355.482 210.594 355.482 210.892C355.482 211.3 355.633 211.608 355.934 211.817C356.239 212.022 356.625 212.125 357.093 212.125ZM362.555 213V205.364H363.689V206.517H363.768C363.908 206.139 364.159 205.833 364.524 205.597C364.889 205.362 365.3 205.244 365.757 205.244C365.843 205.244 365.951 205.246 366.08 205.249C366.209 205.253 366.307 205.258 366.373 205.264V206.457C366.334 206.447 366.243 206.433 366.1 206.413C365.961 206.389 365.813 206.378 365.658 206.378C365.286 206.378 364.955 206.456 364.663 206.612C364.375 206.764 364.146 206.976 363.977 207.248C363.811 207.516 363.729 207.823 363.729 208.168V213H362.555ZM373.949 213.179C373.465 213.179 373.026 213.088 372.631 212.906C372.237 212.72 371.924 212.453 371.692 212.105C371.46 211.754 371.344 211.33 371.344 210.832C371.344 210.395 371.43 210.04 371.602 209.768C371.775 209.493 372.005 209.278 372.293 209.122C372.582 208.966 372.9 208.85 373.248 208.774C373.599 208.695 373.952 208.632 374.307 208.585C374.771 208.526 375.147 208.481 375.435 208.451C375.727 208.418 375.939 208.363 376.072 208.287C376.208 208.211 376.276 208.078 376.276 207.889V207.849C376.276 207.359 376.141 206.978 375.873 206.706C375.608 206.434 375.205 206.298 374.665 206.298C374.105 206.298 373.666 206.421 373.347 206.666C373.029 206.911 372.805 207.173 372.676 207.452L371.563 207.054C371.761 206.59 372.027 206.229 372.358 205.97C372.693 205.708 373.057 205.526 373.452 205.423C373.85 205.317 374.241 205.264 374.625 205.264C374.87 205.264 375.152 205.294 375.47 205.354C375.792 205.41 376.102 205.528 376.4 205.707C376.702 205.886 376.952 206.156 377.151 206.517C377.35 206.878 377.449 207.362 377.449 207.969V213H376.276V211.966H376.216C376.136 212.132 376.004 212.309 375.818 212.498C375.633 212.687 375.386 212.848 375.078 212.98C374.769 213.113 374.393 213.179 373.949 213.179ZM374.128 212.125C374.592 212.125 374.983 212.034 375.301 211.852C375.623 211.669 375.865 211.434 376.027 211.146C376.193 210.857 376.276 210.554 376.276 210.236V209.162C376.226 209.222 376.117 209.276 375.948 209.326C375.782 209.372 375.59 209.414 375.371 209.45C375.155 209.483 374.945 209.513 374.739 209.54C374.537 209.563 374.373 209.583 374.247 209.599C373.942 209.639 373.657 209.704 373.392 209.793C373.13 209.88 372.918 210.01 372.756 210.186C372.597 210.358 372.517 210.594 372.517 210.892C372.517 211.3 372.668 211.608 372.97 211.817C373.274 212.022 373.661 212.125 374.128 212.125ZM380.764 208.406V213H379.59V205.364H380.724V206.557H380.823C381.002 206.169 381.274 205.857 381.639 205.622C382.003 205.384 382.474 205.264 383.051 205.264C383.568 205.264 384.02 205.37 384.408 205.582C384.796 205.791 385.097 206.109 385.313 206.537C385.528 206.961 385.636 207.498 385.636 208.148V213H384.463V208.227C384.463 207.627 384.307 207.16 383.995 206.825C383.684 206.487 383.256 206.318 382.713 206.318C382.338 206.318 382.003 206.399 381.708 206.562C381.417 206.724 381.186 206.961 381.017 207.273C380.848 207.584 380.764 207.962 380.764 208.406ZM390.663 213.159C390.027 213.159 389.465 212.998 388.978 212.677C388.491 212.352 388.11 211.895 387.835 211.305C387.56 210.711 387.422 210.01 387.422 209.202C387.422 208.4 387.56 207.704 387.835 207.114C388.11 206.524 388.493 206.068 388.983 205.746C389.474 205.425 390.04 205.264 390.683 205.264C391.18 205.264 391.573 205.347 391.862 205.513C392.153 205.675 392.375 205.861 392.528 206.07C392.684 206.275 392.805 206.444 392.891 206.577H392.99V202.818H394.163V213H393.03V211.827H392.891C392.805 211.966 392.682 212.142 392.523 212.354C392.364 212.563 392.137 212.75 391.842 212.915C391.547 213.078 391.154 213.159 390.663 213.159ZM390.823 212.105C391.293 212.105 391.691 211.982 392.016 211.737C392.341 211.489 392.587 211.146 392.756 210.708C392.926 210.267 393.01 209.759 393.01 209.182C393.01 208.612 392.927 208.113 392.761 207.685C392.596 207.255 392.35 206.92 392.026 206.681C391.701 206.439 391.3 206.318 390.823 206.318C390.325 206.318 389.911 206.446 389.58 206.701C389.252 206.953 389.005 207.296 388.839 207.73C388.676 208.161 388.595 208.645 388.595 209.182C388.595 209.725 388.678 210.219 388.844 210.663C389.013 211.104 389.261 211.456 389.59 211.717C389.921 211.976 390.332 212.105 390.823 212.105ZM400.413 213V205.364H401.546V206.557H401.646C401.805 206.149 402.062 205.833 402.416 205.607C402.771 205.379 403.197 205.264 403.694 205.264C404.198 205.264 404.617 205.379 404.952 205.607C405.29 205.833 405.553 206.149 405.742 206.557H405.822C406.017 206.162 406.311 205.849 406.702 205.617C407.093 205.382 407.562 205.264 408.109 205.264C408.792 205.264 409.35 205.478 409.784 205.906C410.218 206.33 410.435 206.991 410.435 207.889V213H409.262V207.889C409.262 207.326 409.108 206.923 408.8 206.681C408.492 206.439 408.129 206.318 407.711 206.318C407.174 206.318 406.758 206.481 406.463 206.805C406.168 207.127 406.021 207.535 406.021 208.028V213H404.828V207.77C404.828 207.336 404.687 206.986 404.405 206.721C404.123 206.452 403.76 206.318 403.316 206.318C403.011 206.318 402.726 206.399 402.461 206.562C402.199 206.724 401.987 206.95 401.825 207.238C401.666 207.523 401.586 207.853 401.586 208.227V213H400.413ZM414.828 213.179C414.344 213.179 413.905 213.088 413.51 212.906C413.116 212.72 412.803 212.453 412.571 212.105C412.339 211.754 412.223 211.33 412.223 210.832C412.223 210.395 412.309 210.04 412.481 209.768C412.654 209.493 412.884 209.278 413.172 209.122C413.461 208.966 413.779 208.85 414.127 208.774C414.478 208.695 414.831 208.632 415.186 208.585C415.65 208.526 416.026 208.481 416.314 208.451C416.606 208.418 416.818 208.363 416.951 208.287C417.087 208.211 417.155 208.078 417.155 207.889V207.849C417.155 207.359 417.02 206.978 416.752 206.706C416.487 206.434 416.084 206.298 415.544 206.298C414.984 206.298 414.544 206.421 414.226 206.666C413.908 206.911 413.684 207.173 413.555 207.452L412.441 207.054C412.64 206.59 412.906 206.229 413.237 205.97C413.572 205.708 413.936 205.526 414.331 205.423C414.728 205.317 415.12 205.264 415.504 205.264C415.749 205.264 416.031 205.294 416.349 205.354C416.671 205.41 416.981 205.528 417.279 205.707C417.58 205.886 417.831 206.156 418.03 206.517C418.228 206.878 418.328 207.362 418.328 207.969V213H417.155V211.966H417.095C417.015 212.132 416.883 212.309 416.697 212.498C416.512 212.687 416.265 212.848 415.956 212.98C415.648 213.113 415.272 213.179 414.828 213.179ZM415.007 212.125C415.471 212.125 415.862 212.034 416.18 211.852C416.502 211.669 416.744 211.434 416.906 211.146C417.072 210.857 417.155 210.554 417.155 210.236V209.162C417.105 209.222 416.995 209.276 416.826 209.326C416.661 209.372 416.468 209.414 416.25 209.45C416.034 209.483 415.824 209.513 415.618 209.54C415.416 209.563 415.252 209.583 415.126 209.599C414.821 209.639 414.536 209.704 414.271 209.793C414.009 209.88 413.797 210.01 413.635 210.186C413.476 210.358 413.396 210.594 413.396 210.892C413.396 211.3 413.547 211.608 413.848 211.817C414.153 212.022 414.54 212.125 415.007 212.125ZM423.79 205.364V206.358H419.833V205.364H423.79ZM420.986 203.534H422.16V210.813C422.16 211.144 422.208 211.393 422.304 211.558C422.403 211.721 422.529 211.83 422.682 211.886C422.838 211.939 423.002 211.966 423.174 211.966C423.303 211.966 423.409 211.959 423.492 211.946C423.575 211.929 423.641 211.916 423.691 211.906L423.93 212.96C423.85 212.99 423.739 213.02 423.597 213.05C423.454 213.083 423.273 213.099 423.055 213.099C422.723 213.099 422.398 213.028 422.08 212.886C421.765 212.743 421.503 212.526 421.295 212.234C421.089 211.943 420.986 211.575 420.986 211.131V203.534ZM428.675 213.159C427.939 213.159 427.304 212.997 426.771 212.672C426.241 212.344 425.831 211.886 425.543 211.3C425.258 210.71 425.115 210.024 425.115 209.241C425.115 208.459 425.258 207.77 425.543 207.173C425.831 206.573 426.232 206.106 426.746 205.771C427.263 205.433 427.866 205.264 428.556 205.264C428.953 205.264 429.346 205.331 429.734 205.463C430.122 205.596 430.475 205.811 430.793 206.109C431.111 206.404 431.365 206.795 431.554 207.283C431.742 207.77 431.837 208.37 431.837 209.082V209.58H425.951V208.565H430.644C430.644 208.134 430.558 207.75 430.385 207.412C430.216 207.074 429.974 206.807 429.659 206.612C429.348 206.416 428.98 206.318 428.556 206.318C428.088 206.318 427.684 206.434 427.343 206.666C427.005 206.895 426.744 207.193 426.562 207.561C426.38 207.929 426.289 208.323 426.289 208.744V209.42C426.289 209.997 426.388 210.486 426.587 210.887C426.789 211.285 427.069 211.588 427.427 211.797C427.785 212.002 428.201 212.105 428.675 212.105C428.983 212.105 429.262 212.062 429.51 211.976C429.762 211.886 429.979 211.754 430.161 211.578C430.344 211.399 430.485 211.177 430.584 210.912L431.718 211.23C431.598 211.615 431.398 211.953 431.116 212.244C430.834 212.533 430.486 212.758 430.072 212.92C429.658 213.08 429.192 213.159 428.675 213.159ZM433.622 213V205.364H434.755V206.517H434.835C434.974 206.139 435.226 205.833 435.59 205.597C435.955 205.362 436.366 205.244 436.823 205.244C436.91 205.244 437.017 205.246 437.147 205.249C437.276 205.253 437.374 205.258 437.44 205.264V206.457C437.4 206.447 437.309 206.433 437.166 206.413C437.027 206.389 436.88 206.378 436.724 206.378C436.353 206.378 436.021 206.456 435.73 206.612C435.441 206.764 435.213 206.976 435.044 207.248C434.878 207.516 434.795 207.823 434.795 208.168V213H433.622ZM438.831 213V205.364H440.004V213H438.831ZM439.427 204.091C439.199 204.091 439.001 204.013 438.836 203.857C438.673 203.701 438.592 203.514 438.592 203.295C438.592 203.077 438.673 202.889 438.836 202.734C439.001 202.578 439.199 202.5 439.427 202.5C439.656 202.5 439.852 202.578 440.014 202.734C440.18 202.889 440.263 203.077 440.263 203.295C440.263 203.514 440.18 203.701 440.014 203.857C439.852 204.013 439.656 204.091 439.427 204.091ZM444.4 213.179C443.916 213.179 443.477 213.088 443.083 212.906C442.688 212.72 442.375 212.453 442.143 212.105C441.911 211.754 441.795 211.33 441.795 210.832C441.795 210.395 441.881 210.04 442.054 209.768C442.226 209.493 442.456 209.278 442.745 209.122C443.033 208.966 443.351 208.85 443.699 208.774C444.05 208.695 444.403 208.632 444.758 208.585C445.222 208.526 445.598 208.481 445.887 208.451C446.178 208.418 446.39 208.363 446.523 208.287C446.659 208.211 446.727 208.078 446.727 207.889V207.849C446.727 207.359 446.593 206.978 446.324 206.706C446.059 206.434 445.656 206.298 445.116 206.298C444.556 206.298 444.117 206.421 443.799 206.666C443.48 206.911 443.257 207.173 443.127 207.452L442.014 207.054C442.213 206.59 442.478 206.229 442.809 205.97C443.144 205.708 443.509 205.526 443.903 205.423C444.301 205.317 444.692 205.264 445.076 205.264C445.322 205.264 445.603 205.294 445.921 205.354C446.243 205.41 446.553 205.528 446.851 205.707C447.153 205.886 447.403 206.156 447.602 206.517C447.801 206.878 447.9 207.362 447.9 207.969V213H446.727V211.966H446.667C446.588 212.132 446.455 212.309 446.269 212.498C446.084 212.687 445.837 212.848 445.529 212.98C445.22 213.113 444.844 213.179 444.4 213.179ZM444.579 212.125C445.043 212.125 445.434 212.034 445.752 211.852C446.074 211.669 446.316 211.434 446.478 211.146C446.644 210.857 446.727 210.554 446.727 210.236V209.162C446.677 209.222 446.568 209.276 446.399 209.326C446.233 209.372 446.041 209.414 445.822 209.45C445.607 209.483 445.396 209.513 445.191 209.54C444.988 209.563 444.824 209.583 444.698 209.599C444.393 209.639 444.108 209.704 443.843 209.793C443.581 209.88 443.369 210.01 443.207 210.186C443.048 210.358 442.968 210.594 442.968 210.892C442.968 211.3 443.119 211.608 443.421 211.817C443.726 212.022 444.112 212.125 444.579 212.125ZM451.215 202.818V213H450.042V202.818H451.215ZM458.773 207.074L457.719 207.372C457.653 207.197 457.555 207.026 457.426 206.86C457.3 206.691 457.127 206.552 456.909 206.442C456.69 206.333 456.41 206.278 456.068 206.278C455.601 206.278 455.212 206.386 454.9 206.602C454.592 206.814 454.438 207.084 454.438 207.412C454.438 207.704 454.544 207.934 454.756 208.103C454.968 208.272 455.3 208.413 455.75 208.526L456.884 208.804C457.567 208.97 458.075 209.223 458.41 209.565C458.745 209.903 458.912 210.339 458.912 210.872C458.912 211.31 458.786 211.701 458.534 212.045C458.286 212.39 457.938 212.662 457.49 212.861C457.043 213.06 456.523 213.159 455.929 213.159C455.15 213.159 454.506 212.99 453.995 212.652C453.485 212.314 453.162 211.82 453.026 211.17L454.139 210.892C454.246 211.303 454.446 211.611 454.741 211.817C455.039 212.022 455.429 212.125 455.909 212.125C456.456 212.125 456.89 212.009 457.212 211.777C457.537 211.542 457.699 211.26 457.699 210.932C457.699 210.667 457.606 210.445 457.421 210.266C457.235 210.083 456.95 209.947 456.566 209.858L455.293 209.56C454.594 209.394 454.08 209.137 453.752 208.789C453.427 208.438 453.264 207.999 453.264 207.472C453.264 207.041 453.385 206.66 453.627 206.328C453.873 205.997 454.206 205.737 454.627 205.548C455.051 205.359 455.532 205.264 456.068 205.264C456.824 205.264 457.417 205.43 457.848 205.761C458.282 206.093 458.591 206.53 458.773 207.074ZM467.499 213.159C466.863 213.159 466.301 212.998 465.814 212.677C465.327 212.352 464.946 211.895 464.671 211.305C464.395 210.711 464.258 210.01 464.258 209.202C464.258 208.4 464.395 207.704 464.671 207.114C464.946 206.524 465.328 206.068 465.819 205.746C466.31 205.425 466.876 205.264 467.519 205.264C468.016 205.264 468.409 205.347 468.698 205.513C468.989 205.675 469.211 205.861 469.364 206.07C469.52 206.275 469.64 206.444 469.727 206.577H469.826V202.818H470.999V213H469.866V211.827H469.727C469.64 211.966 469.518 212.142 469.359 212.354C469.2 212.563 468.973 212.75 468.678 212.915C468.383 213.078 467.99 213.159 467.499 213.159ZM467.658 212.105C468.129 212.105 468.527 211.982 468.852 211.737C469.176 211.489 469.423 211.146 469.592 210.708C469.761 210.267 469.846 209.759 469.846 209.182C469.846 208.612 469.763 208.113 469.597 207.685C469.432 207.255 469.186 206.92 468.862 206.681C468.537 206.439 468.136 206.318 467.658 206.318C467.161 206.318 466.747 206.446 466.416 206.701C466.087 206.953 465.841 207.296 465.675 207.73C465.512 208.161 465.431 208.645 465.431 209.182C465.431 209.725 465.514 210.219 465.68 210.663C465.849 211.104 466.097 211.456 466.426 211.717C466.757 211.976 467.168 212.105 467.658 212.105ZM473.311 213V205.364H474.484V213H473.311ZM473.908 204.091C473.679 204.091 473.482 204.013 473.316 203.857C473.154 203.701 473.073 203.514 473.073 203.295C473.073 203.077 473.154 202.889 473.316 202.734C473.482 202.578 473.679 202.5 473.908 202.5C474.136 202.5 474.332 202.578 474.494 202.734C474.66 202.889 474.743 203.077 474.743 203.295C474.743 203.514 474.66 203.701 474.494 203.857C474.332 204.013 474.136 204.091 473.908 204.091ZM482.043 207.074L480.989 207.372C480.922 207.197 480.824 207.026 480.695 206.86C480.569 206.691 480.397 206.552 480.178 206.442C479.959 206.333 479.679 206.278 479.338 206.278C478.871 206.278 478.481 206.386 478.17 206.602C477.861 206.814 477.707 207.084 477.707 207.412C477.707 207.704 477.813 207.934 478.025 208.103C478.238 208.272 478.569 208.413 479.02 208.526L480.153 208.804C480.836 208.97 481.345 209.223 481.68 209.565C482.014 209.903 482.182 210.339 482.182 210.872C482.182 211.31 482.056 211.701 481.804 212.045C481.555 212.39 481.207 212.662 480.76 212.861C480.312 213.06 479.792 213.159 479.199 213.159C478.42 213.159 477.775 212.99 477.265 212.652C476.754 212.314 476.431 211.82 476.295 211.17L477.409 210.892C477.515 211.303 477.716 211.611 478.011 211.817C478.309 212.022 478.698 212.125 479.179 212.125C479.726 212.125 480.16 212.009 480.481 211.777C480.806 211.542 480.969 211.26 480.969 210.932C480.969 210.667 480.876 210.445 480.69 210.266C480.505 210.083 480.22 209.947 479.835 209.858L478.562 209.56C477.863 209.394 477.349 209.137 477.021 208.789C476.696 208.438 476.534 207.999 476.534 207.472C476.534 207.041 476.655 206.66 476.897 206.328C477.142 205.997 477.475 205.737 477.896 205.548C478.32 205.359 478.801 205.264 479.338 205.264C480.094 205.264 480.687 205.43 481.118 205.761C481.552 206.093 481.86 206.53 482.043 207.074ZM487.05 213.159C486.334 213.159 485.718 212.99 485.201 212.652C484.684 212.314 484.286 211.848 484.008 211.255C483.729 210.662 483.59 209.984 483.59 209.222C483.59 208.446 483.732 207.762 484.017 207.168C484.306 206.572 484.707 206.106 485.221 205.771C485.738 205.433 486.341 205.264 487.03 205.264C487.567 205.264 488.051 205.364 488.482 205.563C488.913 205.761 489.266 206.04 489.541 206.398C489.816 206.756 489.987 207.173 490.053 207.651H488.88C488.79 207.303 488.591 206.994 488.283 206.726C487.978 206.454 487.567 206.318 487.05 206.318C486.593 206.318 486.192 206.438 485.847 206.676C485.506 206.911 485.239 207.245 485.047 207.675C484.858 208.103 484.763 208.605 484.763 209.182C484.763 209.772 484.856 210.286 485.042 210.723C485.231 211.161 485.496 211.5 485.837 211.742C486.182 211.984 486.586 212.105 487.05 212.105C487.355 212.105 487.632 212.052 487.88 211.946C488.129 211.84 488.339 211.688 488.512 211.489C488.684 211.29 488.807 211.051 488.88 210.773H490.053C489.987 211.224 489.823 211.63 489.561 211.991C489.302 212.349 488.959 212.634 488.532 212.846C488.107 213.055 487.614 213.159 487.05 213.159ZM494.87 213.159C494.181 213.159 493.576 212.995 493.056 212.667C492.539 212.339 492.134 211.88 491.843 211.29C491.554 210.7 491.41 210.01 491.41 209.222C491.41 208.426 491.554 207.732 491.843 207.139C492.134 206.545 492.539 206.085 493.056 205.756C493.576 205.428 494.181 205.264 494.87 205.264C495.56 205.264 496.163 205.428 496.68 205.756C497.2 206.085 497.605 206.545 497.893 207.139C498.185 207.732 498.331 208.426 498.331 209.222C498.331 210.01 498.185 210.7 497.893 211.29C497.605 211.88 497.2 212.339 496.68 212.667C496.163 212.995 495.56 213.159 494.87 213.159ZM494.87 212.105C495.394 212.105 495.825 211.971 496.163 211.702C496.501 211.434 496.751 211.081 496.914 210.643C497.076 210.206 497.157 209.732 497.157 209.222C497.157 208.711 497.076 208.236 496.914 207.795C496.751 207.354 496.501 206.998 496.163 206.726C495.825 206.454 495.394 206.318 494.87 206.318C494.347 206.318 493.916 206.454 493.578 206.726C493.24 206.998 492.99 207.354 492.827 207.795C492.665 208.236 492.584 208.711 492.584 209.222C492.584 209.732 492.665 210.206 492.827 210.643C492.99 211.081 493.24 211.434 493.578 211.702C493.916 211.971 494.347 212.105 494.87 212.105ZM506.093 205.364L503.269 213H502.076L499.252 205.364H500.524L502.632 211.449H502.712L504.82 205.364H506.093ZM510.57 213.159C509.834 213.159 509.199 212.997 508.665 212.672C508.135 212.344 507.726 211.886 507.437 211.3C507.152 210.71 507.01 210.024 507.01 209.241C507.01 208.459 507.152 207.77 507.437 207.173C507.726 206.573 508.127 206.106 508.641 205.771C509.158 205.433 509.761 205.264 510.45 205.264C510.848 205.264 511.241 205.331 511.628 205.463C512.016 205.596 512.369 205.811 512.687 206.109C513.006 206.404 513.259 206.795 513.448 207.283C513.637 207.77 513.731 208.37 513.731 209.082V209.58H507.845V208.565H512.538C512.538 208.134 512.452 207.75 512.28 207.412C512.111 207.074 511.869 206.807 511.554 206.612C511.242 206.416 510.874 206.318 510.45 206.318C509.983 206.318 509.579 206.434 509.237 206.666C508.899 206.895 508.639 207.193 508.457 207.561C508.274 207.929 508.183 208.323 508.183 208.744V209.42C508.183 209.997 508.283 210.486 508.481 210.887C508.684 211.285 508.964 211.588 509.322 211.797C509.68 212.002 510.096 212.105 510.57 212.105C510.878 212.105 511.156 212.062 511.405 211.976C511.657 211.886 511.874 211.754 512.056 211.578C512.238 211.399 512.379 211.177 512.479 210.912L513.612 211.23C513.493 211.615 513.292 211.953 513.011 212.244C512.729 212.533 512.381 212.758 511.967 212.92C511.552 213.08 511.087 213.159 510.57 213.159ZM515.516 213V205.364H516.65V206.517H516.729C516.869 206.139 517.12 205.833 517.485 205.597C517.85 205.362 518.261 205.244 518.718 205.244C518.804 205.244 518.912 205.246 519.041 205.249C519.17 205.253 519.268 205.258 519.334 205.264V206.457C519.295 206.447 519.204 206.433 519.061 206.413C518.922 206.389 518.774 206.378 518.619 206.378C518.247 206.378 517.916 206.456 517.624 206.612C517.336 206.764 517.107 206.976 516.938 207.248C516.772 207.516 516.69 207.823 516.69 208.168V213H515.516ZM521.713 215.864C521.514 215.864 521.337 215.847 521.181 215.814C521.026 215.784 520.918 215.754 520.858 215.724L521.157 214.69C521.442 214.763 521.693 214.79 521.912 214.77C522.131 214.75 522.325 214.652 522.494 214.477C522.666 214.304 522.824 214.024 522.966 213.636L523.185 213.04L520.361 205.364H521.634L523.742 211.449H523.821L525.929 205.364H527.202L523.96 214.114C523.815 214.508 523.634 214.835 523.419 215.093C523.203 215.355 522.953 215.549 522.668 215.675C522.386 215.801 522.068 215.864 521.713 215.864Z" fill="black" fill-opacity="0.75"/>
<path opacity="0.3" d="M378.266 235.273V244H377.209V235.273H378.266ZM380.385 244V235.273H383.436C384.044 235.273 384.545 235.378 384.94 235.588C385.335 235.795 385.629 236.075 385.822 236.428C386.016 236.777 386.112 237.165 386.112 237.591C386.112 237.966 386.045 238.276 385.912 238.52C385.781 238.764 385.608 238.957 385.392 239.099C385.179 239.241 384.947 239.347 384.697 239.415V239.5C384.964 239.517 385.233 239.611 385.503 239.781C385.773 239.952 385.999 240.196 386.18 240.514C386.362 240.832 386.453 241.222 386.453 241.682C386.453 242.119 386.354 242.513 386.155 242.862C385.956 243.212 385.642 243.489 385.213 243.693C384.784 243.898 384.226 244 383.538 244H380.385ZM381.442 243.063H383.538C384.229 243.063 384.719 242.929 385.009 242.662C385.301 242.392 385.447 242.065 385.447 241.682C385.447 241.386 385.372 241.114 385.222 240.864C385.071 240.611 384.857 240.409 384.578 240.259C384.3 240.105 383.97 240.028 383.589 240.028H381.442V243.063ZM381.442 239.108H383.402C383.72 239.108 384.007 239.045 384.263 238.92C384.521 238.795 384.726 238.619 384.876 238.392C385.03 238.165 385.107 237.898 385.107 237.591C385.107 237.207 384.973 236.882 384.706 236.615C384.439 236.345 384.016 236.21 383.436 236.21H381.442V239.108ZM388.19 235.273H389.451L392.417 242.517H392.519L395.485 235.273H396.746V244H395.758V237.369H395.673L392.945 244H391.991L389.263 237.369H389.178V244H388.19V235.273ZM402.24 244V235.273H405.189C405.871 235.273 406.431 235.389 406.868 235.622C407.306 235.852 407.63 236.169 407.84 236.572C408.05 236.976 408.155 237.435 408.155 237.949C408.155 238.463 408.05 238.919 407.84 239.317C407.63 239.715 407.307 240.027 406.873 240.254C406.438 240.479 405.882 240.591 405.206 240.591H402.82V239.636H405.172C405.638 239.636 406.013 239.568 406.297 239.432C406.584 239.295 406.792 239.102 406.919 238.852C407.05 238.599 407.115 238.298 407.115 237.949C407.115 237.599 407.05 237.294 406.919 237.033C406.789 236.771 406.58 236.57 406.293 236.428C406.006 236.283 405.627 236.21 405.155 236.21H403.297V244H402.24ZM406.348 240.08L408.496 244H407.269L405.155 240.08H406.348ZM412.454 244.136C411.823 244.136 411.279 243.997 410.822 243.719C410.367 243.438 410.016 243.045 409.769 242.543C409.525 242.037 409.403 241.449 409.403 240.778C409.403 240.108 409.525 239.517 409.769 239.006C410.016 238.491 410.36 238.091 410.8 237.804C411.244 237.514 411.761 237.369 412.352 237.369C412.692 237.369 413.029 237.426 413.362 237.54C413.694 237.653 413.996 237.838 414.269 238.094C414.542 238.347 414.759 238.682 414.921 239.099C415.083 239.517 415.164 240.031 415.164 240.642V241.068H410.119V240.199H414.141C414.141 239.83 414.067 239.5 413.92 239.21C413.775 238.92 413.567 238.692 413.298 238.524C413.031 238.357 412.715 238.273 412.352 238.273C411.951 238.273 411.604 238.372 411.312 238.571C411.022 238.767 410.799 239.023 410.643 239.338C410.487 239.653 410.408 239.991 410.408 240.352V240.932C410.408 241.426 410.494 241.845 410.664 242.189C410.837 242.53 411.077 242.79 411.384 242.969C411.691 243.145 412.048 243.233 412.454 243.233C412.718 243.233 412.957 243.196 413.17 243.122C413.386 243.045 413.572 242.932 413.728 242.781C413.884 242.628 414.005 242.438 414.09 242.21L415.062 242.483C414.96 242.813 414.788 243.102 414.546 243.352C414.305 243.599 414.006 243.793 413.651 243.932C413.296 244.068 412.897 244.136 412.454 244.136ZM421.33 238.92L420.427 239.176C420.37 239.026 420.286 238.879 420.175 238.737C420.067 238.592 419.92 238.473 419.732 238.379C419.545 238.286 419.305 238.239 419.012 238.239C418.612 238.239 418.278 238.331 418.011 238.516C417.746 238.697 417.614 238.929 417.614 239.21C417.614 239.46 417.705 239.658 417.887 239.803C418.069 239.947 418.353 240.068 418.739 240.165L419.711 240.403C420.296 240.545 420.732 240.763 421.019 241.055C421.306 241.345 421.45 241.719 421.45 242.176C421.45 242.551 421.342 242.886 421.126 243.182C420.913 243.477 420.614 243.71 420.231 243.881C419.847 244.051 419.401 244.136 418.893 244.136C418.225 244.136 417.673 243.991 417.235 243.702C416.798 243.412 416.521 242.989 416.404 242.432L417.359 242.193C417.45 242.545 417.621 242.81 417.874 242.986C418.13 243.162 418.464 243.25 418.876 243.25C419.344 243.25 419.717 243.151 419.992 242.952C420.271 242.75 420.41 242.509 420.41 242.227C420.41 242 420.33 241.81 420.171 241.656C420.012 241.5 419.768 241.384 419.438 241.307L418.347 241.051C417.748 240.909 417.308 240.689 417.026 240.391C416.748 240.09 416.609 239.713 416.609 239.261C416.609 238.892 416.712 238.565 416.92 238.281C417.13 237.997 417.415 237.774 417.776 237.612C418.14 237.45 418.552 237.369 419.012 237.369C419.66 237.369 420.168 237.511 420.538 237.795C420.91 238.08 421.174 238.455 421.33 238.92ZM425.708 244.136C425.077 244.136 424.533 243.997 424.076 243.719C423.621 243.438 423.27 243.045 423.023 242.543C422.779 242.037 422.657 241.449 422.657 240.778C422.657 240.108 422.779 239.517 423.023 239.006C423.27 238.491 423.614 238.091 424.054 237.804C424.498 237.514 425.015 237.369 425.605 237.369C425.946 237.369 426.283 237.426 426.615 237.54C426.948 237.653 427.25 237.838 427.523 238.094C427.796 238.347 428.013 238.682 428.175 239.099C428.337 239.517 428.418 240.031 428.418 240.642V241.068H423.373V240.199H427.395C427.395 239.83 427.321 239.5 427.174 239.21C427.029 238.92 426.821 238.692 426.551 238.524C426.284 238.357 425.969 238.273 425.605 238.273C425.205 238.273 424.858 238.372 424.566 238.571C424.276 238.767 424.053 239.023 423.897 239.338C423.74 239.653 423.662 239.991 423.662 240.352V240.932C423.662 241.426 423.748 241.845 423.918 242.189C424.091 242.53 424.331 242.79 424.638 242.969C424.945 243.145 425.301 243.233 425.708 243.233C425.972 243.233 426.211 243.196 426.424 243.122C426.64 243.045 426.826 242.932 426.982 242.781C427.138 242.628 427.259 242.438 427.344 242.21L428.316 242.483C428.213 242.813 428.042 243.102 427.8 243.352C427.559 243.599 427.26 243.793 426.905 243.932C426.55 244.068 426.151 244.136 425.708 244.136ZM431.874 244.153C431.459 244.153 431.083 244.075 430.745 243.919C430.407 243.76 430.138 243.531 429.939 243.233C429.74 242.932 429.641 242.568 429.641 242.142C429.641 241.767 429.715 241.463 429.863 241.23C430.01 240.994 430.208 240.81 430.455 240.676C430.702 240.543 430.975 240.443 431.273 240.378C431.574 240.31 431.877 240.256 432.181 240.216C432.578 240.165 432.901 240.126 433.148 240.101C433.398 240.072 433.58 240.026 433.694 239.96C433.81 239.895 433.868 239.781 433.868 239.619V239.585C433.868 239.165 433.753 238.838 433.523 238.605C433.296 238.372 432.951 238.256 432.488 238.256C432.007 238.256 431.631 238.361 431.358 238.571C431.086 238.781 430.894 239.006 430.783 239.244L429.828 238.903C429.999 238.506 430.226 238.196 430.51 237.974C430.797 237.75 431.11 237.594 431.448 237.506C431.789 237.415 432.124 237.369 432.453 237.369C432.664 237.369 432.905 237.395 433.178 237.446C433.453 237.494 433.719 237.595 433.975 237.749C434.233 237.902 434.448 238.134 434.618 238.443C434.789 238.753 434.874 239.168 434.874 239.688V244H433.868V243.114H433.817C433.749 243.256 433.635 243.408 433.476 243.57C433.317 243.732 433.105 243.869 432.841 243.983C432.577 244.097 432.255 244.153 431.874 244.153ZM432.027 243.25C432.425 243.25 432.76 243.172 433.033 243.016C433.309 242.859 433.516 242.658 433.655 242.411C433.797 242.163 433.868 241.903 433.868 241.631V240.71C433.826 240.761 433.732 240.808 433.587 240.851C433.445 240.891 433.28 240.926 433.093 240.957C432.908 240.986 432.728 241.011 432.551 241.034C432.378 241.054 432.238 241.071 432.13 241.085C431.868 241.119 431.624 241.175 431.397 241.251C431.172 241.325 430.99 241.438 430.851 241.588C430.715 241.736 430.647 241.938 430.647 242.193C430.647 242.543 430.776 242.807 431.034 242.986C431.296 243.162 431.627 243.25 432.027 243.25ZM436.71 244V237.455H437.681V238.443H437.749C437.869 238.119 438.085 237.857 438.397 237.655C438.71 237.453 439.062 237.352 439.454 237.352C439.528 237.352 439.62 237.354 439.731 237.357C439.842 237.359 439.925 237.364 439.982 237.369V238.392C439.948 238.384 439.87 238.371 439.748 238.354C439.629 238.334 439.502 238.324 439.369 238.324C439.05 238.324 438.766 238.391 438.516 238.524C438.269 238.655 438.073 238.837 437.928 239.07C437.786 239.3 437.715 239.563 437.715 239.858V244H436.71ZM443.634 244.136C443.021 244.136 442.492 243.991 442.049 243.702C441.606 243.412 441.265 243.013 441.026 242.504C440.788 241.996 440.668 241.415 440.668 240.761C440.668 240.097 440.79 239.51 441.035 239.001C441.282 238.49 441.626 238.091 442.066 237.804C442.509 237.514 443.026 237.369 443.617 237.369C444.077 237.369 444.492 237.455 444.862 237.625C445.231 237.795 445.533 238.034 445.769 238.341C446.005 238.648 446.151 239.006 446.208 239.415H445.202C445.126 239.116 444.955 238.852 444.691 238.622C444.43 238.389 444.077 238.273 443.634 238.273C443.242 238.273 442.898 238.375 442.603 238.58C442.31 238.781 442.082 239.067 441.917 239.436C441.755 239.803 441.674 240.233 441.674 240.727C441.674 241.233 441.754 241.673 441.913 242.048C442.075 242.423 442.302 242.715 442.594 242.922C442.89 243.129 443.237 243.233 443.634 243.233C443.896 243.233 444.133 243.188 444.346 243.097C444.559 243.006 444.739 242.875 444.887 242.705C445.035 242.534 445.14 242.33 445.202 242.091H446.208C446.151 242.477 446.011 242.825 445.786 243.135C445.565 243.442 445.271 243.686 444.904 243.868C444.54 244.047 444.117 244.136 443.634 244.136ZM448.684 240.063V244H447.678V235.273H448.684V238.477H448.769C448.923 238.139 449.153 237.871 449.46 237.672C449.769 237.47 450.181 237.369 450.695 237.369C451.141 237.369 451.532 237.459 451.867 237.638C452.202 237.814 452.462 238.085 452.647 238.452C452.835 238.815 452.928 239.278 452.928 239.841V244H451.923V239.909C451.923 239.389 451.788 238.987 451.518 238.703C451.251 238.416 450.88 238.273 450.406 238.273C450.076 238.273 449.781 238.342 449.519 238.482C449.261 238.621 449.056 238.824 448.906 239.091C448.758 239.358 448.684 239.682 448.684 240.063Z" fill="black" fill-opacity="0.75"/>
<path d="M373.294 154.364C373.294 156.871 372.824 159.019 371.885 160.807C370.953 162.587 369.68 163.951 368.067 164.898C366.461 165.845 364.639 166.318 362.601 166.318C360.563 166.318 358.737 165.845 357.124 164.898C355.518 163.943 354.245 162.576 353.305 160.795C352.374 159.008 351.908 156.864 351.908 154.364C351.908 151.856 352.374 149.712 353.305 147.932C354.245 146.144 355.518 144.777 357.124 143.83C358.737 142.883 360.563 142.409 362.601 142.409C364.639 142.409 366.461 142.883 368.067 143.83C369.68 144.777 370.953 146.144 371.885 147.932C372.824 149.712 373.294 151.856 373.294 154.364ZM369.055 154.364C369.055 152.598 368.779 151.11 368.226 149.898C367.68 148.678 366.923 147.758 365.953 147.136C364.983 146.508 363.866 146.193 362.601 146.193C361.336 146.193 360.218 146.508 359.249 147.136C358.279 147.758 357.518 148.678 356.964 149.898C356.419 151.11 356.146 152.598 356.146 154.364C356.146 156.129 356.419 157.621 356.964 158.841C357.518 160.053 358.279 160.973 359.249 161.602C360.218 162.223 361.336 162.534 362.601 162.534C363.866 162.534 364.983 162.223 365.953 161.602C366.923 160.973 367.68 160.053 368.226 158.841C368.779 157.621 369.055 156.129 369.055 154.364ZM377.098 172.545V148.545H381.143V151.432H381.382C381.594 151.008 381.893 150.557 382.28 150.08C382.666 149.595 383.189 149.182 383.848 148.841C384.507 148.492 385.348 148.318 386.371 148.318C387.719 148.318 388.935 148.663 390.018 149.352C391.109 150.034 391.973 151.045 392.609 152.386C393.253 153.72 393.575 155.356 393.575 157.295C393.575 159.212 393.261 160.841 392.632 162.182C392.003 163.523 391.147 164.545 390.064 165.25C388.981 165.955 387.753 166.307 386.382 166.307C385.382 166.307 384.553 166.14 383.893 165.807C383.234 165.474 382.704 165.072 382.303 164.602C381.909 164.125 381.602 163.674 381.382 163.25H381.212V172.545H377.098ZM381.132 157.273C381.132 158.402 381.291 159.39 381.609 160.239C381.935 161.087 382.401 161.75 383.007 162.227C383.621 162.697 384.363 162.932 385.234 162.932C386.143 162.932 386.905 162.689 387.518 162.205C388.132 161.712 388.594 161.042 388.905 160.193C389.223 159.337 389.382 158.364 389.382 157.273C389.382 156.189 389.227 155.227 388.916 154.386C388.606 153.545 388.143 152.886 387.53 152.409C386.916 151.932 386.151 151.693 385.234 151.693C384.356 151.693 383.609 151.924 382.996 152.386C382.382 152.848 381.916 153.496 381.598 154.33C381.287 155.163 381.132 156.144 381.132 157.273ZM404.825 166.341C403.075 166.341 401.564 165.977 400.291 165.25C399.026 164.515 398.053 163.477 397.371 162.136C396.689 160.788 396.348 159.201 396.348 157.375C396.348 155.58 396.689 154.004 397.371 152.648C398.06 151.284 399.022 150.223 400.257 149.466C401.492 148.701 402.943 148.318 404.609 148.318C405.685 148.318 406.7 148.492 407.655 148.841C408.617 149.182 409.465 149.712 410.2 150.432C410.943 151.152 411.526 152.068 411.95 153.182C412.375 154.288 412.587 155.606 412.587 157.136V158.398H398.28V155.625H408.643C408.636 154.837 408.465 154.136 408.132 153.523C407.799 152.902 407.333 152.413 406.734 152.057C406.143 151.701 405.454 151.523 404.666 151.523C403.825 151.523 403.087 151.727 402.45 152.136C401.814 152.538 401.318 153.068 400.962 153.727C400.613 154.379 400.435 155.095 400.428 155.875V158.295C400.428 159.311 400.613 160.182 400.984 160.909C401.356 161.629 401.875 162.182 402.541 162.568C403.208 162.947 403.988 163.136 404.882 163.136C405.481 163.136 406.022 163.053 406.507 162.886C406.992 162.712 407.412 162.458 407.768 162.125C408.125 161.792 408.393 161.379 408.575 160.886L412.416 161.318C412.174 162.333 411.712 163.22 411.03 163.977C410.356 164.727 409.492 165.311 408.439 165.727C407.386 166.136 406.181 166.341 404.825 166.341ZM420.18 155.773V166H416.067V148.545H419.999V151.511H420.203C420.605 150.534 421.245 149.758 422.124 149.182C423.01 148.606 424.105 148.318 425.408 148.318C426.612 148.318 427.661 148.576 428.555 149.091C429.457 149.606 430.154 150.352 430.646 151.33C431.146 152.307 431.393 153.492 431.385 154.886V166H427.271V155.523C427.271 154.356 426.968 153.443 426.362 152.784C425.764 152.125 424.934 151.795 423.874 151.795C423.154 151.795 422.514 151.955 421.953 152.273C421.4 152.583 420.964 153.034 420.646 153.625C420.336 154.216 420.18 154.932 420.18 155.773ZM438.737 166H434.237L442.43 142.727H447.635L455.839 166H451.339L445.124 147.5H444.942L438.737 166ZM438.885 156.875H451.158V160.261H438.885V156.875ZM466.791 166H458.905V142.727H466.95C469.261 142.727 471.246 143.193 472.905 144.125C474.571 145.049 475.852 146.379 476.746 148.114C477.64 149.848 478.087 151.924 478.087 154.341C478.087 156.765 477.636 158.848 476.734 160.591C475.84 162.333 474.549 163.67 472.859 164.602C471.178 165.534 469.155 166 466.791 166ZM463.121 162.352H466.587C468.208 162.352 469.56 162.057 470.643 161.466C471.727 160.867 472.541 159.977 473.087 158.795C473.632 157.606 473.905 156.121 473.905 154.341C473.905 152.561 473.632 151.083 473.087 149.909C472.541 148.727 471.734 147.845 470.666 147.261C469.606 146.67 468.287 146.375 466.712 146.375H463.121V162.352Z" fill="black" fill-opacity="0.75"/>
<defs>
<clipPath id="clip0_904_14147">
<rect width="58" height="58" fill="white" transform="translate(386 54)"/>
</clipPath>
</defs>
</svg>
