<svg width="830" height="300" viewBox="0 0 830 300" fill="none" xmlns="http://www.w3.org/2000/svg">
<rect y="1.52588e-05" width="830" height="300" rx="3" fill="#F6F6F6"/>
<g clip-path="url(#clip0_904_14147)">
<path d="M423.341 53.2369L393.373 60.8949L385.02 90.6782L406.638 112.803L436.606 105.145L444.958 75.3615L423.341 53.2369Z" fill="#B8B8B8"/>
<path d="M430.075 97.2367L421.668 64.0793L397.158 87.9331L430.075 97.2367Z" fill="#B8B8B8"/>
<path d="M423.341 53.2377L421.668 64.0793L393.374 60.8957L423.341 53.2377Z" fill="#B8B8B8"/>
<path d="M393.373 60.895L397.158 87.9324L385.02 90.6782L393.373 60.895Z" fill="#B8B8B8"/>
<path d="M397.158 87.9331L406.638 112.804L430.075 97.2367L397.158 87.9331Z" fill="#6C6C6C"/>
<path d="M430.075 97.2367L444.959 75.3623L421.668 64.0793L430.075 97.2367Z" fill="#727272"/>
<path d="M430.075 97.2367L436.606 105.145L406.638 112.804L430.075 97.2367Z" fill="#3F3F3F"/>
<path d="M430.075 97.2367L444.959 75.3623L436.606 105.145L430.075 97.2367Z" fill="#555555"/>
<path d="M393.374 60.8957L421.668 64.0793L397.158 87.9331L393.374 60.8957Z" fill="#E1E1E1"/>
<path d="M423.341 53.2377L421.668 64.0793L444.959 75.3623L423.341 53.2377Z" fill="#939393"/>
<path d="M397.158 87.9331L406.638 112.804L385.021 90.6789L397.158 87.9331Z" fill="#5F5F5F"/>
</g>
<path d="M333.004 190.909C333.004 191.983 332.81 192.911 332.422 193.693C332.034 194.475 331.502 195.079 330.826 195.503C330.15 195.927 329.378 196.139 328.509 196.139C327.641 196.139 326.869 195.927 326.192 195.503C325.516 195.079 324.984 194.475 324.597 193.693C324.209 192.911 324.015 191.983 324.015 190.909C324.015 189.835 324.209 188.907 324.597 188.125C324.984 187.343 325.516 186.74 326.192 186.315C326.869 185.891 327.641 185.679 328.509 185.679C329.378 185.679 330.15 185.891 330.826 186.315C331.502 186.74 332.034 187.343 332.422 188.125C332.81 188.907 333.004 189.835 333.004 190.909ZM331.81 190.909C331.81 190.027 331.663 189.283 331.368 188.677C331.076 188.07 330.68 187.611 330.18 187.3C329.683 186.988 329.126 186.832 328.509 186.832C327.893 186.832 327.334 186.988 326.834 187.3C326.337 187.611 325.941 188.07 325.646 188.677C325.354 189.283 325.208 190.027 325.208 190.909C325.208 191.791 325.354 192.535 325.646 193.141C325.941 193.748 326.337 194.207 326.834 194.518C327.334 194.83 327.893 194.986 328.509 194.986C329.126 194.986 329.683 194.83 330.18 194.518C330.68 194.207 331.076 193.748 331.368 193.141C331.663 192.535 331.81 191.791 331.81 190.909ZM334.918 198.864V188.364H336.051V189.577H336.19C336.277 189.444 336.396 189.275 336.548 189.07C336.704 188.861 336.926 188.675 337.214 188.513C337.506 188.347 337.901 188.264 338.398 188.264C339.041 188.264 339.607 188.425 340.098 188.746C340.589 189.068 340.971 189.524 341.246 190.114C341.522 190.704 341.659 191.4 341.659 192.202C341.659 193.01 341.522 193.711 341.246 194.305C340.971 194.895 340.59 195.352 340.103 195.677C339.616 195.998 339.054 196.159 338.418 196.159C337.927 196.159 337.534 196.078 337.239 195.915C336.944 195.75 336.717 195.563 336.558 195.354C336.399 195.142 336.277 194.966 336.19 194.827H336.091V198.864H334.918ZM336.071 192.182C336.071 192.759 336.156 193.267 336.325 193.708C336.494 194.146 336.741 194.489 337.065 194.737C337.39 194.982 337.788 195.105 338.259 195.105C338.749 195.105 339.158 194.976 339.487 194.717C339.818 194.456 340.067 194.104 340.232 193.663C340.401 193.219 340.486 192.725 340.486 192.182C340.486 191.645 340.403 191.161 340.237 190.73C340.075 190.296 339.828 189.953 339.496 189.701C339.168 189.446 338.756 189.318 338.259 189.318C337.781 189.318 337.38 189.439 337.055 189.681C336.731 189.92 336.485 190.255 336.32 190.685C336.154 191.113 336.071 191.612 336.071 192.182ZM346.651 196.159C345.915 196.159 345.28 195.997 344.746 195.672C344.216 195.344 343.807 194.886 343.518 194.3C343.233 193.71 343.091 193.024 343.091 192.241C343.091 191.459 343.233 190.77 343.518 190.173C343.807 189.573 344.208 189.106 344.722 188.771C345.239 188.433 345.842 188.264 346.531 188.264C346.929 188.264 347.322 188.331 347.71 188.463C348.097 188.596 348.45 188.811 348.768 189.109C349.087 189.404 349.34 189.795 349.529 190.283C349.718 190.77 349.812 191.37 349.812 192.082V192.58H343.926V191.565H348.619C348.619 191.134 348.533 190.75 348.361 190.412C348.192 190.074 347.95 189.807 347.635 189.612C347.323 189.416 346.955 189.318 346.531 189.318C346.064 189.318 345.66 189.434 345.318 189.666C344.98 189.895 344.72 190.193 344.538 190.561C344.355 190.929 344.264 191.323 344.264 191.744V192.42C344.264 192.997 344.364 193.486 344.562 193.887C344.765 194.285 345.045 194.588 345.403 194.797C345.761 195.002 346.177 195.105 346.651 195.105C346.959 195.105 347.237 195.062 347.486 194.976C347.738 194.886 347.955 194.754 348.137 194.578C348.319 194.399 348.46 194.177 348.56 193.912L349.693 194.23C349.574 194.615 349.373 194.953 349.092 195.244C348.81 195.533 348.462 195.758 348.048 195.92C347.633 196.08 347.168 196.159 346.651 196.159ZM352.771 191.406V196H351.597V188.364H352.731V189.557H352.83C353.009 189.169 353.281 188.857 353.646 188.622C354.01 188.384 354.481 188.264 355.058 188.264C355.575 188.264 356.027 188.37 356.415 188.582C356.803 188.791 357.104 189.109 357.32 189.537C357.535 189.961 357.643 190.498 357.643 191.148V196H356.469V191.227C356.469 190.627 356.314 190.16 356.002 189.825C355.691 189.487 355.263 189.318 354.719 189.318C354.345 189.318 354.01 189.399 353.715 189.562C353.424 189.724 353.193 189.961 353.024 190.273C352.855 190.584 352.771 190.962 352.771 191.406ZM364.162 191.088V192.182H359.707V191.088H364.162ZM371.635 190.074L370.581 190.372C370.515 190.197 370.417 190.026 370.288 189.86C370.162 189.691 369.99 189.552 369.771 189.442C369.552 189.333 369.272 189.278 368.931 189.278C368.463 189.278 368.074 189.386 367.762 189.602C367.454 189.814 367.3 190.084 367.3 190.412C367.3 190.704 367.406 190.934 367.618 191.103C367.83 191.272 368.162 191.413 368.613 191.526L369.746 191.804C370.429 191.97 370.938 192.223 371.272 192.565C371.607 192.903 371.775 193.339 371.775 193.872C371.775 194.31 371.649 194.701 371.397 195.045C371.148 195.39 370.8 195.662 370.353 195.861C369.905 196.06 369.385 196.159 368.792 196.159C368.013 196.159 367.368 195.99 366.858 195.652C366.347 195.314 366.024 194.82 365.888 194.17L367.002 193.892C367.108 194.303 367.308 194.611 367.603 194.817C367.902 195.022 368.291 195.125 368.772 195.125C369.319 195.125 369.753 195.009 370.074 194.777C370.399 194.542 370.561 194.26 370.561 193.932C370.561 193.667 370.469 193.445 370.283 193.266C370.097 193.083 369.812 192.947 369.428 192.858L368.155 192.56C367.456 192.394 366.942 192.137 366.614 191.789C366.289 191.438 366.127 190.999 366.127 190.472C366.127 190.041 366.248 189.66 366.49 189.328C366.735 188.997 367.068 188.737 367.489 188.548C367.913 188.359 368.394 188.264 368.931 188.264C369.686 188.264 370.28 188.43 370.711 188.761C371.145 189.093 371.453 189.53 371.635 190.074ZM376.643 196.159C375.954 196.159 375.349 195.995 374.828 195.667C374.311 195.339 373.907 194.88 373.615 194.29C373.327 193.7 373.183 193.01 373.183 192.222C373.183 191.426 373.327 190.732 373.615 190.139C373.907 189.545 374.311 189.085 374.828 188.756C375.349 188.428 375.954 188.264 376.643 188.264C377.332 188.264 377.936 188.428 378.453 188.756C378.973 189.085 379.377 189.545 379.666 190.139C379.957 190.732 380.103 191.426 380.103 192.222C380.103 193.01 379.957 193.7 379.666 194.29C379.377 194.88 378.973 195.339 378.453 195.667C377.936 195.995 377.332 196.159 376.643 196.159ZM376.643 195.105C377.167 195.105 377.597 194.971 377.936 194.702C378.274 194.434 378.524 194.081 378.686 193.643C378.849 193.206 378.93 192.732 378.93 192.222C378.93 191.711 378.849 191.236 378.686 190.795C378.524 190.354 378.274 189.998 377.936 189.726C377.597 189.454 377.167 189.318 376.643 189.318C376.119 189.318 375.688 189.454 375.35 189.726C375.012 189.998 374.762 190.354 374.6 190.795C374.437 191.236 374.356 191.711 374.356 192.222C374.356 192.732 374.437 193.206 374.6 193.643C374.762 194.081 375.012 194.434 375.35 194.702C375.688 194.971 376.119 195.105 376.643 195.105ZM386.707 192.878V188.364H387.88V196H386.707V194.707H386.627C386.448 195.095 386.17 195.425 385.792 195.697C385.414 195.965 384.937 196.099 384.36 196.099C383.883 196.099 383.459 195.995 383.087 195.786C382.716 195.574 382.424 195.256 382.212 194.832C382 194.404 381.894 193.866 381.894 193.216V188.364H383.067V193.136C383.067 193.693 383.223 194.137 383.535 194.469C383.85 194.8 384.251 194.966 384.738 194.966C385.03 194.966 385.326 194.891 385.628 194.742C385.933 194.593 386.188 194.364 386.393 194.056C386.602 193.748 386.707 193.355 386.707 192.878ZM390.029 196V188.364H391.162V189.517H391.242C391.381 189.139 391.633 188.833 391.998 188.597C392.362 188.362 392.773 188.244 393.231 188.244C393.317 188.244 393.425 188.246 393.554 188.249C393.683 188.253 393.781 188.258 393.847 188.264V189.457C393.807 189.447 393.716 189.433 393.574 189.413C393.434 189.389 393.287 189.378 393.131 189.378C392.76 189.378 392.429 189.456 392.137 189.612C391.849 189.764 391.62 189.976 391.451 190.248C391.285 190.516 391.202 190.823 391.202 191.168V196H390.029ZM398.108 196.159C397.392 196.159 396.775 195.99 396.258 195.652C395.741 195.314 395.344 194.848 395.065 194.255C394.787 193.662 394.648 192.984 394.648 192.222C394.648 191.446 394.79 190.762 395.075 190.168C395.363 189.572 395.765 189.106 396.278 188.771C396.795 188.433 397.398 188.264 398.088 188.264C398.625 188.264 399.109 188.364 399.54 188.563C399.97 188.761 400.323 189.04 400.599 189.398C400.874 189.756 401.044 190.173 401.111 190.651H399.937C399.848 190.303 399.649 189.994 399.341 189.726C399.036 189.454 398.625 189.318 398.108 189.318C397.65 189.318 397.249 189.438 396.905 189.676C396.563 189.911 396.296 190.245 396.104 190.675C395.915 191.103 395.821 191.605 395.821 192.182C395.821 192.772 395.914 193.286 396.099 193.723C396.288 194.161 396.553 194.5 396.895 194.742C397.239 194.984 397.644 195.105 398.108 195.105C398.413 195.105 398.689 195.052 398.938 194.946C399.187 194.84 399.397 194.688 399.569 194.489C399.742 194.29 399.864 194.051 399.937 193.773H401.111C401.044 194.224 400.88 194.63 400.618 194.991C400.36 195.349 400.017 195.634 399.589 195.846C399.165 196.055 398.671 196.159 398.108 196.159ZM406.028 196.159C405.292 196.159 404.657 195.997 404.123 195.672C403.593 195.344 403.184 194.886 402.895 194.3C402.61 193.71 402.468 193.024 402.468 192.241C402.468 191.459 402.61 190.77 402.895 190.173C403.184 189.573 403.585 189.106 404.099 188.771C404.616 188.433 405.219 188.264 405.908 188.264C406.306 188.264 406.699 188.331 407.086 188.463C407.474 188.596 407.827 188.811 408.145 189.109C408.464 189.404 408.717 189.795 408.906 190.283C409.095 190.77 409.189 191.37 409.189 192.082V192.58H403.303V191.565H407.996C407.996 191.134 407.91 190.75 407.738 190.412C407.569 190.074 407.327 189.807 407.012 189.612C406.7 189.416 406.332 189.318 405.908 189.318C405.441 189.318 405.037 189.434 404.695 189.666C404.357 189.895 404.097 190.193 403.915 190.561C403.732 190.929 403.641 191.323 403.641 191.744V192.42C403.641 192.997 403.741 193.486 403.939 193.887C404.142 194.285 404.422 194.588 404.78 194.797C405.138 195.002 405.554 195.105 406.028 195.105C406.336 195.105 406.614 195.062 406.863 194.976C407.115 194.886 407.332 194.754 407.514 194.578C407.696 194.399 407.837 194.177 407.937 193.912L409.07 194.23C408.951 194.615 408.75 194.953 408.469 195.244C408.187 195.533 407.839 195.758 407.425 195.92C407.01 196.08 406.545 196.159 406.028 196.159ZM418.312 188.364V189.358H414.196V188.364H418.312ZM415.429 196V187.31C415.429 186.872 415.532 186.508 415.737 186.216C415.943 185.924 416.209 185.706 416.537 185.56C416.866 185.414 417.212 185.341 417.577 185.341C417.865 185.341 418.1 185.364 418.282 185.411C418.465 185.457 418.601 185.5 418.69 185.54L418.352 186.554C418.292 186.534 418.21 186.509 418.104 186.479C418.001 186.45 417.865 186.435 417.696 186.435C417.308 186.435 417.028 186.532 416.856 186.728C416.687 186.924 416.602 187.21 416.602 187.588V196H415.429ZM419.957 196V188.364H421.09V189.517H421.17C421.309 189.139 421.561 188.833 421.925 188.597C422.29 188.362 422.701 188.244 423.158 188.244C423.245 188.244 423.352 188.246 423.482 188.249C423.611 188.253 423.709 188.258 423.775 188.264V189.457C423.735 189.447 423.644 189.433 423.501 189.413C423.362 189.389 423.215 189.378 423.059 189.378C422.688 189.378 422.356 189.456 422.065 189.612C421.776 189.764 421.548 189.976 421.379 190.248C421.213 190.516 421.13 190.823 421.13 191.168V196H419.957ZM427.413 196.179C426.929 196.179 426.49 196.088 426.095 195.906C425.701 195.72 425.388 195.453 425.156 195.105C424.924 194.754 424.808 194.33 424.808 193.832C424.808 193.395 424.894 193.04 425.066 192.768C425.239 192.493 425.469 192.278 425.757 192.122C426.046 191.966 426.364 191.85 426.712 191.774C427.063 191.695 427.416 191.632 427.771 191.585C428.235 191.526 428.611 191.481 428.899 191.451C429.191 191.418 429.403 191.363 429.536 191.287C429.672 191.211 429.74 191.078 429.74 190.889V190.849C429.74 190.359 429.605 189.978 429.337 189.706C429.072 189.434 428.669 189.298 428.129 189.298C427.569 189.298 427.129 189.421 426.811 189.666C426.493 189.911 426.269 190.173 426.14 190.452L425.026 190.054C425.225 189.59 425.49 189.229 425.822 188.97C426.157 188.708 426.521 188.526 426.916 188.423C427.313 188.317 427.704 188.264 428.089 188.264C428.334 188.264 428.616 188.294 428.934 188.354C429.256 188.41 429.566 188.528 429.864 188.707C430.165 188.886 430.416 189.156 430.615 189.517C430.813 189.878 430.913 190.362 430.913 190.969V196H429.74V194.966H429.68C429.6 195.132 429.468 195.309 429.282 195.498C429.097 195.687 428.85 195.848 428.541 195.98C428.233 196.113 427.857 196.179 427.413 196.179ZM427.592 195.125C428.056 195.125 428.447 195.034 428.765 194.852C429.087 194.669 429.329 194.434 429.491 194.146C429.657 193.857 429.74 193.554 429.74 193.236V192.162C429.69 192.222 429.58 192.276 429.411 192.326C429.246 192.372 429.053 192.414 428.835 192.45C428.619 192.483 428.409 192.513 428.203 192.54C428.001 192.563 427.837 192.583 427.711 192.599C427.406 192.639 427.121 192.704 426.856 192.793C426.594 192.88 426.382 193.01 426.22 193.186C426.061 193.358 425.981 193.594 425.981 193.892C425.981 194.3 426.132 194.608 426.433 194.817C426.738 195.022 427.124 195.125 427.592 195.125ZM433.054 196V188.364H434.188V189.557H434.287C434.446 189.149 434.703 188.833 435.058 188.607C435.413 188.379 435.838 188.264 436.336 188.264C436.839 188.264 437.259 188.379 437.593 188.607C437.931 188.833 438.195 189.149 438.384 189.557H438.463C438.659 189.162 438.952 188.849 439.343 188.617C439.734 188.382 440.203 188.264 440.75 188.264C441.433 188.264 441.992 188.478 442.426 188.906C442.86 189.33 443.077 189.991 443.077 190.889V196H441.904V190.889C441.904 190.326 441.75 189.923 441.441 189.681C441.133 189.439 440.77 189.318 440.353 189.318C439.816 189.318 439.4 189.481 439.105 189.805C438.81 190.127 438.662 190.535 438.662 191.028V196H437.469V190.77C437.469 190.336 437.328 189.986 437.047 189.721C436.765 189.452 436.402 189.318 435.958 189.318C435.653 189.318 435.368 189.399 435.103 189.562C434.841 189.724 434.629 189.95 434.466 190.238C434.307 190.523 434.228 190.853 434.228 191.227V196H433.054ZM448.424 196.159C447.688 196.159 447.054 195.997 446.52 195.672C445.99 195.344 445.58 194.886 445.292 194.3C445.007 193.71 444.864 193.024 444.864 192.241C444.864 191.459 445.007 190.77 445.292 190.173C445.58 189.573 445.981 189.106 446.495 188.771C447.012 188.433 447.615 188.264 448.305 188.264C448.702 188.264 449.095 188.331 449.483 188.463C449.871 188.596 450.224 188.811 450.542 189.109C450.86 189.404 451.114 189.795 451.303 190.283C451.491 190.77 451.586 191.37 451.586 192.082V192.58H445.7V191.565H450.393C450.393 191.134 450.307 190.75 450.134 190.412C449.965 190.074 449.723 189.807 449.408 189.612C449.097 189.416 448.729 189.318 448.305 189.318C447.837 189.318 447.433 189.434 447.092 189.666C446.754 189.895 446.493 190.193 446.311 190.561C446.129 190.929 446.038 191.323 446.038 191.744V192.42C446.038 192.997 446.137 193.486 446.336 193.887C446.538 194.285 446.818 194.588 447.176 194.797C447.534 195.002 447.95 195.105 448.424 195.105C448.732 195.105 449.011 195.062 449.259 194.976C449.511 194.886 449.728 194.754 449.911 194.578C450.093 194.399 450.234 194.177 450.333 193.912L451.467 194.23C451.347 194.615 451.147 194.953 450.865 195.244C450.583 195.533 450.235 195.758 449.821 195.92C449.407 196.08 448.941 196.159 448.424 196.159ZM455.101 196L452.774 188.364H454.007L455.658 194.21H455.737L457.368 188.364H458.621L460.232 194.19H460.311L461.962 188.364H463.195L460.868 196H459.714L458.044 190.134H457.925L456.254 196H455.101ZM467.588 196.159C466.899 196.159 466.294 195.995 465.774 195.667C465.257 195.339 464.852 194.88 464.561 194.29C464.272 193.7 464.128 193.01 464.128 192.222C464.128 191.426 464.272 190.732 464.561 190.139C464.852 189.545 465.257 189.085 465.774 188.756C466.294 188.428 466.899 188.264 467.588 188.264C468.278 188.264 468.881 188.428 469.398 188.756C469.918 189.085 470.323 189.545 470.611 190.139C470.903 190.732 471.048 191.426 471.048 192.222C471.048 193.01 470.903 193.7 470.611 194.29C470.323 194.88 469.918 195.339 469.398 195.667C468.881 195.995 468.278 196.159 467.588 196.159ZM467.588 195.105C468.112 195.105 468.543 194.971 468.881 194.702C469.219 194.434 469.469 194.081 469.632 193.643C469.794 193.206 469.875 192.732 469.875 192.222C469.875 191.711 469.794 191.236 469.632 190.795C469.469 190.354 469.219 189.998 468.881 189.726C468.543 189.454 468.112 189.318 467.588 189.318C467.065 189.318 466.634 189.454 466.296 189.726C465.958 189.998 465.707 190.354 465.545 190.795C465.383 191.236 465.301 191.711 465.301 192.222C465.301 192.732 465.383 193.206 465.545 193.643C465.707 194.081 465.958 194.434 466.296 194.702C466.634 194.971 467.065 195.105 467.588 195.105ZM472.839 196V188.364H473.973V189.517H474.053C474.192 189.139 474.444 188.833 474.808 188.597C475.173 188.362 475.584 188.244 476.041 188.244C476.127 188.244 476.235 188.246 476.364 188.249C476.494 188.253 476.591 188.258 476.658 188.264V189.457C476.618 189.447 476.527 189.433 476.384 189.413C476.245 189.389 476.098 189.378 475.942 189.378C475.571 189.378 475.239 189.456 474.947 189.612C474.659 189.764 474.43 189.976 474.261 190.248C474.096 190.516 474.013 190.823 474.013 191.168V196H472.839ZM479.142 193.216L479.122 191.764H479.361L482.702 188.364H484.154L480.594 191.963H480.494L479.142 193.216ZM478.048 196V185.818H479.222V196H478.048ZM482.901 196L479.918 192.222L480.753 191.406L484.392 196H482.901ZM493.002 188.364V189.358H488.885V188.364H493.002ZM490.118 196V187.31C490.118 186.872 490.221 186.508 490.426 186.216C490.632 185.924 490.899 185.706 491.227 185.56C491.555 185.414 491.901 185.341 492.266 185.341C492.554 185.341 492.79 185.364 492.972 185.411C493.154 185.457 493.29 185.5 493.38 185.54L493.042 186.554C492.982 186.534 492.899 186.509 492.793 186.479C492.69 186.45 492.554 186.435 492.385 186.435C491.998 186.435 491.717 186.532 491.545 186.728C491.376 186.924 491.292 187.21 491.292 187.588V196H490.118ZM497.434 196.159C496.745 196.159 496.14 195.995 495.619 195.667C495.102 195.339 494.698 194.88 494.406 194.29C494.118 193.7 493.974 193.01 493.974 192.222C493.974 191.426 494.118 190.732 494.406 190.139C494.698 189.545 495.102 189.085 495.619 188.756C496.14 188.428 496.745 188.264 497.434 188.264C498.123 188.264 498.727 188.428 499.244 188.756C499.764 189.085 500.168 189.545 500.457 190.139C500.748 190.732 500.894 191.426 500.894 192.222C500.894 193.01 500.748 193.7 500.457 194.29C500.168 194.88 499.764 195.339 499.244 195.667C498.727 195.995 498.123 196.159 497.434 196.159ZM497.434 195.105C497.958 195.105 498.388 194.971 498.727 194.702C499.065 194.434 499.315 194.081 499.477 193.643C499.64 193.206 499.721 192.732 499.721 192.222C499.721 191.711 499.64 191.236 499.477 190.795C499.315 190.354 499.065 189.998 498.727 189.726C498.388 189.454 497.958 189.318 497.434 189.318C496.91 189.318 496.479 189.454 496.141 189.726C495.803 189.998 495.553 190.354 495.391 190.795C495.228 191.236 495.147 191.711 495.147 192.222C495.147 192.732 495.228 193.206 495.391 193.643C495.553 194.081 495.803 194.434 496.141 194.702C496.479 194.971 496.91 195.105 497.434 195.105ZM502.685 196V188.364H503.819V189.517H503.898C504.037 189.139 504.289 188.833 504.654 188.597C505.019 188.362 505.43 188.244 505.887 188.244C505.973 188.244 506.081 188.246 506.21 188.249C506.339 188.253 506.437 188.258 506.503 188.264V189.457C506.464 189.447 506.372 189.433 506.23 189.413C506.091 189.389 505.943 189.378 505.787 189.378C505.416 189.378 505.085 189.456 504.793 189.612C504.505 189.764 504.276 189.976 504.107 190.248C503.941 190.516 503.858 190.823 503.858 191.168V196H502.685ZM303.397 213V205.364H304.531V206.557H304.63C304.789 206.149 305.046 205.833 305.401 205.607C305.755 205.379 306.181 205.264 306.678 205.264C307.182 205.264 307.601 205.379 307.936 205.607C308.274 205.833 308.538 206.149 308.727 206.557H308.806C309.002 206.162 309.295 205.849 309.686 205.617C310.077 205.382 310.546 205.264 311.093 205.264C311.776 205.264 312.334 205.478 312.769 205.906C313.203 206.33 313.42 206.991 313.42 207.889V213H312.247V207.889C312.247 207.326 312.092 206.923 311.784 206.681C311.476 206.439 311.113 206.318 310.695 206.318C310.158 206.318 309.743 206.481 309.448 206.805C309.153 207.127 309.005 207.535 309.005 208.028V213H307.812V207.77C307.812 207.336 307.671 206.986 307.389 206.721C307.108 206.452 306.745 206.318 306.301 206.318C305.996 206.318 305.711 206.399 305.445 206.562C305.184 206.724 304.971 206.95 304.809 207.238C304.65 207.523 304.57 207.853 304.57 208.227V213H303.397ZM318.667 213.159C317.978 213.159 317.373 212.995 316.853 212.667C316.336 212.339 315.931 211.88 315.64 211.29C315.351 210.7 315.207 210.01 315.207 209.222C315.207 208.426 315.351 207.732 315.64 207.139C315.931 206.545 316.336 206.085 316.853 205.756C317.373 205.428 317.978 205.264 318.667 205.264C319.357 205.264 319.96 205.428 320.477 205.756C320.997 206.085 321.402 206.545 321.69 207.139C321.982 207.732 322.128 208.426 322.128 209.222C322.128 210.01 321.982 210.7 321.69 211.29C321.402 211.88 320.997 212.339 320.477 212.667C319.96 212.995 319.357 213.159 318.667 213.159ZM318.667 212.105C319.191 212.105 319.622 211.971 319.96 211.702C320.298 211.434 320.548 211.081 320.711 210.643C320.873 210.206 320.954 209.732 320.954 209.222C320.954 208.711 320.873 208.236 320.711 207.795C320.548 207.354 320.298 206.998 319.96 206.726C319.622 206.454 319.191 206.318 318.667 206.318C318.144 206.318 317.713 206.454 317.375 206.726C317.037 206.998 316.786 207.354 316.624 207.795C316.462 208.236 316.38 208.711 316.38 209.222C316.38 209.732 316.462 210.206 316.624 210.643C316.786 211.081 317.037 211.434 317.375 211.702C317.713 211.971 318.144 212.105 318.667 212.105ZM325.092 202.818V213H323.919V202.818H325.092ZM330.443 213.159C329.707 213.159 329.072 212.997 328.538 212.672C328.008 212.344 327.599 211.886 327.31 211.3C327.025 210.71 326.883 210.024 326.883 209.241C326.883 208.459 327.025 207.77 327.31 207.173C327.599 206.573 328 206.106 328.514 205.771C329.031 205.433 329.634 205.264 330.323 205.264C330.721 205.264 331.114 205.331 331.502 205.463C331.889 205.596 332.242 205.811 332.56 206.109C332.879 206.404 333.132 206.795 333.321 207.283C333.51 207.77 333.604 208.37 333.604 209.082V209.58H327.718V208.565H332.411C332.411 208.134 332.325 207.75 332.153 207.412C331.984 207.074 331.742 206.807 331.427 206.612C331.115 206.416 330.747 206.318 330.323 206.318C329.856 206.318 329.452 206.434 329.11 206.666C328.772 206.895 328.512 207.193 328.33 207.561C328.147 207.929 328.056 208.323 328.056 208.744V209.42C328.056 209.997 328.156 210.486 328.354 210.887C328.557 211.285 328.837 211.588 329.195 211.797C329.553 212.002 329.969 212.105 330.443 212.105C330.751 212.105 331.029 212.062 331.278 211.976C331.53 211.886 331.747 211.754 331.929 211.578C332.111 211.399 332.252 211.177 332.352 210.912L333.485 211.23C333.366 211.615 333.165 211.953 332.884 212.244C332.602 212.533 332.254 212.758 331.84 212.92C331.425 213.08 330.96 213.159 330.443 213.159ZM338.492 213.159C337.776 213.159 337.159 212.99 336.642 212.652C336.125 212.314 335.727 211.848 335.449 211.255C335.171 210.662 335.031 209.984 335.031 209.222C335.031 208.446 335.174 207.762 335.459 207.168C335.747 206.572 336.148 206.106 336.662 205.771C337.179 205.433 337.782 205.264 338.472 205.264C339.009 205.264 339.493 205.364 339.923 205.563C340.354 205.761 340.707 206.04 340.982 206.398C341.257 206.756 341.428 207.173 341.494 207.651H340.321C340.232 207.303 340.033 206.994 339.725 206.726C339.42 206.454 339.009 206.318 338.492 206.318C338.034 206.318 337.633 206.438 337.288 206.676C336.947 206.911 336.68 207.245 336.488 207.675C336.299 208.103 336.205 208.605 336.205 209.182C336.205 209.772 336.297 210.286 336.483 210.723C336.672 211.161 336.937 211.5 337.278 211.742C337.623 211.984 338.028 212.105 338.492 212.105C338.796 212.105 339.073 212.052 339.322 211.946C339.57 211.84 339.781 211.688 339.953 211.489C340.126 211.29 340.248 211.051 340.321 210.773H341.494C341.428 211.224 341.264 211.63 341.002 211.991C340.744 212.349 340.401 212.634 339.973 212.846C339.549 213.055 339.055 213.159 338.492 213.159ZM348.022 209.878V205.364H349.195V213H348.022V211.707H347.943C347.764 212.095 347.485 212.425 347.107 212.697C346.729 212.965 346.252 213.099 345.676 213.099C345.198 213.099 344.774 212.995 344.403 212.786C344.032 212.574 343.74 212.256 343.528 211.832C343.316 211.404 343.21 210.866 343.21 210.216V205.364H344.383V210.136C344.383 210.693 344.539 211.137 344.85 211.469C345.165 211.8 345.566 211.966 346.053 211.966C346.345 211.966 346.642 211.891 346.943 211.742C347.248 211.593 347.503 211.364 347.709 211.056C347.918 210.748 348.022 210.355 348.022 209.878ZM352.518 202.818V213H351.344V202.818H352.518ZM356.914 213.179C356.43 213.179 355.991 213.088 355.596 212.906C355.202 212.72 354.889 212.453 354.657 212.105C354.425 211.754 354.309 211.33 354.309 210.832C354.309 210.395 354.395 210.04 354.567 209.768C354.74 209.493 354.97 209.278 355.258 209.122C355.547 208.966 355.865 208.85 356.213 208.774C356.564 208.695 356.917 208.632 357.272 208.585C357.736 208.526 358.112 208.481 358.4 208.451C358.692 208.418 358.904 208.363 359.037 208.287C359.173 208.211 359.241 208.078 359.241 207.889V207.849C359.241 207.359 359.106 206.978 358.838 206.706C358.573 206.434 358.17 206.298 357.63 206.298C357.07 206.298 356.63 206.421 356.312 206.666C355.994 206.911 355.77 207.173 355.641 207.452L354.527 207.054C354.726 206.59 354.991 206.229 355.323 205.97C355.658 205.708 356.022 205.526 356.417 205.423C356.814 205.317 357.205 205.264 357.59 205.264C357.835 205.264 358.117 205.294 358.435 205.354C358.757 205.41 359.066 205.528 359.365 205.707C359.666 205.886 359.917 206.156 360.116 206.517C360.314 206.878 360.414 207.362 360.414 207.969V213H359.241V211.966H359.181C359.101 212.132 358.969 212.309 358.783 212.498C358.598 212.687 358.351 212.848 358.042 212.98C357.734 213.113 357.358 213.179 356.914 213.179ZM357.093 212.125C357.557 212.125 357.948 212.034 358.266 211.852C358.588 211.669 358.83 211.434 358.992 211.146C359.158 210.857 359.241 210.554 359.241 210.236V209.162C359.191 209.222 359.081 209.276 358.912 209.326C358.747 209.372 358.554 209.414 358.336 209.45C358.12 209.483 357.91 209.513 357.704 209.54C357.502 209.563 357.338 209.583 357.212 209.599C356.907 209.639 356.622 209.704 356.357 209.793C356.095 209.88 355.883 210.01 355.721 210.186C355.562 210.358 355.482 210.594 355.482 210.892C355.482 211.3 355.633 211.608 355.934 211.817C356.239 212.022 356.625 212.125 357.093 212.125ZM362.555 213V205.364H363.689V206.517H363.768C363.908 206.139 364.159 205.833 364.524 205.597C364.889 205.362 365.3 205.244 365.757 205.244C365.843 205.244 365.951 205.246 366.08 205.249C366.209 205.253 366.307 205.258 366.373 205.264V206.457C366.334 206.447 366.243 206.433 366.1 206.413C365.961 206.389 365.813 206.378 365.658 206.378C365.286 206.378 364.955 206.456 364.663 206.612C364.375 206.764 364.146 206.976 363.977 207.248C363.811 207.516 363.729 207.823 363.729 208.168V213H362.555ZM373.949 213.179C373.465 213.179 373.026 213.088 372.631 212.906C372.237 212.72 371.924 212.453 371.692 212.105C371.46 211.754 371.344 211.33 371.344 210.832C371.344 210.395 371.43 210.04 371.602 209.768C371.775 209.493 372.005 209.278 372.293 209.122C372.582 208.966 372.9 208.85 373.248 208.774C373.599 208.695 373.952 208.632 374.307 208.585C374.771 208.526 375.147 208.481 375.435 208.451C375.727 208.418 375.939 208.363 376.072 208.287C376.208 208.211 376.276 208.078 376.276 207.889V207.849C376.276 207.359 376.141 206.978 375.873 206.706C375.608 206.434 375.205 206.298 374.665 206.298C374.105 206.298 373.666 206.421 373.347 206.666C373.029 206.911 372.805 207.173 372.676 207.452L371.563 207.054C371.761 206.59 372.027 206.229 372.358 205.97C372.693 205.708 373.057 205.526 373.452 205.423C373.85 205.317 374.241 205.264 374.625 205.264C374.87 205.264 375.152 205.294 375.47 205.354C375.792 205.41 376.102 205.528 376.4 205.707C376.702 205.886 376.952 206.156 377.151 206.517C377.35 206.878 377.449 207.362 377.449 207.969V213H376.276V211.966H376.216C376.136 212.132 376.004 212.309 375.818 212.498C375.633 212.687 375.386 212.848 375.078 212.98C374.769 213.113 374.393 213.179 373.949 213.179ZM374.128 212.125C374.592 212.125 374.983 212.034 375.301 211.852C375.623 211.669 375.865 211.434 376.027 211.146C376.193 210.857 376.276 210.554 376.276 210.236V209.162C376.226 209.222 376.117 209.276 375.948 209.326C375.782 209.372 375.59 209.414 375.371 209.45C375.155 209.483 374.945 209.513 374.739 209.54C374.537 209.563 374.373 209.583 374.247 209.599C373.942 209.639 373.657 209.704 373.392 209.793C373.13 209.88 372.918 210.01 372.756 210.186C372.597 210.358 372.517 210.594 372.517 210.892C372.517 211.3 372.668 211.608 372.97 211.817C373.274 212.022 373.661 212.125 374.128 212.125ZM380.764 208.406V213H379.59V205.364H380.724V206.557H380.823C381.002 206.169 381.274 205.857 381.639 205.622C382.003 205.384 382.474 205.264 383.051 205.264C383.568 205.264 384.02 205.37 384.408 205.582C384.796 205.791 385.097 206.109 385.313 206.537C385.528 206.961 385.636 207.498 385.636 208.148V213H384.463V208.227C384.463 207.627 384.307 207.16 383.995 206.825C383.684 206.487 383.256 206.318 382.713 206.318C382.338 206.318 382.003 206.399 381.708 206.562C381.417 206.724 381.186 206.961 381.017 207.273C380.848 207.584 380.764 207.962 380.764 208.406ZM390.663 213.159C390.027 213.159 389.465 212.998 388.978 212.677C388.491 212.352 388.11 211.895 387.835 211.305C387.56 210.711 387.422 210.01 387.422 209.202C387.422 208.4 387.56 207.704 387.835 207.114C388.11 206.524 388.493 206.068 388.983 205.746C389.474 205.425 390.04 205.264 390.683 205.264C391.18 205.264 391.573 205.347 391.862 205.513C392.153 205.675 392.375 205.861 392.528 206.07C392.684 206.275 392.805 206.444 392.891 206.577H392.99V202.818H394.163V213H393.03V211.827H392.891C392.805 211.966 392.682 212.142 392.523 212.354C392.364 212.563 392.137 212.75 391.842 212.915C391.547 213.078 391.154 213.159 390.663 213.159ZM390.823 212.105C391.293 212.105 391.691 211.982 392.016 211.737C392.341 211.489 392.587 211.146 392.756 210.708C392.926 210.267 393.01 209.759 393.01 209.182C393.01 208.612 392.927 208.113 392.761 207.685C392.596 207.255 392.35 206.92 392.026 206.681C391.701 206.439 391.3 206.318 390.823 206.318C390.325 206.318 389.911 206.446 389.58 206.701C389.252 206.953 389.005 207.296 388.839 207.73C388.676 208.161 388.595 208.645 388.595 209.182C388.595 209.725 388.678 210.219 388.844 210.663C389.013 211.104 389.261 211.456 389.59 211.717C389.921 211.976 390.332 212.105 390.823 212.105ZM400.413 213V205.364H401.546V206.557H401.646C401.805 206.149 402.062 205.833 402.416 205.607C402.771 205.379 403.197 205.264 403.694 205.264C404.198 205.264 404.617 205.379 404.952 205.607C405.29 205.833 405.553 206.149 405.742 206.557H405.822C406.017 206.162 406.311 205.849 406.702 205.617C407.093 205.382 407.562 205.264 408.109 205.264C408.792 205.264 409.35 205.478 409.784 205.906C410.218 206.33 410.435 206.991 410.435 207.889V213H409.262V207.889C409.262 207.326 409.108 206.923 408.8 206.681C408.492 206.439 408.129 206.318 407.711 206.318C407.174 206.318 406.758 206.481 406.463 206.805C406.168 207.127 406.021 207.535 406.021 208.028V213H404.828V207.77C404.828 207.336 404.687 206.986 404.405 206.721C404.123 206.452 403.76 206.318 403.316 206.318C403.011 206.318 402.726 206.399 402.461 206.562C402.199 206.724 401.987 206.95 401.825 207.238C401.666 207.523 401.586 207.853 401.586 208.227V213H400.413ZM414.828 213.179C414.344 213.179 413.905 213.088 413.51 212.906C413.116 212.72 412.803 212.453 412.571 212.105C412.339 211.754 412.223 211.33 412.223 210.832C412.223 210.395 412.309 210.04 412.481 209.768C412.654 209.493 412.884 209.278 413.172 209.122C413.461 208.966 413.779 208.85 414.127 208.774C414.478 208.695 414.831 208.632 415.186 208.585C415.65 208.526 416.026 208.481 416.314 208.451C416.606 208.418 416.818 208.363 416.951 208.287C417.087 208.211 417.155 208.078 417.155 207.889V207.849C417.155 207.359 417.02 206.978 416.752 206.706C416.487 206.434 416.084 206.298 415.544 206.298C414.984 206.298 414.544 206.421 414.226 206.666C413.908 206.911 413.684 207.173 413.555 207.452L412.441 207.054C412.64 206.59 412.906 206.229 413.237 205.97C413.572 205.708 413.936 205.526 414.331 205.423C414.728 205.317 415.12 205.264 415.504 205.264C415.749 205.264 416.031 205.294 416.349 205.354C416.671 205.41 416.981 205.528 417.279 205.707C417.58 205.886 417.831 206.156 418.03 206.517C418.228 206.878 418.328 207.362 418.328 207.969V213H417.155V211.966H417.095C417.015 212.132 416.883 212.309 416.697 212.498C416.512 212.687 416.265 212.848 415.956 212.98C415.648 213.113 415.272 213.179 414.828 213.179ZM415.007 212.125C415.471 212.125 415.862 212.034 416.18 211.852C416.502 211.669 416.744 211.434 416.906 211.146C417.072 210.857 417.155 210.554 417.155 210.236V209.162C417.105 209.222 416.995 209.276 416.826 209.326C416.661 209.372 416.468 209.414 416.25 209.45C416.034 209.483 415.824 209.513 415.618 209.54C415.416 209.563 415.252 209.583 415.126 209.599C414.821 209.639 414.536 209.704 414.271 209.793C414.009 209.88 413.797 210.01 413.635 210.186C413.476 210.358 413.396 210.594 413.396 210.892C413.396 211.3 413.547 211.608 413.848 211.817C414.153 212.022 414.54 212.125 415.007 212.125ZM423.79 205.364V206.358H419.833V205.364H423.79ZM420.986 203.534H422.16V210.813C422.16 211.144 422.208 211.393 422.304 211.558C422.403 211.721 422.529 211.83 422.682 211.886C422.838 211.939 423.002 211.966 423.174 211.966C423.303 211.966 423.409 211.959 423.492 211.946C423.575 211.929 423.641 211.916 423.691 211.906L423.93 212.96C423.85 212.99 423.739 213.02 423.597 213.05C423.454 213.083 423.273 213.099 423.055 213.099C422.723 213.099 422.398 213.028 422.08 212.886C421.765 212.743 421.503 212.526 421.295 212.234C421.089 211.943 420.986 211.575 420.986 211.131V203.534ZM428.675 213.159C427.939 213.159 427.304 212.997 426.771 212.672C426.241 212.344 425.831 211.886 425.543 211.3C425.258 210.71 425.115 210.024 425.115 209.241C425.115 208.459 425.258 207.77 425.543 207.173C425.831 206.573 426.232 206.106 426.746 205.771C427.263 205.433 427.866 205.264 428.556 205.264C428.953 205.264 429.346 205.331 429.734 205.463C430.122 205.596 430.475 205.811 430.793 206.109C431.111 206.404 431.365 206.795 431.554 207.283C431.742 207.77 431.837 208.37 431.837 209.082V209.58H425.951V208.565H430.644C430.644 208.134 430.558 207.75 430.385 207.412C430.216 207.074 429.974 206.807 429.659 206.612C429.348 206.416 428.98 206.318 428.556 206.318C428.088 206.318 427.684 206.434 427.343 206.666C427.005 206.895 426.744 207.193 426.562 207.561C426.38 207.929 426.289 208.323 426.289 208.744V209.42C426.289 209.997 426.388 210.486 426.587 210.887C426.789 211.285 427.069 211.588 427.427 211.797C427.785 212.002 428.201 212.105 428.675 212.105C428.983 212.105 429.262 212.062 429.51 211.976C429.762 211.886 429.979 211.754 430.161 211.578C430.344 211.399 430.485 211.177 430.584 210.912L431.718 211.23C431.598 211.615 431.398 211.953 431.116 212.244C430.834 212.533 430.486 212.758 430.072 212.92C429.658 213.08 429.192 213.159 428.675 213.159ZM433.622 213V205.364H434.755V206.517H434.835C434.974 206.139 435.226 205.833 435.59 205.597C435.955 205.362 436.366 205.244 436.823 205.244C436.91 205.244 437.017 205.246 437.147 205.249C437.276 205.253 437.374 205.258 437.44 205.264V206.457C437.4 206.447 437.309 206.433 437.166 206.413C437.027 206.389 436.88 206.378 436.724 206.378C436.353 206.378 436.021 206.456 435.73 206.612C435.441 206.764 435.213 206.976 435.044 207.248C434.878 207.516 434.795 207.823 434.795 208.168V213H433.622ZM438.831 213V205.364H440.004V213H438.831ZM439.427 204.091C439.199 204.091 439.001 204.013 438.836 203.857C438.673 203.701 438.592 203.514 438.592 203.295C438.592 203.077 438.673 202.889 438.836 202.734C439.001 202.578 439.199 202.5 439.427 202.5C439.656 202.5 439.852 202.578 440.014 202.734C440.18 202.889 440.263 203.077 440.263 203.295C440.263 203.514 440.18 203.701 440.014 203.857C439.852 204.013 439.656 204.091 439.427 204.091ZM444.4 213.179C443.916 213.179 443.477 213.088 443.083 212.906C442.688 212.72 442.375 212.453 442.143 212.105C441.911 211.754 441.795 211.33 441.795 210.832C441.795 210.395 441.881 210.04 442.054 209.768C442.226 209.493 442.456 209.278 442.745 209.122C443.033 208.966 443.351 208.85 443.699 208.774C444.05 208.695 444.403 208.632 444.758 208.585C445.222 208.526 445.598 208.481 445.887 208.451C446.178 208.418 446.39 208.363 446.523 208.287C446.659 208.211 446.727 208.078 446.727 207.889V207.849C446.727 207.359 446.593 206.978 446.324 206.706C446.059 206.434 445.656 206.298 445.116 206.298C444.556 206.298 444.117 206.421 443.799 206.666C443.48 206.911 443.257 207.173 443.127 207.452L442.014 207.054C442.213 206.59 442.478 206.229 442.809 205.97C443.144 205.708 443.509 205.526 443.903 205.423C444.301 205.317 444.692 205.264 445.076 205.264C445.322 205.264 445.603 205.294 445.921 205.354C446.243 205.41 446.553 205.528 446.851 205.707C447.153 205.886 447.403 206.156 447.602 206.517C447.801 206.878 447.9 207.362 447.9 207.969V213H446.727V211.966H446.667C446.588 212.132 446.455 212.309 446.269 212.498C446.084 212.687 445.837 212.848 445.529 212.98C445.22 213.113 444.844 213.179 444.4 213.179ZM444.579 212.125C445.043 212.125 445.434 212.034 445.752 211.852C446.074 211.669 446.316 211.434 446.478 211.146C446.644 210.857 446.727 210.554 446.727 210.236V209.162C446.677 209.222 446.568 209.276 446.399 209.326C446.233 209.372 446.041 209.414 445.822 209.45C445.607 209.483 445.396 209.513 445.191 209.54C444.988 209.563 444.824 209.583 444.698 209.599C444.393 209.639 444.108 209.704 443.843 209.793C443.581 209.88 443.369 210.01 443.207 210.186C443.048 210.358 442.968 210.594 442.968 210.892C442.968 211.3 443.119 211.608 443.421 211.817C443.726 212.022 444.112 212.125 444.579 212.125ZM451.215 202.818V213H450.042V202.818H451.215ZM458.773 207.074L457.719 207.372C457.653 207.197 457.555 207.026 457.426 206.86C457.3 206.691 457.127 206.552 456.909 206.442C456.69 206.333 456.41 206.278 456.068 206.278C455.601 206.278 455.212 206.386 454.9 206.602C454.592 206.814 454.438 207.084 454.438 207.412C454.438 207.704 454.544 207.934 454.756 208.103C454.968 208.272 455.3 208.413 455.75 208.526L456.884 208.804C457.567 208.97 458.075 209.223 458.41 209.565C458.745 209.903 458.912 210.339 458.912 210.872C458.912 211.31 458.786 211.701 458.534 212.045C458.286 212.39 457.938 212.662 457.49 212.861C457.043 213.06 456.523 213.159 455.929 213.159C455.15 213.159 454.506 212.99 453.995 212.652C453.485 212.314 453.162 211.82 453.026 211.17L454.139 210.892C454.246 211.303 454.446 211.611 454.741 211.817C455.039 212.022 455.429 212.125 455.909 212.125C456.456 212.125 456.89 212.009 457.212 211.777C457.537 211.542 457.699 211.26 457.699 210.932C457.699 210.667 457.606 210.445 457.421 210.266C457.235 210.083 456.95 209.947 456.566 209.858L455.293 209.56C454.594 209.394 454.08 209.137 453.752 208.789C453.427 208.438 453.264 207.999 453.264 207.472C453.264 207.041 453.385 206.66 453.627 206.328C453.873 205.997 454.206 205.737 454.627 205.548C455.051 205.359 455.532 205.264 456.068 205.264C456.824 205.264 457.417 205.43 457.848 205.761C458.282 206.093 458.591 206.53 458.773 207.074ZM467.499 213.159C466.863 213.159 466.301 212.998 465.814 212.677C465.327 212.352 464.946 211.895 464.671 211.305C464.395 210.711 464.258 210.01 464.258 209.202C464.258 208.4 464.395 207.704 464.671 207.114C464.946 206.524 465.328 206.068 465.819 205.746C466.31 205.425 466.876 205.264 467.519 205.264C468.016 205.264 468.409 205.347 468.698 205.513C468.989 205.675 469.211 205.861 469.364 206.07C469.52 206.275 469.64 206.444 469.727 206.577H469.826V202.818H470.999V213H469.866V211.827H469.727C469.64 211.966 469.518 212.142 469.359 212.354C469.2 212.563 468.973 212.75 468.678 212.915C468.383 213.078 467.99 213.159 467.499 213.159ZM467.658 212.105C468.129 212.105 468.527 211.982 468.852 211.737C469.176 211.489 469.423 211.146 469.592 210.708C469.761 210.267 469.846 209.759 469.846 209.182C469.846 208.612 469.763 208.113 469.597 207.685C469.432 207.255 469.186 206.92 468.862 206.681C468.537 206.439 468.136 206.318 467.658 206.318C467.161 206.318 466.747 206.446 466.416 206.701C466.087 206.953 465.841 207.296 465.675 207.73C465.512 208.161 465.431 208.645 465.431 209.182C465.431 209.725 465.514 210.219 465.68 210.663C465.849 211.104 466.097 211.456 466.426 211.717C466.757 211.976 467.168 212.105 467.658 212.105ZM473.311 213V205.364H474.484V213H473.311ZM473.908 204.091C473.679 204.091 473.482 204.013 473.316 203.857C473.154 203.701 473.073 203.514 473.073 203.295C473.073 203.077 473.154 202.889 473.316 202.734C473.482 202.578 473.679 202.5 473.908 202.5C474.136 202.5 474.332 202.578 474.494 202.734C474.66 202.889 474.743 203.077 474.743 203.295C474.743 203.514 474.66 203.701 474.494 203.857C474.332 204.013 474.136 204.091 473.908 204.091ZM482.043 207.074L480.989 207.372C480.922 207.197 480.824 207.026 480.695 206.86C480.569 206.691 480.397 206.552 480.178 206.442C479.959 206.333 479.679 206.278 479.338 206.278C478.871 206.278 478.481 206.386 478.17 206.602C477.861 206.814 477.707 207.084 477.707 207.412C477.707 207.704 477.813 207.934 478.025 208.103C478.238 208.272 478.569 208.413 479.02 208.526L480.153 208.804C480.836 208.97 481.345 209.223 481.68 209.565C482.014 209.903 482.182 210.339 482.182 210.872C482.182 211.31 482.056 211.701 481.804 212.045C481.555 212.39 481.207 212.662 480.76 212.861C480.312 213.06 479.792 213.159 479.199 213.159C478.42 213.159 477.775 212.99 477.265 212.652C476.754 212.314 476.431 211.82 476.295 211.17L477.409 210.892C477.515 211.303 477.716 211.611 478.011 211.817C478.309 212.022 478.698 212.125 479.179 212.125C479.726 212.125 480.16 212.009 480.481 211.777C480.806 211.542 480.969 211.26 480.969 210.932C480.969 210.667 480.876 210.445 480.69 210.266C480.505 210.083 480.22 209.947 479.835 209.858L478.562 209.56C477.863 209.394 477.349 209.137 477.021 208.789C476.696 208.438 476.534 207.999 476.534 207.472C476.534 207.041 476.655 206.66 476.897 206.328C477.142 205.997 477.475 205.737 477.896 205.548C478.32 205.359 478.801 205.264 479.338 205.264C480.094 205.264 480.687 205.43 481.118 205.761C481.552 206.093 481.86 206.53 482.043 207.074ZM487.05 213.159C486.334 213.159 485.718 212.99 485.201 212.652C484.684 212.314 484.286 211.848 484.008 211.255C483.729 210.662 483.59 209.984 483.59 209.222C483.59 208.446 483.732 207.762 484.017 207.168C484.306 206.572 484.707 206.106 485.221 205.771C485.738 205.433 486.341 205.264 487.03 205.264C487.567 205.264 488.051 205.364 488.482 205.563C488.913 205.761 489.266 206.04 489.541 206.398C489.816 206.756 489.987 207.173 490.053 207.651H488.88C488.79 207.303 488.591 206.994 488.283 206.726C487.978 206.454 487.567 206.318 487.05 206.318C486.593 206.318 486.192 206.438 485.847 206.676C485.506 206.911 485.239 207.245 485.047 207.675C484.858 208.103 484.763 208.605 484.763 209.182C484.763 209.772 484.856 210.286 485.042 210.723C485.231 211.161 485.496 211.5 485.837 211.742C486.182 211.984 486.586 212.105 487.05 212.105C487.355 212.105 487.632 212.052 487.88 211.946C488.129 211.84 488.339 211.688 488.512 211.489C488.684 211.29 488.807 211.051 488.88 210.773H490.053C489.987 211.224 489.823 211.63 489.561 211.991C489.302 212.349 488.959 212.634 488.532 212.846C488.107 213.055 487.614 213.159 487.05 213.159ZM494.87 213.159C494.181 213.159 493.576 212.995 493.056 212.667C492.539 212.339 492.134 211.88 491.843 211.29C491.554 210.7 491.41 210.01 491.41 209.222C491.41 208.426 491.554 207.732 491.843 207.139C492.134 206.545 492.539 206.085 493.056 205.756C493.576 205.428 494.181 205.264 494.87 205.264C495.56 205.264 496.163 205.428 496.68 205.756C497.2 206.085 497.605 206.545 497.893 207.139C498.185 207.732 498.331 208.426 498.331 209.222C498.331 210.01 498.185 210.7 497.893 211.29C497.605 211.88 497.2 212.339 496.68 212.667C496.163 212.995 495.56 213.159 494.87 213.159ZM494.87 212.105C495.394 212.105 495.825 211.971 496.163 211.702C496.501 211.434 496.751 211.081 496.914 210.643C497.076 210.206 497.157 209.732 497.157 209.222C497.157 208.711 497.076 208.236 496.914 207.795C496.751 207.354 496.501 206.998 496.163 206.726C495.825 206.454 495.394 206.318 494.87 206.318C494.347 206.318 493.916 206.454 493.578 206.726C493.24 206.998 492.99 207.354 492.827 207.795C492.665 208.236 492.584 208.711 492.584 209.222C492.584 209.732 492.665 210.206 492.827 210.643C492.99 211.081 493.24 211.434 493.578 211.702C493.916 211.971 494.347 212.105 494.87 212.105ZM506.093 205.364L503.269 213H502.076L499.252 205.364H500.524L502.632 211.449H502.712L504.82 205.364H506.093ZM510.57 213.159C509.834 213.159 509.199 212.997 508.665 212.672C508.135 212.344 507.726 211.886 507.437 211.3C507.152 210.71 507.01 210.024 507.01 209.241C507.01 208.459 507.152 207.77 507.437 207.173C507.726 206.573 508.127 206.106 508.641 205.771C509.158 205.433 509.761 205.264 510.45 205.264C510.848 205.264 511.241 205.331 511.628 205.463C512.016 205.596 512.369 205.811 512.687 206.109C513.006 206.404 513.259 206.795 513.448 207.283C513.637 207.77 513.731 208.37 513.731 209.082V209.58H507.845V208.565H512.538C512.538 208.134 512.452 207.75 512.28 207.412C512.111 207.074 511.869 206.807 511.554 206.612C511.242 206.416 510.874 206.318 510.45 206.318C509.983 206.318 509.579 206.434 509.237 206.666C508.899 206.895 508.639 207.193 508.457 207.561C508.274 207.929 508.183 208.323 508.183 208.744V209.42C508.183 209.997 508.283 210.486 508.481 210.887C508.684 211.285 508.964 211.588 509.322 211.797C509.68 212.002 510.096 212.105 510.57 212.105C510.878 212.105 511.156 212.062 511.405 211.976C511.657 211.886 511.874 211.754 512.056 211.578C512.238 211.399 512.379 211.177 512.479 210.912L513.612 211.23C513.493 211.615 513.292 211.953 513.011 212.244C512.729 212.533 512.381 212.758 511.967 212.92C511.552 213.08 511.087 213.159 510.57 213.159ZM515.516 213V205.364H516.65V206.517H516.729C516.869 206.139 517.12 205.833 517.485 205.597C517.85 205.362 518.261 205.244 518.718 205.244C518.804 205.244 518.912 205.246 519.041 205.249C519.17 205.253 519.268 205.258 519.334 205.264V206.457C519.295 206.447 519.204 206.433 519.061 206.413C518.922 206.389 518.774 206.378 518.619 206.378C518.247 206.378 517.916 206.456 517.624 206.612C517.336 206.764 517.107 206.976 516.938 207.248C516.772 207.516 516.69 207.823 516.69 208.168V213H515.516ZM521.713 215.864C521.514 215.864 521.337 215.847 521.181 215.814C521.026 215.784 520.918 215.754 520.858 215.724L521.157 214.69C521.442 214.763 521.693 214.79 521.912 214.77C522.131 214.75 522.325 214.652 522.494 214.477C522.666 214.304 522.824 214.024 522.966 213.636L523.185 213.04L520.361 205.364H521.634L523.742 211.449H523.821L525.929 205.364H527.202L523.96 214.114C523.815 214.508 523.634 214.835 523.419 215.093C523.203 215.355 522.953 215.549 522.668 215.675C522.386 215.801 522.068 215.864 521.713 215.864Z" fill="black" fill-opacity="0.75"/>
<path opacity="0.3" d="M378.266 235.273V244H377.209V235.273H378.266ZM380.385 244V235.273H383.436C384.044 235.273 384.545 235.378 384.94 235.588C385.335 235.795 385.629 236.075 385.822 236.428C386.016 236.777 386.112 237.165 386.112 237.591C386.112 237.966 386.045 238.276 385.912 238.52C385.781 238.764 385.608 238.957 385.392 239.099C385.179 239.241 384.947 239.347 384.697 239.415V239.5C384.964 239.517 385.233 239.611 385.503 239.781C385.773 239.952 385.999 240.196 386.18 240.514C386.362 240.832 386.453 241.222 386.453 241.682C386.453 242.119 386.354 242.513 386.155 242.862C385.956 243.212 385.642 243.489 385.213 243.693C384.784 243.898 384.226 244 383.538 244H380.385ZM381.442 243.063H383.538C384.229 243.063 384.719 242.929 385.009 242.662C385.301 242.392 385.447 242.065 385.447 241.682C385.447 241.386 385.372 241.114 385.222 240.864C385.071 240.611 384.857 240.409 384.578 240.259C384.3 240.105 383.97 240.028 383.589 240.028H381.442V243.063ZM381.442 239.108H383.402C383.72 239.108 384.007 239.045 384.263 238.92C384.521 238.795 384.726 238.619 384.876 238.392C385.03 238.165 385.107 237.898 385.107 237.591C385.107 237.207 384.973 236.882 384.706 236.615C384.439 236.345 384.016 236.21 383.436 236.21H381.442V239.108ZM388.19 235.273H389.451L392.417 242.517H392.519L395.485 235.273H396.746V244H395.758V237.369H395.673L392.945 244H391.991L389.263 237.369H389.178V244H388.19V235.273ZM402.24 244V235.273H405.189C405.871 235.273 406.431 235.389 406.868 235.622C407.306 235.852 407.63 236.169 407.84 236.572C408.05 236.976 408.155 237.435 408.155 237.949C408.155 238.463 408.05 238.919 407.84 239.317C407.63 239.715 407.307 240.027 406.873 240.254C406.438 240.479 405.882 240.591 405.206 240.591H402.82V239.636H405.172C405.638 239.636 406.013 239.568 406.297 239.432C406.584 239.295 406.792 239.102 406.919 238.852C407.05 238.599 407.115 238.298 407.115 237.949C407.115 237.599 407.05 237.294 406.919 237.033C406.789 236.771 406.58 236.57 406.293 236.428C406.006 236.283 405.627 236.21 405.155 236.21H403.297V244H402.24ZM406.348 240.08L408.496 244H407.269L405.155 240.08H406.348ZM412.454 244.136C411.823 244.136 411.279 243.997 410.822 243.719C410.367 243.438 410.016 243.045 409.769 242.543C409.525 242.037 409.403 241.449 409.403 240.778C409.403 240.108 409.525 239.517 409.769 239.006C410.016 238.491 410.36 238.091 410.8 237.804C411.244 237.514 411.761 237.369 412.352 237.369C412.692 237.369 413.029 237.426 413.362 237.54C413.694 237.653 413.996 237.838 414.269 238.094C414.542 238.347 414.759 238.682 414.921 239.099C415.083 239.517 415.164 240.031 415.164 240.642V241.068H410.119V240.199H414.141C414.141 239.83 414.067 239.5 413.92 239.21C413.775 238.92 413.567 238.692 413.298 238.524C413.031 238.357 412.715 238.273 412.352 238.273C411.951 238.273 411.604 238.372 411.312 238.571C411.022 238.767 410.799 239.023 410.643 239.338C410.487 239.653 410.408 239.991 410.408 240.352V240.932C410.408 241.426 410.494 241.845 410.664 242.189C410.837 242.53 411.077 242.79 411.384 242.969C411.691 243.145 412.048 243.233 412.454 243.233C412.718 243.233 412.957 243.196 413.17 243.122C413.386 243.045 413.572 242.932 413.728 242.781C413.884 242.628 414.005 242.438 414.09 242.21L415.062 242.483C414.96 242.813 414.788 243.102 414.546 243.352C414.305 243.599 414.006 243.793 413.651 243.932C413.296 244.068 412.897 244.136 412.454 244.136ZM421.33 238.92L420.427 239.176C420.37 239.026 420.286 238.879 420.175 238.737C420.067 238.592 419.92 238.473 419.732 238.379C419.545 238.286 419.305 238.239 419.012 238.239C418.612 238.239 418.278 238.331 418.011 238.516C417.746 238.697 417.614 238.929 417.614 239.21C417.614 239.46 417.705 239.658 417.887 239.803C418.069 239.947 418.353 240.068 418.739 240.165L419.711 240.403C420.296 240.545 420.732 240.763 421.019 241.055C421.306 241.345 421.45 241.719 421.45 242.176C421.45 242.551 421.342 242.886 421.126 243.182C420.913 243.477 420.614 243.71 420.231 243.881C419.847 244.051 419.401 244.136 418.893 244.136C418.225 244.136 417.673 243.991 417.235 243.702C416.798 243.412 416.521 242.989 416.404 242.432L417.359 242.193C417.45 242.545 417.621 242.81 417.874 242.986C418.13 243.162 418.464 243.25 418.876 243.25C419.344 243.25 419.717 243.151 419.992 242.952C420.271 242.75 420.41 242.509 420.41 242.227C420.41 242 420.33 241.81 420.171 241.656C420.012 241.5 419.768 241.384 419.438 241.307L418.347 241.051C417.748 240.909 417.308 240.689 417.026 240.391C416.748 240.09 416.609 239.713 416.609 239.261C416.609 238.892 416.712 238.565 416.92 238.281C417.13 237.997 417.415 237.774 417.776 237.612C418.14 237.45 418.552 237.369 419.012 237.369C419.66 237.369 420.168 237.511 420.538 237.795C420.91 238.08 421.174 238.455 421.33 238.92ZM425.708 244.136C425.077 244.136 424.533 243.997 424.076 243.719C423.621 243.438 423.27 243.045 423.023 242.543C422.779 242.037 422.657 241.449 422.657 240.778C422.657 240.108 422.779 239.517 423.023 239.006C423.27 238.491 423.614 238.091 424.054 237.804C424.498 237.514 425.015 237.369 425.605 237.369C425.946 237.369 426.283 237.426 426.615 237.54C426.948 237.653 427.25 237.838 427.523 238.094C427.796 238.347 428.013 238.682 428.175 239.099C428.337 239.517 428.418 240.031 428.418 240.642V241.068H423.373V240.199H427.395C427.395 239.83 427.321 239.5 427.174 239.21C427.029 238.92 426.821 238.692 426.551 238.524C426.284 238.357 425.969 238.273 425.605 238.273C425.205 238.273 424.858 238.372 424.566 238.571C424.276 238.767 424.053 239.023 423.897 239.338C423.74 239.653 423.662 239.991 423.662 240.352V240.932C423.662 241.426 423.748 241.845 423.918 242.189C424.091 242.53 424.331 242.79 424.638 242.969C424.945 243.145 425.301 243.233 425.708 243.233C425.972 243.233 426.211 243.196 426.424 243.122C426.64 243.045 426.826 242.932 426.982 242.781C427.138 242.628 427.259 242.438 427.344 242.21L428.316 242.483C428.213 242.813 428.042 243.102 427.8 243.352C427.559 243.599 427.26 243.793 426.905 243.932C426.55 244.068 426.151 244.136 425.708 244.136ZM431.874 244.153C431.459 244.153 431.083 244.075 430.745 243.919C430.407 243.76 430.138 243.531 429.939 243.233C429.74 242.932 429.641 242.568 429.641 242.142C429.641 241.767 429.715 241.463 429.863 241.23C430.01 240.994 430.208 240.81 430.455 240.676C430.702 240.543 430.975 240.443 431.273 240.378C431.574 240.31 431.877 240.256 432.181 240.216C432.578 240.165 432.901 240.126 433.148 240.101C433.398 240.072 433.58 240.026 433.694 239.96C433.81 239.895 433.868 239.781 433.868 239.619V239.585C433.868 239.165 433.753 238.838 433.523 238.605C433.296 238.372 432.951 238.256 432.488 238.256C432.007 238.256 431.631 238.361 431.358 238.571C431.086 238.781 430.894 239.006 430.783 239.244L429.828 238.903C429.999 238.506 430.226 238.196 430.51 237.974C430.797 237.75 431.11 237.594 431.448 237.506C431.789 237.415 432.124 237.369 432.453 237.369C432.664 237.369 432.905 237.395 433.178 237.446C433.453 237.494 433.719 237.595 433.975 237.749C434.233 237.902 434.448 238.134 434.618 238.443C434.789 238.753 434.874 239.168 434.874 239.688V244H433.868V243.114H433.817C433.749 243.256 433.635 243.408 433.476 243.57C433.317 243.732 433.105 243.869 432.841 243.983C432.577 244.097 432.255 244.153 431.874 244.153ZM432.027 243.25C432.425 243.25 432.76 243.172 433.033 243.016C433.309 242.859 433.516 242.658 433.655 242.411C433.797 242.163 433.868 241.903 433.868 241.631V240.71C433.826 240.761 433.732 240.808 433.587 240.851C433.445 240.891 433.28 240.926 433.093 240.957C432.908 240.986 432.728 241.011 432.551 241.034C432.378 241.054 432.238 241.071 432.13 241.085C431.868 241.119 431.624 241.175 431.397 241.251C431.172 241.325 430.99 241.438 430.851 241.588C430.715 241.736 430.647 241.938 430.647 242.193C430.647 242.543 430.776 242.807 431.034 242.986C431.296 243.162 431.627 243.25 432.027 243.25ZM436.71 244V237.455H437.681V238.443H437.749C437.869 238.119 438.085 237.857 438.397 237.655C438.71 237.453 439.062 237.352 439.454 237.352C439.528 237.352 439.62 237.354 439.731 237.357C439.842 237.359 439.925 237.364 439.982 237.369V238.392C439.948 238.384 439.87 238.371 439.748 238.354C439.629 238.334 439.502 238.324 439.369 238.324C439.05 238.324 438.766 238.391 438.516 238.524C438.269 238.655 438.073 238.837 437.928 239.07C437.786 239.3 437.715 239.563 437.715 239.858V244H436.71ZM443.634 244.136C443.021 244.136 442.492 243.991 442.049 243.702C441.606 243.412 441.265 243.013 441.026 242.504C440.788 241.996 440.668 241.415 440.668 240.761C440.668 240.097 440.79 239.51 441.035 239.001C441.282 238.49 441.626 238.091 442.066 237.804C442.509 237.514 443.026 237.369 443.617 237.369C444.077 237.369 444.492 237.455 444.862 237.625C445.231 237.795 445.533 238.034 445.769 238.341C446.005 238.648 446.151 239.006 446.208 239.415H445.202C445.126 239.116 444.955 238.852 444.691 238.622C444.43 238.389 444.077 238.273 443.634 238.273C443.242 238.273 442.898 238.375 442.603 238.58C442.31 238.781 442.082 239.067 441.917 239.436C441.755 239.803 441.674 240.233 441.674 240.727C441.674 241.233 441.754 241.673 441.913 242.048C442.075 242.423 442.302 242.715 442.594 242.922C442.89 243.129 443.237 243.233 443.634 243.233C443.896 243.233 444.133 243.188 444.346 243.097C444.559 243.006 444.739 242.875 444.887 242.705C445.035 242.534 445.14 242.33 445.202 242.091H446.208C446.151 242.477 446.011 242.825 445.786 243.135C445.565 243.442 445.271 243.686 444.904 243.868C444.54 244.047 444.117 244.136 443.634 244.136ZM448.684 240.063V244H447.678V235.273H448.684V238.477H448.769C448.923 238.139 449.153 237.871 449.46 237.672C449.769 237.47 450.181 237.369 450.695 237.369C451.141 237.369 451.532 237.459 451.867 237.638C452.202 237.814 452.462 238.085 452.647 238.452C452.835 238.815 452.928 239.278 452.928 239.841V244H451.923V239.909C451.923 239.389 451.788 238.987 451.518 238.703C451.251 238.416 450.88 238.273 450.406 238.273C450.076 238.273 449.781 238.342 449.519 238.482C449.261 238.621 449.056 238.824 448.906 239.091C448.758 239.358 448.684 239.682 448.684 240.063Z" fill="black" fill-opacity="0.75"/>
<path d="M373.294 154.364C373.294 156.871 372.824 159.019 371.885 160.807C370.953 162.587 369.68 163.951 368.067 164.898C366.461 165.845 364.639 166.318 362.601 166.318C360.563 166.318 358.737 165.845 357.124 164.898C355.518 163.943 354.245 162.576 353.305 160.795C352.374 159.008 351.908 156.864 351.908 154.364C351.908 151.856 352.374 149.712 353.305 147.932C354.245 146.144 355.518 144.777 357.124 143.83C358.737 142.883 360.563 142.409 362.601 142.409C364.639 142.409 366.461 142.883 368.067 143.83C369.68 144.777 370.953 146.144 371.885 147.932C372.824 149.712 373.294 151.856 373.294 154.364ZM369.055 154.364C369.055 152.598 368.779 151.11 368.226 149.898C367.68 148.678 366.923 147.758 365.953 147.136C364.983 146.508 363.866 146.193 362.601 146.193C361.336 146.193 360.218 146.508 359.249 147.136C358.279 147.758 357.518 148.678 356.964 149.898C356.419 151.11 356.146 152.598 356.146 154.364C356.146 156.129 356.419 157.621 356.964 158.841C357.518 160.053 358.279 160.973 359.249 161.602C360.218 162.223 361.336 162.534 362.601 162.534C363.866 162.534 364.983 162.223 365.953 161.602C366.923 160.973 367.68 160.053 368.226 158.841C368.779 157.621 369.055 156.129 369.055 154.364ZM377.098 172.545V148.545H381.143V151.432H381.382C381.594 151.008 381.893 150.557 382.28 150.08C382.666 149.595 383.189 149.182 383.848 148.841C384.507 148.492 385.348 148.318 386.371 148.318C387.719 148.318 388.935 148.663 390.018 149.352C391.109 150.034 391.973 151.045 392.609 152.386C393.253 153.72 393.575 155.356 393.575 157.295C393.575 159.212 393.261 160.841 392.632 162.182C392.003 163.523 391.147 164.545 390.064 165.25C388.981 165.955 387.753 166.307 386.382 166.307C385.382 166.307 384.553 166.14 383.893 165.807C383.234 165.474 382.704 165.072 382.303 164.602C381.909 164.125 381.602 163.674 381.382 163.25H381.212V172.545H377.098ZM381.132 157.273C381.132 158.402 381.291 159.39 381.609 160.239C381.935 161.087 382.401 161.75 383.007 162.227C383.621 162.697 384.363 162.932 385.234 162.932C386.143 162.932 386.905 162.689 387.518 162.205C388.132 161.712 388.594 161.042 388.905 160.193C389.223 159.337 389.382 158.364 389.382 157.273C389.382 156.189 389.227 155.227 388.916 154.386C388.606 153.545 388.143 152.886 387.53 152.409C386.916 151.932 386.151 151.693 385.234 151.693C384.356 151.693 383.609 151.924 382.996 152.386C382.382 152.848 381.916 153.496 381.598 154.33C381.287 155.163 381.132 156.144 381.132 157.273ZM404.825 166.341C403.075 166.341 401.564 165.977 400.291 165.25C399.026 164.515 398.053 163.477 397.371 162.136C396.689 160.788 396.348 159.201 396.348 157.375C396.348 155.58 396.689 154.004 397.371 152.648C398.06 151.284 399.022 150.223 400.257 149.466C401.492 148.701 402.943 148.318 404.609 148.318C405.685 148.318 406.7 148.492 407.655 148.841C408.617 149.182 409.465 149.712 410.2 150.432C410.943 151.152 411.526 152.068 411.95 153.182C412.375 154.288 412.587 155.606 412.587 157.136V158.398H398.28V155.625H408.643C408.636 154.837 408.465 154.136 408.132 153.523C407.799 152.902 407.333 152.413 406.734 152.057C406.143 151.701 405.454 151.523 404.666 151.523C403.825 151.523 403.087 151.727 402.45 152.136C401.814 152.538 401.318 153.068 400.962 153.727C400.613 154.379 400.435 155.095 400.428 155.875V158.295C400.428 159.311 400.613 160.182 400.984 160.909C401.356 161.629 401.875 162.182 402.541 162.568C403.208 162.947 403.988 163.136 404.882 163.136C405.481 163.136 406.022 163.053 406.507 162.886C406.992 162.712 407.412 162.458 407.768 162.125C408.125 161.792 408.393 161.379 408.575 160.886L412.416 161.318C412.174 162.333 411.712 163.22 411.03 163.977C410.356 164.727 409.492 165.311 408.439 165.727C407.386 166.136 406.181 166.341 404.825 166.341ZM420.18 155.773V166H416.067V148.545H419.999V151.511H420.203C420.605 150.534 421.245 149.758 422.124 149.182C423.01 148.606 424.105 148.318 425.408 148.318C426.612 148.318 427.661 148.576 428.555 149.091C429.457 149.606 430.154 150.352 430.646 151.33C431.146 152.307 431.393 153.492 431.385 154.886V166H427.271V155.523C427.271 154.356 426.968 153.443 426.362 152.784C425.764 152.125 424.934 151.795 423.874 151.795C423.154 151.795 422.514 151.955 421.953 152.273C421.4 152.583 420.964 153.034 420.646 153.625C420.336 154.216 420.18 154.932 420.18 155.773ZM438.737 166H434.237L442.43 142.727H447.635L455.839 166H451.339L445.124 147.5H444.942L438.737 166ZM438.885 156.875H451.158V160.261H438.885V156.875ZM466.791 166H458.905V142.727H466.95C469.261 142.727 471.246 143.193 472.905 144.125C474.571 145.049 475.852 146.379 476.746 148.114C477.64 149.848 478.087 151.924 478.087 154.341C478.087 156.765 477.636 158.848 476.734 160.591C475.84 162.333 474.549 163.67 472.859 164.602C471.178 165.534 469.155 166 466.791 166ZM463.121 162.352H466.587C468.208 162.352 469.56 162.057 470.643 161.466C471.727 160.867 472.541 159.977 473.087 158.795C473.632 157.606 473.905 156.121 473.905 154.341C473.905 152.561 473.632 151.083 473.087 149.909C472.541 148.727 471.734 147.845 470.666 147.261C469.606 146.67 468.287 146.375 466.712 146.375H463.121V162.352Z" fill="black" fill-opacity="0.75"/>
<defs>
<clipPath id="clip0_904_14147">
<rect width="60" height="60" fill="white" transform="translate(385 53)"/>
</clipPath>
</defs>
</svg>
