<svg width="830" height="200" viewBox="0 0 830 200" fill="none" xmlns="http://www.w3.org/2000/svg">
<rect width="830" height="200" rx="3" fill="#F6F6F6"/>
<g clip-path="url(#clip0_904_14243)">
<path d="M423.341 34.2369L393.373 41.8949L385.02 71.6782L406.638 93.8028L436.606 86.1447L444.958 56.3615L423.341 34.2369Z" fill="#B8B8B8"/>
<path d="M430.075 78.2367L421.668 45.0792L397.158 68.9331L430.075 78.2367Z" fill="#B8B8B8"/>
<path d="M423.341 34.2377L421.668 45.0793L393.374 41.8957L423.341 34.2377Z" fill="#B8B8B8"/>
<path d="M393.373 41.895L397.158 68.9325L385.02 71.6782L393.373 41.895Z" fill="#B8B8B8"/>
<path d="M397.158 68.9331L406.638 93.8035L430.075 78.2367L397.158 68.9331Z" fill="#6C6C6C"/>
<path d="M430.075 78.2368L444.959 56.3623L421.668 45.0793L430.075 78.2368Z" fill="#727272"/>
<path d="M430.075 78.2367L436.606 86.1455L406.638 93.8035L430.075 78.2367Z" fill="#3F3F3F"/>
<path d="M430.075 78.2367L444.959 56.3623L436.606 86.1455L430.075 78.2367Z" fill="#555555"/>
<path d="M393.374 41.8957L421.668 45.0793L397.158 68.9331L393.374 41.8957Z" fill="#E1E1E1"/>
<path d="M423.341 34.2376L421.668 45.0793L444.959 56.3622L423.341 34.2376Z" fill="#939393"/>
<path d="M397.158 68.9331L406.638 93.8035L385.021 71.6789L397.158 68.9331Z" fill="#5F5F5F"/>
</g>
<path opacity="0.3" d="M378.266 156.273V165H377.209V156.273H378.266ZM380.385 165V156.273H383.436C384.044 156.273 384.545 156.378 384.94 156.588C385.335 156.795 385.629 157.075 385.822 157.428C386.016 157.777 386.112 158.165 386.112 158.591C386.112 158.966 386.045 159.276 385.912 159.52C385.781 159.764 385.608 159.957 385.392 160.099C385.179 160.241 384.947 160.347 384.697 160.415V160.5C384.964 160.517 385.233 160.611 385.503 160.781C385.773 160.952 385.999 161.196 386.18 161.514C386.362 161.832 386.453 162.222 386.453 162.682C386.453 163.119 386.354 163.513 386.155 163.862C385.956 164.212 385.642 164.489 385.213 164.693C384.784 164.898 384.226 165 383.538 165H380.385ZM381.442 164.062H383.538C384.229 164.062 384.719 163.929 385.009 163.662C385.301 163.392 385.447 163.065 385.447 162.682C385.447 162.386 385.372 162.114 385.222 161.864C385.071 161.611 384.857 161.409 384.578 161.259C384.3 161.105 383.97 161.028 383.589 161.028H381.442V164.062ZM381.442 160.108H383.402C383.72 160.108 384.007 160.045 384.263 159.92C384.521 159.795 384.726 159.619 384.876 159.392C385.03 159.165 385.107 158.898 385.107 158.591C385.107 158.207 384.973 157.882 384.706 157.615C384.439 157.345 384.016 157.21 383.436 157.21H381.442V160.108ZM388.19 156.273H389.451L392.417 163.517H392.519L395.485 156.273H396.746V165H395.758V158.369H395.673L392.945 165H391.991L389.263 158.369H389.178V165H388.19V156.273ZM402.24 165V156.273H405.189C405.871 156.273 406.431 156.389 406.868 156.622C407.306 156.852 407.63 157.169 407.84 157.572C408.05 157.976 408.155 158.435 408.155 158.949C408.155 159.463 408.05 159.919 407.84 160.317C407.63 160.714 407.307 161.027 406.873 161.254C406.438 161.479 405.882 161.591 405.206 161.591H402.82V160.636H405.172C405.638 160.636 406.013 160.568 406.297 160.432C406.584 160.295 406.792 160.102 406.919 159.852C407.05 159.599 407.115 159.298 407.115 158.949C407.115 158.599 407.05 158.294 406.919 158.033C406.789 157.771 406.58 157.57 406.293 157.428C406.006 157.283 405.627 157.21 405.155 157.21H403.297V165H402.24ZM406.348 161.08L408.496 165H407.269L405.155 161.08H406.348ZM412.454 165.136C411.823 165.136 411.279 164.997 410.822 164.719C410.367 164.438 410.016 164.045 409.769 163.543C409.525 163.037 409.403 162.449 409.403 161.778C409.403 161.108 409.525 160.517 409.769 160.006C410.016 159.491 410.36 159.091 410.8 158.804C411.244 158.514 411.761 158.369 412.352 158.369C412.692 158.369 413.029 158.426 413.362 158.54C413.694 158.653 413.996 158.838 414.269 159.094C414.542 159.347 414.759 159.682 414.921 160.099C415.083 160.517 415.164 161.031 415.164 161.642V162.068H410.119V161.199H414.141C414.141 160.83 414.067 160.5 413.92 160.21C413.775 159.92 413.567 159.692 413.298 159.524C413.031 159.357 412.715 159.273 412.352 159.273C411.951 159.273 411.604 159.372 411.312 159.571C411.022 159.767 410.799 160.023 410.643 160.338C410.487 160.653 410.408 160.991 410.408 161.352V161.932C410.408 162.426 410.494 162.845 410.664 163.189C410.837 163.53 411.077 163.79 411.384 163.969C411.691 164.145 412.048 164.233 412.454 164.233C412.718 164.233 412.957 164.196 413.17 164.122C413.386 164.045 413.572 163.932 413.728 163.781C413.884 163.628 414.005 163.437 414.09 163.21L415.062 163.483C414.96 163.812 414.788 164.102 414.546 164.352C414.305 164.599 414.006 164.793 413.651 164.932C413.296 165.068 412.897 165.136 412.454 165.136ZM421.33 159.92L420.427 160.176C420.37 160.026 420.286 159.879 420.175 159.737C420.067 159.592 419.92 159.473 419.732 159.379C419.545 159.286 419.305 159.239 419.012 159.239C418.612 159.239 418.278 159.331 418.011 159.516C417.746 159.697 417.614 159.929 417.614 160.21C417.614 160.46 417.705 160.658 417.887 160.803C418.069 160.947 418.353 161.068 418.739 161.165L419.711 161.403C420.296 161.545 420.732 161.763 421.019 162.055C421.306 162.345 421.45 162.719 421.45 163.176C421.45 163.551 421.342 163.886 421.126 164.182C420.913 164.477 420.614 164.71 420.231 164.881C419.847 165.051 419.401 165.136 418.893 165.136C418.225 165.136 417.673 164.991 417.235 164.702C416.798 164.412 416.521 163.989 416.404 163.432L417.359 163.193C417.45 163.545 417.621 163.81 417.874 163.986C418.13 164.162 418.464 164.25 418.876 164.25C419.344 164.25 419.717 164.151 419.992 163.952C420.271 163.75 420.41 163.509 420.41 163.227C420.41 163 420.33 162.81 420.171 162.656C420.012 162.5 419.768 162.384 419.438 162.307L418.347 162.051C417.748 161.909 417.308 161.689 417.026 161.391C416.748 161.089 416.609 160.713 416.609 160.261C416.609 159.892 416.712 159.565 416.92 159.281C417.13 158.997 417.415 158.774 417.776 158.612C418.14 158.45 418.552 158.369 419.012 158.369C419.66 158.369 420.168 158.511 420.538 158.795C420.91 159.08 421.174 159.455 421.33 159.92ZM425.708 165.136C425.077 165.136 424.533 164.997 424.076 164.719C423.621 164.438 423.27 164.045 423.023 163.543C422.779 163.037 422.657 162.449 422.657 161.778C422.657 161.108 422.779 160.517 423.023 160.006C423.27 159.491 423.614 159.091 424.054 158.804C424.498 158.514 425.015 158.369 425.605 158.369C425.946 158.369 426.283 158.426 426.615 158.54C426.948 158.653 427.25 158.838 427.523 159.094C427.796 159.347 428.013 159.682 428.175 160.099C428.337 160.517 428.418 161.031 428.418 161.642V162.068H423.373V161.199H427.395C427.395 160.83 427.321 160.5 427.174 160.21C427.029 159.92 426.821 159.692 426.551 159.524C426.284 159.357 425.969 159.273 425.605 159.273C425.205 159.273 424.858 159.372 424.566 159.571C424.276 159.767 424.053 160.023 423.897 160.338C423.74 160.653 423.662 160.991 423.662 161.352V161.932C423.662 162.426 423.748 162.845 423.918 163.189C424.091 163.53 424.331 163.79 424.638 163.969C424.945 164.145 425.301 164.233 425.708 164.233C425.972 164.233 426.211 164.196 426.424 164.122C426.64 164.045 426.826 163.932 426.982 163.781C427.138 163.628 427.259 163.437 427.344 163.21L428.316 163.483C428.213 163.812 428.042 164.102 427.8 164.352C427.559 164.599 427.26 164.793 426.905 164.932C426.55 165.068 426.151 165.136 425.708 165.136ZM431.874 165.153C431.459 165.153 431.083 165.075 430.745 164.919C430.407 164.76 430.138 164.531 429.939 164.233C429.74 163.932 429.641 163.568 429.641 163.142C429.641 162.767 429.715 162.463 429.863 162.23C430.01 161.994 430.208 161.81 430.455 161.676C430.702 161.543 430.975 161.443 431.273 161.378C431.574 161.31 431.877 161.256 432.181 161.216C432.578 161.165 432.901 161.126 433.148 161.101C433.398 161.072 433.58 161.026 433.694 160.96C433.81 160.895 433.868 160.781 433.868 160.619V160.585C433.868 160.165 433.753 159.838 433.523 159.605C433.296 159.372 432.951 159.256 432.488 159.256C432.007 159.256 431.631 159.361 431.358 159.571C431.086 159.781 430.894 160.006 430.783 160.244L429.828 159.903C429.999 159.506 430.226 159.196 430.51 158.974C430.797 158.75 431.11 158.594 431.448 158.506C431.789 158.415 432.124 158.369 432.453 158.369C432.664 158.369 432.905 158.395 433.178 158.446C433.453 158.494 433.719 158.595 433.975 158.749C434.233 158.902 434.448 159.134 434.618 159.443C434.789 159.753 434.874 160.168 434.874 160.688V165H433.868V164.114H433.817C433.749 164.256 433.635 164.408 433.476 164.57C433.317 164.732 433.105 164.869 432.841 164.983C432.577 165.097 432.255 165.153 431.874 165.153ZM432.027 164.25C432.425 164.25 432.76 164.172 433.033 164.016C433.309 163.859 433.516 163.658 433.655 163.411C433.797 163.163 433.868 162.903 433.868 162.631V161.71C433.826 161.761 433.732 161.808 433.587 161.851C433.445 161.891 433.28 161.926 433.093 161.957C432.908 161.986 432.728 162.011 432.551 162.034C432.378 162.054 432.238 162.071 432.13 162.085C431.868 162.119 431.624 162.175 431.397 162.251C431.172 162.325 430.99 162.437 430.851 162.588C430.715 162.736 430.647 162.937 430.647 163.193C430.647 163.543 430.776 163.807 431.034 163.986C431.296 164.162 431.627 164.25 432.027 164.25ZM436.71 165V158.455H437.681V159.443H437.749C437.869 159.119 438.085 158.857 438.397 158.655C438.71 158.453 439.062 158.352 439.454 158.352C439.528 158.352 439.62 158.354 439.731 158.357C439.842 158.359 439.925 158.364 439.982 158.369V159.392C439.948 159.384 439.87 159.371 439.748 159.354C439.629 159.334 439.502 159.324 439.369 159.324C439.05 159.324 438.766 159.391 438.516 159.524C438.269 159.655 438.073 159.837 437.928 160.07C437.786 160.3 437.715 160.562 437.715 160.858V165H436.71ZM443.634 165.136C443.021 165.136 442.492 164.991 442.049 164.702C441.606 164.412 441.265 164.013 441.026 163.504C440.788 162.996 440.668 162.415 440.668 161.761C440.668 161.097 440.79 160.51 441.035 160.001C441.282 159.49 441.626 159.091 442.066 158.804C442.509 158.514 443.026 158.369 443.617 158.369C444.077 158.369 444.492 158.455 444.862 158.625C445.231 158.795 445.533 159.034 445.769 159.341C446.005 159.648 446.151 160.006 446.208 160.415H445.202C445.126 160.116 444.955 159.852 444.691 159.622C444.43 159.389 444.077 159.273 443.634 159.273C443.242 159.273 442.898 159.375 442.603 159.58C442.31 159.781 442.082 160.067 441.917 160.436C441.755 160.803 441.674 161.233 441.674 161.727C441.674 162.233 441.754 162.673 441.913 163.048C442.075 163.423 442.302 163.714 442.594 163.922C442.89 164.129 443.237 164.233 443.634 164.233C443.896 164.233 444.133 164.188 444.346 164.097C444.559 164.006 444.739 163.875 444.887 163.705C445.035 163.534 445.14 163.33 445.202 163.091H446.208C446.151 163.477 446.011 163.825 445.786 164.135C445.565 164.442 445.271 164.686 444.904 164.868C444.54 165.047 444.117 165.136 443.634 165.136ZM448.684 161.062V165H447.678V156.273H448.684V159.477H448.769C448.923 159.139 449.153 158.871 449.46 158.672C449.769 158.47 450.181 158.369 450.695 158.369C451.141 158.369 451.532 158.459 451.867 158.638C452.202 158.814 452.462 159.085 452.647 159.452C452.835 159.815 452.928 160.278 452.928 160.841V165H451.923V160.909C451.923 160.389 451.788 159.987 451.518 159.703C451.251 159.416 450.88 159.273 450.406 159.273C450.076 159.273 449.781 159.342 449.519 159.482C449.261 159.621 449.056 159.824 448.906 160.091C448.758 160.358 448.684 160.682 448.684 161.062Z" fill="black" fill-opacity="0.75"/>
<path d="M373.294 125.364C373.294 127.871 372.824 130.019 371.885 131.807C370.953 133.587 369.68 134.951 368.067 135.898C366.461 136.845 364.639 137.318 362.601 137.318C360.563 137.318 358.737 136.845 357.124 135.898C355.518 134.943 354.245 133.576 353.305 131.795C352.374 130.008 351.908 127.864 351.908 125.364C351.908 122.856 352.374 120.712 353.305 118.932C354.245 117.144 355.518 115.777 357.124 114.83C358.737 113.883 360.563 113.409 362.601 113.409C364.639 113.409 366.461 113.883 368.067 114.83C369.68 115.777 370.953 117.144 371.885 118.932C372.824 120.712 373.294 122.856 373.294 125.364ZM369.055 125.364C369.055 123.598 368.779 122.11 368.226 120.898C367.68 119.678 366.923 118.758 365.953 118.136C364.983 117.508 363.866 117.193 362.601 117.193C361.336 117.193 360.218 117.508 359.249 118.136C358.279 118.758 357.518 119.678 356.964 120.898C356.419 122.11 356.146 123.598 356.146 125.364C356.146 127.129 356.419 128.621 356.964 129.841C357.518 131.053 358.279 131.973 359.249 132.602C360.218 133.223 361.336 133.534 362.601 133.534C363.866 133.534 364.983 133.223 365.953 132.602C366.923 131.973 367.68 131.053 368.226 129.841C368.779 128.621 369.055 127.129 369.055 125.364ZM377.098 143.545V119.545H381.143V122.432H381.382C381.594 122.008 381.893 121.557 382.28 121.08C382.666 120.595 383.189 120.182 383.848 119.841C384.507 119.492 385.348 119.318 386.371 119.318C387.719 119.318 388.935 119.663 390.018 120.352C391.109 121.034 391.973 122.045 392.609 123.386C393.253 124.72 393.575 126.356 393.575 128.295C393.575 130.212 393.261 131.841 392.632 133.182C392.003 134.523 391.147 135.545 390.064 136.25C388.981 136.955 387.753 137.307 386.382 137.307C385.382 137.307 384.553 137.14 383.893 136.807C383.234 136.473 382.704 136.072 382.303 135.602C381.909 135.125 381.602 134.674 381.382 134.25H381.212V143.545H377.098ZM381.132 128.273C381.132 129.402 381.291 130.39 381.609 131.239C381.935 132.087 382.401 132.75 383.007 133.227C383.621 133.697 384.363 133.932 385.234 133.932C386.143 133.932 386.905 133.689 387.518 133.205C388.132 132.712 388.594 132.042 388.905 131.193C389.223 130.337 389.382 129.364 389.382 128.273C389.382 127.189 389.227 126.227 388.916 125.386C388.606 124.545 388.143 123.886 387.53 123.409C386.916 122.932 386.151 122.693 385.234 122.693C384.356 122.693 383.609 122.924 382.996 123.386C382.382 123.848 381.916 124.496 381.598 125.33C381.287 126.163 381.132 127.144 381.132 128.273ZM404.825 137.341C403.075 137.341 401.564 136.977 400.291 136.25C399.026 135.515 398.053 134.477 397.371 133.136C396.689 131.788 396.348 130.201 396.348 128.375C396.348 126.58 396.689 125.004 397.371 123.648C398.06 122.284 399.022 121.223 400.257 120.466C401.492 119.701 402.943 119.318 404.609 119.318C405.685 119.318 406.7 119.492 407.655 119.841C408.617 120.182 409.465 120.712 410.2 121.432C410.943 122.152 411.526 123.068 411.95 124.182C412.375 125.288 412.587 126.606 412.587 128.136V129.398H398.28V126.625H408.643C408.636 125.837 408.465 125.136 408.132 124.523C407.799 123.902 407.333 123.413 406.734 123.057C406.143 122.701 405.454 122.523 404.666 122.523C403.825 122.523 403.087 122.727 402.45 123.136C401.814 123.538 401.318 124.068 400.962 124.727C400.613 125.379 400.435 126.095 400.428 126.875V129.295C400.428 130.311 400.613 131.182 400.984 131.909C401.356 132.629 401.875 133.182 402.541 133.568C403.208 133.947 403.988 134.136 404.882 134.136C405.481 134.136 406.022 134.053 406.507 133.886C406.992 133.712 407.412 133.458 407.768 133.125C408.125 132.792 408.393 132.379 408.575 131.886L412.416 132.318C412.174 133.333 411.712 134.22 411.03 134.977C410.356 135.727 409.492 136.311 408.439 136.727C407.386 137.136 406.181 137.341 404.825 137.341ZM420.18 126.773V137H416.067V119.545H419.999V122.511H420.203C420.605 121.534 421.245 120.758 422.124 120.182C423.01 119.606 424.105 119.318 425.408 119.318C426.612 119.318 427.661 119.576 428.555 120.091C429.457 120.606 430.154 121.352 430.646 122.33C431.146 123.307 431.393 124.492 431.385 125.886V137H427.271V126.523C427.271 125.356 426.968 124.443 426.362 123.784C425.764 123.125 424.934 122.795 423.874 122.795C423.154 122.795 422.514 122.955 421.953 123.273C421.4 123.583 420.964 124.034 420.646 124.625C420.336 125.216 420.18 125.932 420.18 126.773ZM438.737 137H434.237L442.43 113.727H447.635L455.839 137H451.339L445.124 118.5H444.942L438.737 137ZM438.885 127.875H451.158V131.261H438.885V127.875ZM466.791 137H458.905V113.727H466.95C469.261 113.727 471.246 114.193 472.905 115.125C474.571 116.049 475.852 117.379 476.746 119.114C477.64 120.848 478.087 122.924 478.087 125.341C478.087 127.765 477.636 129.848 476.734 131.591C475.84 133.333 474.549 134.67 472.859 135.602C471.178 136.534 469.155 137 466.791 137ZM463.121 133.352H466.587C468.208 133.352 469.56 133.057 470.643 132.466C471.727 131.867 472.541 130.977 473.087 129.795C473.632 128.606 473.905 127.121 473.905 125.341C473.905 123.561 473.632 122.083 473.087 120.909C472.541 119.727 471.734 118.845 470.666 118.261C469.606 117.67 468.287 117.375 466.712 117.375H463.121V133.352Z" fill="black" fill-opacity="0.75"/>
<defs>
<clipPath id="clip0_904_14243">
<rect width="60" height="60" fill="white" transform="translate(385 34)"/>
</clipPath>
</defs>
</svg>
